<svg xmlns="http://www.w3.org/2000/svg" width="12" height="12" viewBox="0 0 12 12" fill="none"><path d="M5.99954 11.25C6.14851 11.2509 6.29436 11.2074 6.4185 11.125C6.54264 11.0427 6.63945 10.9252 6.69657 10.7876C6.7537 10.6501 6.76856 10.4986 6.73925 10.3525C6.70995 10.2065 6.63782 10.0724 6.53204 9.96752L2.55704 6.00002L6.53204 2.03252C6.65491 1.88904 6.71912 1.70449 6.71183 1.51573C6.70454 1.32697 6.62629 1.14792 6.49272 1.01435C6.35915 0.880777 6.18009 0.802528 5.99133 0.795237C5.80258 0.787946 5.61802 0.852151 5.47454 0.975021L0.974544 5.47502C0.834856 5.61554 0.756449 5.80563 0.756449 6.00377C0.756449 6.20191 0.834856 6.392 0.974544 6.53252L5.47454 11.0325C5.61424 11.1711 5.80279 11.2492 5.99954 11.25Z" fill="#121315"></path><path d="M10.4995 11.25C10.6485 11.2509 10.7944 11.2074 10.9185 11.125C11.0426 11.0427 11.1394 10.9252 11.1966 10.7876C11.2537 10.65 11.2686 10.4986 11.2393 10.3525C11.21 10.2064 11.1378 10.0724 11.032 9.96752L7.05704 6.00002L11.032 2.03252C11.1733 1.89129 11.2526 1.69974 11.2526 1.50002C11.2526 1.30029 11.1733 1.10874 11.032 0.967517C10.8908 0.826289 10.6993 0.746948 10.4995 0.746948C10.2998 0.746948 10.1083 0.826289 9.96704 0.967517L5.46704 5.46752C5.32736 5.60804 5.24895 5.79813 5.24895 5.99627C5.24895 6.19441 5.32736 6.3845 5.46704 6.52502L9.96704 11.025C10.0365 11.0959 10.1193 11.1523 10.2107 11.1909C10.3022 11.2295 10.4003 11.2496 10.4995 11.25Z" fill="#121315"></path></svg>