<svg xmlns="http://www.w3.org/2000/svg" width="42" height="42" viewBox="0 0 42 42" fill="none"><path d="M39.48 9.23997H38.64V5.03997C38.64 3.92606 38.1975 2.85777 37.4098 2.07012C36.6222 1.28246 35.5539 0.839966 34.44 0.839966H7.56C6.44609 0.839966 5.3778 1.28246 4.59015 2.07012C3.8025 2.85777 3.36 3.92606 3.36 5.03997V9.23997H2.52C1.85165 9.23997 1.21068 9.50546 0.738091 9.97806C0.265499 10.4506 0 11.0916 0 11.76V17.64C0 18.3083 0.265499 18.9493 0.738091 19.4219C1.21068 19.8945 1.85165 20.16 2.52 20.16H3.36V33.6C3.3598 34.5682 3.69414 35.5068 4.30642 36.2568C4.91871 37.0069 5.77133 37.5223 6.72 37.716V39.48C6.72 39.9255 6.897 40.3528 7.21206 40.6679C7.52712 40.983 7.95444 41.16 8.4 41.16H13.44C13.8856 41.16 14.3129 40.983 14.6279 40.6679C14.943 40.3528 15.12 39.9255 15.12 39.48V37.8H26.88V39.48C26.88 39.9255 27.057 40.3528 27.3721 40.6679C27.6871 40.983 28.1144 41.16 28.56 41.16H33.6C34.0456 41.16 34.4729 40.983 34.7879 40.6679C35.103 40.3528 35.28 39.9255 35.28 39.48V37.716C36.2287 37.5223 37.0813 37.0069 37.6936 36.2568C38.3059 35.5068 38.6402 34.5682 38.64 33.6V20.16H39.48C40.1483 20.16 40.7893 19.8945 41.2619 19.4219C41.7345 18.9493 42 18.3083 42 17.64V11.76C42 11.0916 41.7345 10.4506 41.2619 9.97806C40.7893 9.50546 40.1483 9.23997 39.48 9.23997ZM7.56 24.36C6.89165 24.36 6.25068 24.0945 5.77809 23.6219C5.3055 23.1493 5.04 22.5083 5.04 21.84V10.08C5.04 9.85718 5.1285 9.64353 5.28603 9.486C5.44356 9.32846 5.65722 9.23997 5.88 9.23997H20.16V24.36H7.56ZM21.84 9.23997H36.12C36.3428 9.23997 36.5564 9.32846 36.714 9.486C36.8715 9.64353 36.96 9.85718 36.96 10.08V21.84C36.96 22.5083 36.6945 23.1493 36.2219 23.6219C35.7493 24.0945 35.1083 24.36 34.44 24.36H21.84V9.23997ZM7.56 2.51997H34.44C35.1083 2.51997 35.7493 2.78546 36.2219 3.25806C36.6945 3.73065 36.96 4.37162 36.96 5.03997V7.71117C36.6906 7.61337 36.4066 7.56224 36.12 7.55997H5.88C5.59344 7.56224 5.30937 7.61337 5.04 7.71117V5.03997C5.04 4.37162 5.3055 3.73065 5.77809 3.25806C6.25068 2.78546 6.89165 2.51997 7.56 2.51997ZM2.52 18.48C2.29722 18.48 2.08356 18.3915 1.92603 18.2339C1.7685 18.0764 1.68 17.8627 1.68 17.64V11.76C1.68 11.5372 1.7685 11.3235 1.92603 11.166C2.08356 11.0085 2.29722 10.92 2.52 10.92H3.36V18.48H2.52ZM13.44 39.48H8.4V37.8H13.44V39.48ZM28.56 39.48V37.8H33.6V39.48H28.56ZM34.44 36.12H7.56C6.89165 36.12 6.25068 35.8545 5.77809 35.3819C5.3055 34.9093 5.04 34.2683 5.04 33.6V25.2C5.76468 25.7496 6.65045 26.0449 7.56 26.04H34.44C35.3495 26.0449 36.2353 25.7496 36.96 25.2V33.6C36.96 34.2683 36.6945 34.9093 36.2219 35.3819C35.7493 35.8545 35.1083 36.12 34.44 36.12ZM40.32 17.64C40.32 17.8627 40.2315 18.0764 40.074 18.2339C39.9164 18.3915 39.7028 18.48 39.48 18.48H38.64V10.92H39.48C39.7028 10.92 39.9164 11.0085 40.074 11.166C40.2315 11.3235 40.32 11.5372 40.32 11.76V17.64Z" fill="#121315"></path><path d="M14.2807 5.87995H27.7207C27.9435 5.87995 28.1571 5.79145 28.3147 5.63392C28.4722 5.47639 28.5607 5.26273 28.5607 5.03995C28.5607 4.81717 28.4722 4.60351 28.3147 4.44598C28.1571 4.28845 27.9435 4.19995 27.7207 4.19995H14.2807C14.0579 4.19995 13.8443 4.28845 13.6867 4.44598C13.5292 4.60351 13.4407 4.81717 13.4407 5.03995C13.4407 5.26273 13.5292 5.47639 13.6867 5.63392C13.8443 5.79145 14.0579 5.87995 14.2807 5.87995ZM13.3315 28.9799L9.7867 28.1904C9.41827 28.1086 9.03618 28.1106 8.66864 28.1963C8.3011 28.282 7.95749 28.4491 7.66319 28.6853C7.36889 28.9216 7.13141 29.2209 6.96828 29.5612C6.80515 29.9015 6.72054 30.2742 6.7207 30.6516V31.92C6.7207 32.5883 6.9862 33.2293 7.45879 33.7019C7.93139 34.1744 8.57236 34.44 9.2407 34.44H14.2807C14.7263 34.44 15.1536 34.263 15.4686 33.9479C15.7837 33.6328 15.9607 33.2055 15.9607 32.76V32.2644C15.9618 31.4994 15.7018 30.7569 15.2238 30.1597C14.7457 29.5625 14.0782 29.1463 13.3315 28.9799ZM9.2407 32.76C9.01792 32.76 8.80426 32.6715 8.64673 32.5139C8.4892 32.3564 8.4007 32.1427 8.4007 31.92V30.6516C8.40028 30.5261 8.42797 30.4021 8.48176 30.2887C8.53554 30.1753 8.61405 30.0754 8.7115 29.9963C8.81077 29.9176 8.92657 29.8624 9.05021 29.8347C9.17386 29.8071 9.30216 29.8078 9.4255 29.8368L12.9619 30.618C13.3424 30.7016 13.6821 30.9149 13.9226 31.2214C14.1632 31.5279 14.2898 31.9084 14.2807 32.298V32.76H9.2407ZM32.2147 28.1904L28.6699 28.9799C27.9232 29.1463 27.2557 29.5625 26.7776 30.1597C26.2996 30.7569 26.0396 31.4994 26.0407 32.2644V32.76C26.0407 33.2055 26.2177 33.6328 26.5328 33.9479C26.8478 34.263 27.2751 34.44 27.7207 34.44H32.7607C33.429 34.44 34.07 34.1744 34.5426 33.7019C35.0152 33.2293 35.2807 32.5883 35.2807 31.92V30.6516C35.2809 30.2742 35.1963 29.9015 35.0331 29.5612C34.87 29.2209 34.6325 28.9216 34.3382 28.6853C34.0439 28.4491 33.7003 28.282 33.3328 28.1963C32.9652 28.1106 32.5831 28.1086 32.2147 28.1904ZM33.6007 31.92C33.6007 32.1427 33.5122 32.3564 33.3547 32.5139C33.1971 32.6715 32.9835 32.76 32.7607 32.76H27.7207V32.2644C27.7116 31.8748 27.8382 31.4943 28.0788 31.1878C28.3194 30.8813 28.659 30.668 29.0395 30.5844L32.5759 29.8032C32.6992 29.7742 32.8275 29.7735 32.9512 29.8011C33.0748 29.8288 33.1906 29.884 33.2899 29.9627C33.3874 30.0418 33.4659 30.1417 33.5196 30.2551C33.5734 30.3685 33.6011 30.4925 33.6007 30.618V31.92ZM23.5207 31.92H18.4807C18.2579 31.92 18.0443 32.0084 17.8867 32.166C17.7292 32.3235 17.6407 32.5372 17.6407 32.76C17.6407 32.9827 17.7292 33.1964 17.8867 33.3539C18.0443 33.5115 18.2579 33.6 18.4807 33.6H23.5207C23.7435 33.6 23.9571 33.5115 24.1147 33.3539C24.2722 33.1964 24.3607 32.9827 24.3607 32.76C24.3607 32.5372 24.2722 32.3235 24.1147 32.166C23.9571 32.0084 23.7435 31.92 23.5207 31.92ZM24.3607 28.5599H17.6407C17.4179 28.5599 17.2043 28.6484 17.0467 28.806C16.8892 28.9635 16.8007 29.1772 16.8007 29.4C16.8007 29.6227 16.8892 29.8364 17.0467 29.9939C17.2043 30.1515 17.4179 30.24 17.6407 30.24H24.3607C24.5835 30.24 24.7971 30.1515 24.9547 29.9939C25.1122 29.8364 25.2007 29.6227 25.2007 29.4C25.2007 29.1772 25.1122 28.9635 24.9547 28.806C24.7971 28.6484 24.5835 28.5599 24.3607 28.5599Z" fill="#121315"></path></svg>