<svg xmlns="http://www.w3.org/2000/svg" width="48" height="42" viewBox="0 0 48 42" fill="none"><path d="M0.75 13.5C0.948912 13.5 1.13968 13.421 1.28033 13.2803C1.42098 13.1397 1.5 12.9489 1.5 12.75V9.10125C1.98382 9.23218 2.4251 9.48707 2.78025 9.84075L6.21975 13.2803C6.3612 13.4169 6.55065 13.4925 6.7473 13.4908C6.94395 13.489 7.13206 13.4102 7.27111 13.2711C7.41017 13.1321 7.48905 12.9439 7.49076 12.7473C7.49246 12.5507 7.41687 12.3612 7.28025 12.2197L3.84075 8.78025C3.01918 7.9633 1.90861 7.50328 0.75 7.5C0.551088 7.5 0.360322 7.57902 0.21967 7.71967C0.0790176 7.86032 0 8.05109 0 8.25L0 12.75C0 12.9489 0.0790176 13.1397 0.21967 13.2803C0.360322 13.421 0.551088 13.5 0.75 13.5ZM45.459 18.2085C44.5486 17.1993 43.4366 16.3923 42.1948 15.8396C40.9531 15.2869 39.6092 15.0009 38.25 15H0.75C0.551088 15 0.360322 15.079 0.21967 15.2197C0.0790176 15.3603 0 15.5511 0 15.75C0.0033746 18.7326 1.18972 21.5922 3.29878 23.7012C5.40783 25.8103 8.26735 26.9966 11.25 27H45.75C46.3467 27 46.919 26.7629 47.341 26.341C47.7629 25.919 48 25.3467 48 24.75C47.9994 22.3469 47.1064 20.0296 45.4943 18.2475C45.4823 18.234 45.4717 18.2205 45.459 18.2085ZM45.75 25.5H11.25C8.79482 25.497 6.4309 24.569 4.62925 22.9011C2.82761 21.2332 1.72049 18.9477 1.5285 16.5H38.25C39.9433 16.4996 41.5953 17.0236 42.9788 18H39C38.8011 18 38.6103 18.079 38.4697 18.2197C38.329 18.3603 38.25 18.5511 38.25 18.75C38.25 18.9489 38.329 19.1397 38.4697 19.2803C38.6103 19.421 38.8011 19.5 39 19.5H44.6092C45.833 20.9757 46.5019 22.8329 46.5 24.75C46.5 24.9489 46.421 25.1397 46.2803 25.2803C46.1397 25.421 45.9489 25.5 45.75 25.5Z" fill="#121315"></path><path d="M13.5 18H12C11.8011 18 11.6103 18.079 11.4697 18.2197C11.329 18.3603 11.25 18.5511 11.25 18.75C11.25 18.9489 11.329 19.1397 11.4697 19.2803C11.6103 19.421 11.8011 19.5 12 19.5H13.5C13.6989 19.5 13.8897 19.421 14.0303 19.2803C14.171 19.1397 14.25 18.9489 14.25 18.75C14.25 18.5511 14.171 18.3603 14.0303 18.2197C13.8897 18.079 13.6989 18 13.5 18ZM36 18H34.5C34.3011 18 34.1103 18.079 33.9697 18.2197C33.829 18.3603 33.75 18.5511 33.75 18.75C33.75 18.9489 33.829 19.1397 33.9697 19.2803C34.1103 19.421 34.3011 19.5 34.5 19.5H36C36.1989 19.5 36.3897 19.421 36.5303 19.2803C36.671 19.1397 36.75 18.9489 36.75 18.75C36.75 18.5511 36.671 18.3603 36.5303 18.2197C36.3897 18.079 36.1989 18 36 18ZM31.5 18H30C29.8011 18 29.6103 18.079 29.4697 18.2197C29.329 18.3603 29.25 18.5511 29.25 18.75C29.25 18.9489 29.329 19.1397 29.4697 19.2803C29.6103 19.421 29.8011 19.5 30 19.5H31.5C31.6989 19.5 31.8897 19.421 32.0303 19.2803C32.171 19.1397 32.25 18.9489 32.25 18.75C32.25 18.5511 32.171 18.3603 32.0303 18.2197C31.8897 18.079 31.6989 18 31.5 18ZM9 18H7.5C7.30109 18 7.11032 18.079 6.96967 18.2197C6.82902 18.3603 6.75 18.5511 6.75 18.75C6.75 18.9489 6.82902 19.1397 6.96967 19.2803C7.11032 19.421 7.30109 19.5 7.5 19.5H9C9.19891 19.5 9.38968 19.421 9.53033 19.2803C9.67098 19.1397 9.75 18.9489 9.75 18.75C9.75 18.5511 9.67098 18.3603 9.53033 18.2197C9.38968 18.079 9.19891 18 9 18ZM26.502 28.689L15.2438 38.7C14.243 39.5908 13.0114 40.1814 11.6902 40.404L16.437 29.55C16.5095 29.3691 16.5087 29.167 16.4347 28.9866C16.3608 28.8063 16.2196 28.6618 16.0409 28.5838C15.8623 28.5058 15.6603 28.5004 15.4778 28.5688C15.2952 28.6371 15.1465 28.7738 15.063 28.95L9.813 40.95C9.7632 41.0641 9.74259 41.1888 9.75303 41.3129C9.76346 41.4369 9.80462 41.5564 9.87279 41.6606C9.94095 41.7648 10.034 41.8504 10.1435 41.9096C10.253 41.9689 10.3755 41.9999 10.5 42C12.6161 42.0009 14.6588 41.2242 16.2397 39.8175L27.498 29.811C27.6472 29.6789 27.7378 29.493 27.7499 29.2941C27.762 29.0952 27.6946 28.8997 27.5625 28.7505C27.4304 28.6013 27.2445 28.5107 27.0456 28.4986C26.8467 28.4865 26.6512 28.5539 26.502 28.686V28.689ZM15.063 13.05C15.1213 13.1837 15.2174 13.2975 15.3394 13.3774C15.4615 13.4573 15.6041 13.4999 15.75 13.5C15.8533 13.5002 15.9555 13.4787 16.05 13.437C16.1403 13.3976 16.2219 13.3407 16.2902 13.2698C16.3585 13.1988 16.4122 13.115 16.4481 13.0233C16.4841 12.9316 16.5016 12.8337 16.4997 12.7352C16.4978 12.6367 16.4765 12.5395 16.437 12.4493L11.6902 1.59975C13.011 1.82128 14.2426 2.41056 15.2438 3.3L26.502 13.311C26.6512 13.4431 26.8467 13.5105 27.0456 13.4984C27.2445 13.4863 27.4304 13.3957 27.5625 13.2465C27.6946 13.0973 27.762 12.9018 27.7499 12.7029C27.7378 12.504 27.6472 12.3181 27.498 12.186L16.2397 2.1825C14.6588 0.775795 12.6161 -0.000929469 10.5 8.34719e-07C10.3755 6.49622e-05 10.253 0.0311211 10.1435 0.090368C10.034 0.149615 9.94095 0.235189 9.87279 0.33937C9.80462 0.443552 9.76346 0.563064 9.75303 0.687125C9.74259 0.811187 9.7632 0.935895 9.813 1.05L15.063 13.05ZM27 18H25.5C25.3011 18 25.1103 18.079 24.9697 18.2197C24.829 18.3603 24.75 18.5511 24.75 18.75C24.75 18.9489 24.829 19.1397 24.9697 19.2803C25.1103 19.421 25.3011 19.5 25.5 19.5H27C27.1989 19.5 27.3897 19.421 27.5303 19.2803C27.671 19.1397 27.75 18.9489 27.75 18.75C27.75 18.5511 27.671 18.3603 27.5303 18.2197C27.3897 18.079 27.1989 18 27 18ZM22.5 18H21C20.8011 18 20.6103 18.079 20.4697 18.2197C20.329 18.3603 20.25 18.5511 20.25 18.75C20.25 18.9489 20.329 19.1397 20.4697 19.2803C20.6103 19.421 20.8011 19.5 21 19.5H22.5C22.6989 19.5 22.8897 19.421 23.0303 19.2803C23.171 19.1397 23.25 18.9489 23.25 18.75C23.25 18.5511 23.171 18.3603 23.0303 18.2197C22.8897 18.079 22.6989 18 22.5 18ZM18 18H16.5C16.3011 18 16.1103 18.079 15.9697 18.2197C15.829 18.3603 15.75 18.5511 15.75 18.75C15.75 18.9489 15.829 19.1397 15.9697 19.2803C16.1103 19.421 16.3011 19.5 16.5 19.5H18C18.1989 19.5 18.3897 19.421 18.5303 19.2803C18.671 19.1397 18.75 18.9489 18.75 18.75C18.75 18.5511 18.671 18.3603 18.5303 18.2197C18.3897 18.079 18.1989 18 18 18ZM41.0077 34.5427C40.704 33.6548 40.1303 32.8841 39.3668 32.3384C38.6034 31.7927 37.6884 31.4993 36.75 31.4993C35.8116 31.4993 34.8966 31.7927 34.1332 32.3384C33.3697 32.8841 32.796 33.6548 32.4923 34.5427C31.7509 34.6693 31.0841 35.0696 30.6239 35.6645C30.1638 36.2594 29.9439 37.0054 30.0077 37.7548C30.0716 38.5041 30.4146 39.2022 30.9688 39.7106C31.523 40.219 32.2479 40.5008 33 40.5H40.5C40.6989 40.5 40.8897 40.421 41.0303 40.2803C41.171 40.1397 41.25 39.9489 41.25 39.75C41.25 39.5511 41.171 39.3603 41.0303 39.2197C40.8897 39.079 40.6989 39 40.5 39H33C32.6022 39.0089 32.2171 38.8593 31.9296 38.5843C31.642 38.3092 31.4755 37.9312 31.4666 37.5334C31.4578 37.1355 31.6073 36.7505 31.8824 36.4629C32.1574 36.1754 32.5354 36.0089 32.9333 36C32.958 36.0037 33.0165 36.0098 33.042 36.0105C33.2191 36.0126 33.3917 35.9543 33.5312 35.8452C33.6708 35.7362 33.7691 35.5829 33.81 35.4105C33.9477 34.7323 34.3156 34.1226 34.8514 33.6847C35.3873 33.2467 36.058 33.0075 36.75 33.0075C37.442 33.0075 38.1127 33.2467 38.6486 33.6847C39.1844 34.1226 39.5523 34.7323 39.69 35.4105C39.7301 35.5833 39.8282 35.737 39.968 35.8462C40.1077 35.9554 40.2807 36.0134 40.458 36.0105C40.4948 36.0105 40.533 36.0052 40.5 36.0037C40.8978 36.0037 41.2794 36.1618 41.5607 36.4431C41.842 36.7244 42 37.1059 42 37.5037C42 37.7027 42.079 37.8934 42.2197 38.0341C42.3603 38.1747 42.5511 38.2537 42.75 38.2537C42.9489 38.2537 43.1397 38.1747 43.2803 38.0341C43.421 37.8934 43.5 37.7027 43.5 37.5037C43.5 36.7957 43.2499 36.1104 42.794 35.5687C42.338 35.0269 41.7054 34.6636 41.0077 34.5427ZM23.5643 5.8605L28.8142 9.6105C28.9264 9.69056 29.0584 9.73817 29.1959 9.74812C29.3333 9.75806 29.4708 9.72996 29.5933 9.66688C29.7158 9.60381 29.8186 9.5082 29.8903 9.39056C29.9621 9.27292 30 9.13779 30 9V7.5H33C33.1989 7.5 33.3897 7.42098 33.5303 7.28033C33.671 7.13968 33.75 6.94891 33.75 6.75C33.75 6.55109 33.671 6.36032 33.5303 6.21967C33.3897 6.07902 33.1989 6 33 6H29.25C29.0511 6 28.8603 6.07902 28.7197 6.21967C28.579 6.36032 28.5 6.55109 28.5 6.75V7.54275L25.2908 5.25L28.5 2.95725V3.75C28.5 3.94891 28.579 4.13968 28.7197 4.28033C28.8603 4.42098 29.0511 4.5 29.25 4.5H36C36.1989 4.5 36.3897 4.42098 36.5303 4.28033C36.671 4.13968 36.75 3.94891 36.75 3.75C36.75 3.55109 36.671 3.36032 36.5303 3.21967C36.3897 3.07902 36.1989 3 36 3H30V1.5C30 1.36221 29.9621 1.22708 29.8903 1.10944C29.8186 0.991798 29.7158 0.896194 29.5933 0.83312C29.4708 0.770045 29.3333 0.741939 29.1959 0.751885C29.0584 0.761831 28.9264 0.809445 28.8142 0.889501L23.5643 4.6395C23.467 4.70888 23.3878 4.80047 23.3331 4.90666C23.2784 5.01285 23.2499 5.13056 23.2499 5.25C23.2499 5.36944 23.2784 5.48715 23.3331 5.59334C23.3878 5.69953 23.467 5.79112 23.5643 5.8605ZM37.5 7.5H42C42.1989 7.5 42.3897 7.42098 42.5303 7.28033C42.671 7.13968 42.75 6.94891 42.75 6.75V5.95725L45.9593 8.25L42.75 10.5428V9.75C42.75 9.55109 42.671 9.36032 42.5303 9.21967C42.3897 9.07902 42.1989 9 42 9H35.25C35.0511 9 34.8603 9.07902 34.7197 9.21967C34.579 9.36032 34.5 9.55109 34.5 9.75C34.5 9.94891 34.579 10.1397 34.7197 10.2803C34.8603 10.421 35.0511 10.5 35.25 10.5H41.25V12C41.25 12.1378 41.2879 12.2729 41.3597 12.3906C41.4314 12.5082 41.5342 12.6038 41.6567 12.6669C41.7792 12.73 41.9167 12.7581 42.0541 12.7481C42.1916 12.7382 42.3236 12.6906 42.4358 12.6105L47.6858 8.8605C47.783 8.79112 47.8622 8.69953 47.9169 8.59334C47.9716 8.48715 48.0001 8.36944 48.0001 8.25C48.0001 8.13056 47.9716 8.01285 47.9169 7.90666C47.8622 7.80047 47.783 7.70888 47.6858 7.6395L42.4358 3.8895C42.3236 3.80944 42.1916 3.76183 42.0541 3.75188C41.9167 3.74194 41.7792 3.77005 41.6567 3.83312C41.5342 3.89619 41.4314 3.9918 41.3597 4.10944C41.2879 4.22708 41.25 4.36221 41.25 4.5V6H37.5C37.3011 6 37.1103 6.07902 36.9697 6.21967C36.829 6.36032 36.75 6.55109 36.75 6.75C36.75 6.94891 36.829 7.13968 36.9697 7.28033C37.1103 7.42098 37.3011 7.5 37.5 7.5Z" fill="#121315"></path></svg>