<svg xmlns="http://www.w3.org/2000/svg" width="48" height="48" viewBox="0 0 48 48" fill="none"><g clip-path="url(#clip0_16457_2042)"><path d="M23.325 10.575C23.1 10.575 22.95 10.5 22.8 10.35C22.5 10.05 22.5 9.59995 22.8 9.29995L23.25 8.84995C23.625 8.39995 23.625 7.72495 23.25 7.34995C22.875 6.97495 22.2 6.97495 21.75 7.34995L19.275 9.82495C18.975 10.125 18.525 10.125 18.225 9.82495C17.925 9.52495 17.925 9.07495 18.225 8.77495L20.7 6.29995C21.75 5.32495 23.325 5.32495 24.3 6.29995C25.275 7.27495 25.275 8.84995 24.3 9.89995L23.85 10.35C23.7 10.5 23.55 10.575 23.325 10.575ZM13.575 9.44995C13.35 9.44995 13.2 9.37495 13.05 9.22495C12.75 8.92495 12.75 8.47495 13.05 8.17495L13.8 7.42495C14.175 6.97495 14.175 6.29995 13.8 5.92495C13.425 5.54995 12.675 5.54995 12.3 5.92495L9.525 8.69995C9.225 8.99995 8.775 8.99995 8.475 8.69995C8.175 8.39995 8.175 7.94995 8.475 7.64995L11.25 4.87495C12.15 3.97495 13.95 3.97495 14.85 4.87495C15.825 5.84995 15.825 7.42495 14.85 8.47495L14.1 9.22495C13.95 9.37495 13.8 9.44995 13.575 9.44995Z" fill="#121315"></path><path d="M20.3242 22.1254C20.1742 22.1254 20.0242 22.0504 19.8742 21.9754C15.3742 18.9754 7.57422 14.5504 1.27422 12.0004C1.04922 11.9254 0.824219 11.7754 0.599219 11.5504C-0.225781 10.7254 -0.225781 9.45042 0.599219 8.55042L0.674219 8.47542C1.87422 7.35042 3.52422 6.82542 5.24922 6.97542L23.3242 9.07542L30.1492 10.2004C30.5242 10.2754 30.8242 10.6504 30.7492 11.0254C30.6742 11.4004 30.2992 11.7004 29.9242 11.6254L23.0992 10.5004L5.09922 8.47542C3.82422 8.32542 2.62422 8.77542 1.64922 9.60042C1.42422 9.90042 1.42422 10.2754 1.64922 10.5004C1.72422 10.5754 1.79922 10.5754 1.87422 10.6504C8.17422 13.2004 16.1242 17.7004 20.6992 20.7754C21.0742 21.0004 21.1492 21.4504 20.9242 21.8254C20.7742 21.9754 20.5492 22.1254 20.3242 22.1254ZM38.9992 29.8504C38.7742 29.8504 38.6242 29.7754 38.4742 29.6254C38.1742 29.3254 38.1742 28.8754 38.4742 28.5754L40.9492 26.1004C41.3242 25.6504 41.3242 24.9754 40.9492 24.6004C40.5742 24.2254 39.8992 24.2254 39.4492 24.6004L38.9992 25.0504C38.6992 25.3504 38.2492 25.3504 37.9492 25.0504C37.6492 24.7504 37.6492 24.3004 37.9492 24.0004L38.3992 23.5504C39.4492 22.5754 41.0242 22.5754 41.9992 23.5504C42.9742 24.5254 42.9742 26.1004 41.9992 27.1504L39.5242 29.6254C39.3742 29.7754 39.2242 29.8504 38.9992 29.8504ZM40.1242 39.5254C39.8992 39.5254 39.7492 39.4504 39.5992 39.3004C39.2992 39.0004 39.2992 38.5504 39.5992 38.2504L42.2992 35.4754C42.6742 35.0254 42.6742 34.3504 42.2992 33.9754C41.9242 33.6004 41.2492 33.6004 40.7992 33.9754L40.0492 34.7254C39.7492 35.0254 39.2992 35.0254 38.9992 34.7254C38.6992 34.4254 38.6992 33.9754 38.9992 33.6754L39.7492 32.9254C40.7992 31.9504 42.3742 31.9504 43.3492 32.9254C44.3242 33.9004 44.3242 35.4754 43.3492 36.5254L40.6492 39.3004C40.4992 39.4504 40.3492 39.5254 40.1242 39.5254Z" fill="#121315"></path><path d="M38.175 47.7749C37.65 47.7749 37.05 47.5499 36.675 47.1749C36.45 46.9499 36.3 46.7249 36.225 46.4999C33.6 40.1249 29.175 32.0999 26.1 27.4499C25.875 27.0749 25.95 26.6249 26.325 26.3999C26.7 26.1749 27.15 26.2499 27.375 26.6249C30.525 31.3499 35.025 39.4499 37.65 45.8999C37.725 45.9749 37.725 46.0499 37.8 46.1249C38.025 46.3499 38.475 46.3499 38.7 46.1249C39.6 45.2249 40.05 43.9499 39.9 42.6749L37.8 24.5249L36.75 17.3999C36.675 17.0249 36.975 16.5749 37.35 16.5749C37.725 16.4999 38.175 16.7999 38.175 17.1749L39.225 24.2999L41.325 42.4499C41.475 44.1749 40.875 45.8999 39.675 47.0999C39.3 47.6249 38.7 47.7749 38.175 47.7749ZM10.65 35.8499C10.5 35.8499 10.35 35.7749 10.2 35.6999L2.175 30.2999C1.8 29.9999 1.575 29.5499 1.5 29.0999C1.5 28.6499 1.65 28.2749 1.95 27.8999L3.3 26.5499C3.75 26.0999 4.2 26.0999 4.575 26.0999H4.725L13.275 28.1999C13.65 28.2749 13.95 28.7249 13.8 29.0999C13.725 29.4749 13.275 29.7749 12.9 29.6249L4.575 27.6749H4.425L3.075 29.0249L11.1 34.4999C11.475 34.7249 11.55 35.1749 11.325 35.5499C11.1 35.6999 10.875 35.8499 10.65 35.8499ZM19.125 46.4249H18.9C18.45 46.3499 18.075 46.1249 17.85 45.7499L12 37.0499C11.775 36.6749 11.85 36.2249 12.225 35.9999C12.6 35.7749 13.05 35.8499 13.275 36.2249L19.125 44.8499L20.4 43.5749L17.85 34.6499C17.7 34.2749 18 33.8249 18.375 33.7499C18.75 33.6749 19.2 33.8999 19.275 34.2749L21.825 43.1999C21.975 43.6499 21.825 44.2499 21.375 44.6999L20.025 46.0499C19.875 46.2749 19.5 46.4249 19.125 46.4249Z" fill="#121315"></path><path d="M13.573 37.1249C13.348 37.1249 13.048 37.125 12.823 37.05C12.448 36.975 12.148 36.5999 12.223 36.2249C12.298 35.8499 12.673 35.5499 13.048 35.6249C14.623 35.8499 17.248 34.8 17.998 34.05L42.973 11.2499C45.448 8.84995 47.398 3.82495 45.898 2.24995C45.523 1.87495 44.923 1.64995 44.098 1.72495C41.848 1.72495 38.548 3.29995 36.748 5.09995L13.648 29.55C12.898 30.3 11.773 32.775 12.073 34.425C12.148 34.8 11.848 35.2499 11.473 35.2499C11.098 35.3249 10.648 35.025 10.648 34.65C10.273 32.475 11.623 29.5499 12.673 28.5L35.773 3.97495C37.873 1.79995 41.548 0.149951 44.173 0.0749512H44.248C45.448 0.0749512 46.423 0.374951 47.098 1.04995C49.498 3.52495 47.023 9.37495 44.173 12.15L19.123 35.025C18.223 35.9999 15.673 37.1249 13.573 37.1249Z" fill="#121315"></path><path d="M42.6 8.25C42.225 8.25 41.85 7.95 41.85 7.575C41.775 6.9 41.25 6.45 40.5 6.375H40.35C39.9 6.375 39.6 6.075 39.6 5.625C39.6 5.175 39.9 4.875 40.35 4.875H40.575C42.15 4.95 43.275 6 43.35 7.425C43.35 7.875 43.05 8.25 42.6 8.25ZM10.275 39.225C9.75 39.225 9.225 39 8.85 38.625C8.475 38.25 8.25 37.8 8.25 37.275C8.25 36.75 8.475 36.225 8.775 35.85L13.05 31.575C13.725 30.9 15.15 30.9 15.825 31.575C16.2 31.95 16.35 32.4 16.35 33C16.35 33.6 16.125 34.05 15.825 34.425L11.55 38.7C11.325 39 10.8 39.225 10.275 39.225ZM14.55 32.55C14.4 32.55 14.325 32.625 14.25 32.7L9.975 36.975C9.9 37.05 9.825 37.2 9.825 37.275C9.825 37.425 9.9 37.5 9.975 37.575C10.2 37.8 10.425 37.8 10.575 37.65L14.925 33.3C15 33.225 15.075 33.075 15.075 33C15.075 32.925 15 32.775 14.925 32.7C14.775 32.55 14.625 32.55 14.55 32.55Z" fill="#121315"></path></g><defs><clipPath id="clip0_16457_2042"><rect width="48" height="48" fill="white"></rect></clipPath></defs></svg>