<svg xmlns="http://www.w3.org/2000/svg" width="48" height="48" viewBox="0 0 48 48" fill="none"><g clip-path="url(#clip0_16457_2059)"><path d="M46.1641 19.2308L45.118 18.1231L41.4462 8.22566C40.8205 6.55386 39.2205 5.44617 37.4359 5.43591H11.2103C9.42564 5.43591 7.82564 6.55386 7.2 8.22566L3.57949 18L2.07179 19.3949C0.758974 20.5128 0 22.1539 0 23.8769V38.2975C0.0102564 40.6564 1.92821 42.5641 4.28718 42.5641H6.99487C9.35385 42.5641 11.2718 40.6564 11.2821 38.2975V36.2051H36.7179V38.2975C36.7282 40.6564 38.6462 42.5641 41.0051 42.5641H43.7128C46.0718 42.5641 47.9897 40.6564 48 38.2975V23.4975C47.9897 21.8872 47.3333 20.3487 46.1641 19.2308ZM9.12821 8.92309C9.45641 8.0513 10.2872 7.4872 11.2103 7.4872H37.4462C38.3692 7.4872 39.2 8.06155 39.5282 8.92309L42.7282 17.5385H40.3385C39.7744 13.6923 36.1949 11.0359 32.3487 11.6103C29.2821 12.0616 26.8718 14.4718 26.4205 17.5385H5.92821L9.12821 8.92309ZM38.2462 17.5385H28.4923C29.0564 14.841 31.7026 13.118 34.4 13.6821C36.3282 14.0923 37.8359 15.6 38.2462 17.5385ZM9.23077 38.2975C9.22051 39.5282 8.22564 40.5128 6.99487 40.5128H4.28718C3.05641 40.5128 2.06154 39.5282 2.05128 38.2975V35.6103C2.66667 36.0103 3.47692 36.2051 4.28718 36.2051H9.23077V38.2975ZM45.9487 38.2975C45.9385 39.5282 44.9436 40.5128 43.7128 40.5128H41.0051C39.7744 40.5128 38.7795 39.518 38.7692 38.2975V36.2051H43.7128C44.5231 36.2051 45.3333 36.0103 45.9487 35.6103V38.2975ZM43.7128 34.1539H4.28718C3.06667 34.1641 2.06154 33.1898 2.05128 31.959V23.8769C2.05128 22.7487 2.55385 21.6718 3.41538 20.9436L3.45641 20.9026L4.85128 19.5898H43.6923L44.6769 20.6462C44.6872 20.6667 44.7179 20.6769 44.7282 20.6975C45.4974 21.4257 45.9385 22.441 45.9385 23.4975V31.959H45.9487C45.9385 33.1795 44.9333 34.1641 43.7128 34.1539Z" fill="#121315"></path><path d="M13.5383 23.6923H5.84595C5.28185 23.6923 4.82031 24.1539 4.82031 24.718V30.0513C4.82031 30.6154 5.28185 31.0769 5.84595 31.0769H13.5383C14.1024 31.0769 14.5639 30.6154 14.5639 30.0513V24.718C14.5639 24.1539 14.1024 23.6923 13.5383 23.6923ZM12.5126 29.0257H6.87159V25.7436H12.5126V29.0257ZM42.1536 23.6923H34.4613C33.8972 23.6923 33.4357 24.1539 33.4357 24.718V30.0513C33.4357 30.6154 33.8972 31.0769 34.4613 31.0769H42.1536C42.7178 31.0769 43.1793 30.6154 43.1793 30.0513V24.718C43.1793 24.1539 42.7178 23.6923 42.1536 23.6923ZM41.128 29.0257H35.487V25.7436H41.128V29.0257ZM28.9536 28H19.046C18.4819 28 18.0203 28.4616 18.0203 29.0257C18.0203 29.5898 18.4819 30.0513 19.046 30.0513H28.9536C29.5177 30.0513 29.9793 29.5898 29.9793 29.0257C29.9793 28.4616 29.5177 28 28.9536 28ZM28.9536 24.8205H19.046C18.4819 24.8205 18.0203 25.2821 18.0203 25.8462C18.0203 26.4103 18.4819 26.8718 19.046 26.8718H28.9536C29.5177 26.8718 29.9793 26.4103 29.9793 25.8462C29.9793 25.2821 29.5177 24.8205 28.9536 24.8205Z" fill="#121315"></path></g><defs><clipPath id="clip0_16457_2059"><rect width="48" height="48" fill="white"></rect></clipPath></defs></svg>