<svg xmlns="http://www.w3.org/2000/svg" width="30" height="32" viewBox="0 0 30 32" fill="none"><path fill-rule="evenodd" clip-rule="evenodd" d="M17.9246 2.93556C17.9246 2.80056 17.9782 2.67109 18.0737 2.57563C18.1692 2.48017 18.2986 2.42654 18.4336 2.42654C21.2096 2.42654 23.4681 4.6842 23.4681 7.46015C23.468 7.59513 23.4144 7.72456 23.3189 7.82001C23.2235 7.91545 23.094 7.9691 22.9591 7.96918C22.8922 7.96917 22.8261 7.95599 22.7643 7.9304C22.7026 7.90482 22.6465 7.86731 22.5993 7.82004C22.5521 7.77277 22.5146 7.71666 22.4891 7.65491C22.4635 7.59315 22.4504 7.52698 22.4504 7.46015C22.4504 5.24556 20.6477 3.44417 18.4336 3.44417C18.1525 3.44417 17.9246 3.21579 17.9246 2.93556ZM28.7993 17.8258C28.5558 18.0694 28.1591 18.0694 27.9147 17.8258L25.3759 15.2862C25.1315 15.0431 25.1315 14.6459 25.375 14.4024C25.375 14.4024 25.3759 14.4024 25.3759 14.402C25.6194 14.158 26.0161 14.158 26.2597 14.402L28.7993 16.9412C29.0429 17.1856 29.0429 17.5819 28.7993 17.8258ZM12.2258 30.2056V18.2914L18.0787 14.9127C18.1968 14.9177 18.3155 14.9207 18.4336 14.9207C19.8674 14.9207 21.3016 14.5113 22.5433 13.6921V24.2485L12.2258 30.2056ZM0.953893 12.3351L4.14388 14.1767V21.5954C4.14388 21.961 4.53899 22.1894 4.85547 22.0107L5.93727 21.3999L7.19205 23.558C7.43644 23.9781 8.08179 23.8037 8.08179 23.3183V16.4495L11.2718 18.2914V30.2056L0.953893 24.2485V12.3351ZM5.09784 14.1762V20.7787L5.87826 20.3381C6.10574 20.2097 6.39403 20.2878 6.52486 20.5136L7.12803 21.5498V15.6235C7.12799 15.5398 7.15002 15.4576 7.19188 15.3851C7.23375 15.3126 7.29398 15.2525 7.36651 15.2107L12.6394 12.1663C12.2095 11.6393 11.854 11.0557 11.583 10.432L5.09784 14.1762ZM4.6209 13.3507L11.2567 9.5195C10.9224 8.34996 10.8798 7.10269 11.1305 5.90865L1.43084 11.5083L4.6209 13.3507ZM11.7489 17.4654L16.5656 14.6844C15.3783 14.3796 14.2526 13.779 13.3051 12.883L8.55887 15.6235L11.7489 17.4654ZM13.8757 2.90223C11.3557 5.42043 11.3564 9.49953 13.8757 12.0181C16.3891 14.532 20.4786 14.5316 22.9925 12.0181C25.5055 9.50475 25.5055 5.41563 22.9925 2.90223C20.4784 0.387928 16.3887 0.38751 13.8757 2.90223ZM29.5185 16.222L26.9789 13.6824C26.4648 13.1674 25.6898 13.067 25.0732 13.3797L24.0585 12.3655C26.6159 9.43676 26.5007 4.97167 23.7111 2.18264C20.8014 -0.727545 16.0657 -0.727545 13.1556 2.18264C12.46 2.87864 11.9184 3.68772 11.5483 4.56904L0.238473 11.0956C0.166021 11.1374 0.105848 11.1976 0.0639915 11.27C0.0221351 11.3425 6.68688e-05 11.4247 1.06152e-07 11.5084V24.5238C-5.5781e-05 24.6075 0.0219569 24.6898 0.0638219 24.7623C0.105687 24.8349 0.165926 24.8951 0.238473 24.937L11.5103 31.4445C11.5827 31.4867 11.665 31.509 11.7488 31.509C11.8326 31.509 11.9149 31.4867 11.9873 31.4445L23.2587 24.937C23.3312 24.895 23.3914 24.8348 23.4332 24.7623C23.4751 24.6897 23.4971 24.6075 23.4972 24.5238V13.2438L24.3536 14.0998C24.0404 14.7164 24.1408 15.4905 24.6558 16.0059L27.1954 18.5451C27.8351 19.1852 28.8774 19.1862 29.5185 18.5451C30.1605 17.9048 30.1605 16.8623 29.5185 16.222Z" fill="white"></path></svg>