<svg xmlns="http://www.w3.org/2000/svg" width="24" height="29" viewBox="0 0 24 29" fill="none"><path d="M5.44 20.64H4.48C4.3527 20.64 4.23061 20.6906 4.14059 20.7806C4.05057 20.8706 4 20.9927 4 21.12C4 21.2473 4.05057 21.3694 4.14059 21.4594C4.23061 21.5494 4.3527 21.6 4.48 21.6H5.44C5.5673 21.6 5.68939 21.5494 5.77941 21.4594C5.86943 21.3694 5.92 21.2473 5.92 21.12C5.92 20.9927 5.86943 20.8706 5.77941 20.7806C5.68939 20.6906 5.5673 20.64 5.44 20.64ZM18.88 20.64H7.36C7.2327 20.64 7.11061 20.6906 7.02059 20.7806C6.93057 20.8706 6.88 20.9927 6.88 21.12C6.88 21.2473 6.93057 21.3694 7.02059 21.4594C7.11061 21.5494 7.2327 21.6 7.36 21.6H18.88C19.0073 21.6 19.1294 21.5494 19.2194 21.4594C19.3094 21.3694 19.36 21.2473 19.36 21.12C19.36 20.9927 19.3094 20.8706 19.2194 20.7806C19.1294 20.6906 19.0073 20.64 18.88 20.64ZM5.44 17.76H4.48C4.3527 17.76 4.23061 17.8106 4.14059 17.9006C4.05057 17.9906 4 18.1127 4 18.24C4 18.3673 4.05057 18.4894 4.14059 18.5794C4.23061 18.6694 4.3527 18.72 4.48 18.72H5.44C5.5673 18.72 5.68939 18.6694 5.77941 18.5794C5.86943 18.4894 5.92 18.3673 5.92 18.24C5.92 18.1127 5.86943 17.9906 5.77941 17.9006C5.68939 17.8106 5.5673 17.76 5.44 17.76ZM18.88 17.76H7.36C7.2327 17.76 7.11061 17.8106 7.02059 17.9006C6.93057 17.9906 6.88 18.1127 6.88 18.24C6.88 18.3673 6.93057 18.4894 7.02059 18.5794C7.11061 18.6694 7.2327 18.72 7.36 18.72H18.88C19.0073 18.72 19.1294 18.6694 19.2194 18.5794C19.3094 18.4894 19.36 18.3673 19.36 18.24C19.36 18.1127 19.3094 17.9906 19.2194 17.9006C19.1294 17.8106 19.0073 17.76 18.88 17.76ZM5.44 14.88H4.48C4.3527 14.88 4.23061 14.9306 4.14059 15.0206C4.05057 15.1106 4 15.2327 4 15.36C4 15.4873 4.05057 15.6094 4.14059 15.6994C4.23061 15.7894 4.3527 15.84 4.48 15.84H5.44C5.5673 15.84 5.68939 15.7894 5.77941 15.6994C5.86943 15.6094 5.92 15.4873 5.92 15.36C5.92 15.2327 5.86943 15.1106 5.77941 15.0206C5.68939 14.9306 5.5673 14.88 5.44 14.88ZM18.88 14.88H7.36C7.2327 14.88 7.11061 14.9306 7.02059 15.0206C6.93057 15.1106 6.88 15.2327 6.88 15.36C6.88 15.4873 6.93057 15.6094 7.02059 15.6994C7.11061 15.7894 7.2327 15.84 7.36 15.84H18.88C19.0073 15.84 19.1294 15.7894 19.2194 15.6994C19.3094 15.6094 19.36 15.4873 19.36 15.36C19.36 15.2327 19.3094 15.1106 19.2194 15.0206C19.1294 14.9306 19.0073 14.88 18.88 14.88ZM5.44 12H4.48C4.3527 12 4.23061 12.0506 4.14059 12.1406C4.05057 12.2306 4 12.3527 4 12.48C4 12.6073 4.05057 12.7294 4.14059 12.8194C4.23061 12.9094 4.3527 12.96 4.48 12.96H5.44C5.5673 12.96 5.68939 12.9094 5.77941 12.8194C5.86943 12.7294 5.92 12.6073 5.92 12.48C5.92 12.3527 5.86943 12.2306 5.77941 12.1406C5.68939 12.0506 5.5673 12 5.44 12ZM18.88 12H7.36C7.2327 12 7.11061 12.0506 7.02059 12.1406C6.93057 12.2306 6.88 12.3527 6.88 12.48C6.88 12.6073 6.93057 12.7294 7.02059 12.8194C7.11061 12.9094 7.2327 12.96 7.36 12.96H18.88C19.0073 12.96 19.1294 12.9094 19.2194 12.8194C19.3094 12.7294 19.36 12.6073 19.36 12.48C19.36 12.3527 19.3094 12.2306 19.2194 12.1406C19.1294 12.0506 19.0073 12 18.88 12ZM5.44 9.12H4.48C4.3527 9.12 4.23061 9.17057 4.14059 9.26058C4.05057 9.3506 4 9.47269 4 9.6C4 9.7273 4.05057 9.84939 4.14059 9.93941C4.23061 10.0294 4.3527 10.08 4.48 10.08H5.44C5.5673 10.08 5.68939 10.0294 5.77941 9.93941C5.86943 9.84939 5.92 9.7273 5.92 9.6C5.92 9.47269 5.86943 9.3506 5.77941 9.26058C5.68939 9.17057 5.5673 9.12 5.44 9.12ZM18.88 9.12H7.36C7.2327 9.12 7.11061 9.17057 7.02059 9.26058C6.93057 9.3506 6.88 9.47269 6.88 9.6C6.88 9.7273 6.93057 9.84939 7.02059 9.93941C7.11061 10.0294 7.2327 10.08 7.36 10.08H18.88C19.0073 10.08 19.1294 10.0294 19.2194 9.93941C19.3094 9.84939 19.36 9.7273 19.36 9.6C19.36 9.47269 19.3094 9.3506 19.2194 9.26058C19.1294 9.17057 19.0073 9.12 18.88 9.12Z" fill="white"></path><path d="M23.9938 7.16976C23.9914 7.1277 23.9831 7.08618 23.9693 7.0464C23.964 7.03104 23.9602 7.01616 23.9534 7.00128C23.9301 6.94905 23.8976 6.90142 23.8574 6.86064L17.1374 0.14064C17.0967 0.100512 17.049 0.0680002 16.9968 0.04464C16.9819 0.03792 16.967 0.03408 16.9522 0.0288C16.912 0.0149963 16.8702 0.00660246 16.8278 0.00384C16.8197 0.00528 16.8106 0 16.8 0H3.36C3.2327 0 3.11061 0.0505713 3.02059 0.140589C2.93057 0.230606 2.88 0.352696 2.88 0.48V1.92H0.48C0.352696 1.92 0.230606 1.97057 0.140589 2.06059C0.0505714 2.15061 0 2.2727 0 2.4V28.32C0 28.4473 0.0505714 28.5694 0.140589 28.6594C0.230606 28.7494 0.352696 28.8 0.48 28.8H20.64C20.7673 28.8 20.8894 28.7494 20.9794 28.6594C21.0694 28.5694 21.12 28.4473 21.12 28.32V25.92H23.52C23.6473 25.92 23.7694 25.8694 23.8594 25.7794C23.9494 25.6894 24 25.5673 24 25.44V7.2C24 7.18944 23.9947 7.18032 23.9938 7.16976ZM17.28 1.63872L22.3613 6.72H17.28V1.63872ZM20.16 27.84H0.96V2.88H2.88V25.44C2.88 25.5673 2.93057 25.6894 3.02059 25.7794C3.11061 25.8694 3.2327 25.92 3.36 25.92H20.16V27.84ZM23.04 24.96H3.84V0.96H16.32V7.2C16.32 7.3273 16.3706 7.44939 16.4606 7.53941C16.5506 7.62943 16.6727 7.68 16.8 7.68H23.04V24.96Z" fill="white"></path><path d="M13.36 4.32001H10.48C10.3527 4.32001 10.2306 4.37058 10.1406 4.4606C10.0506 4.55061 10 4.6727 10 4.80001V7.68001C10 7.80731 10.0506 7.9294 10.1406 8.01942C10.2306 8.10944 10.3527 8.16001 10.48 8.16001H13.36C13.4873 8.16001 13.6094 8.10944 13.6994 8.01942C13.7894 7.9294 13.84 7.80731 13.84 7.68001V4.80001C13.84 4.6727 13.7894 4.55061 13.6994 4.4606C13.6094 4.37058 13.4873 4.32001 13.36 4.32001ZM12.88 7.20001H10.96V5.28001H12.88V7.20001Z" fill="white"></path></svg>