<svg xmlns="http://www.w3.org/2000/svg" width="50" height="50" viewBox="0 0 50 50" fill="none"><path d="M48.7913 28.6746L41.3418 21.1968C41.1612 21.0159 40.4032 20.8229 40.3323 21.7309V25.2231H35.2791L39.7917 20.6937C40.041 20.2249 40.0874 20.0373 39.7917 19.6251L29.2389 9.03264C29.1504 8.94413 29.0419 8.88689 28.9262 8.86772C28.8106 8.84855 28.6925 8.86825 28.5862 8.92449C28.4799 8.98072 28.3898 9.07113 28.3265 9.18496C28.2633 9.2988 28.2295 9.43128 28.2293 9.56667V14.8078H16.2245C16.0627 14.8078 15.9075 14.8822 15.7931 15.0148C15.6787 15.1473 15.6145 15.3271 15.6145 15.5145V17.2569H6.36174V18.6704H18.2648V17.2569H16.8347V16.2212H28.8394C29.0011 16.2212 29.1563 16.1468 29.2707 16.0142C29.3851 15.8817 29.4494 15.7019 29.4494 15.5145V11.114L38.4605 20.1594L29.4494 29.2047V24.8042C29.4494 24.6168 29.3851 24.4371 29.2707 24.3045C29.1563 24.172 29.0011 24.0975 28.8394 24.0975H16.8345V20.0841H15.6145V24.8042C15.6145 24.9917 15.6787 25.1714 15.7931 25.304C15.9075 25.4365 16.0627 25.511 16.2245 25.511H28.2291V30.7521C28.2291 30.8876 28.2627 31.0202 28.3259 31.1342C28.3891 31.2482 28.4792 31.3388 28.5856 31.3951C28.6668 31.438 28.968 31.5711 29.2386 31.2864L32.5751 27.937V32.4875C32.5751 32.675 32.6394 32.8547 32.7538 32.9873C32.8682 33.1198 33.0233 33.1943 33.1851 33.1943H40.332V36.6863C40.332 36.9631 40.6803 37.7844 41.3413 37.2206L48.7911 29.7429C48.8571 29.6765 48.9101 29.5944 48.9463 29.5023C48.9826 29.4101 49.0014 29.31 49.0014 29.2087C49.0014 29.1074 48.9826 29.0073 48.9463 28.9151C48.9101 28.823 48.8573 28.7409 48.7913 28.6746ZM41.5523 35.1389V32.4873C41.5523 32.2999 41.488 32.1201 41.3736 31.9876C41.2592 31.855 41.1041 31.7806 40.9423 31.7806H33.7951V26.7122L33.8708 26.6363H40.9421C41.1038 26.6363 41.259 26.5619 41.3734 26.4293C41.4878 26.2968 41.5521 26.1171 41.5521 25.9296V23.2782L47.4599 29.2083L41.5523 35.1389ZM30.4008 37.2722L22.9515 29.7945C22.8631 29.7059 22.7545 29.6486 22.6388 29.6293C22.5231 29.6101 22.405 29.6298 22.2986 29.6861C22.1923 29.7424 22.1021 29.8329 22.0389 29.9468C21.9757 30.0608 21.942 30.1934 21.942 30.3288V33.8208H13.8472C13.6854 33.8208 13.5302 33.8953 13.4158 34.0278C13.3014 34.1604 13.2372 34.3401 13.2372 34.5275V41.0852C13.2372 41.2727 13.3014 41.4524 13.4158 41.585C13.5302 41.7175 13.6854 41.7919 13.8472 41.7919H21.942V45.284C21.942 45.5607 22.2492 46.3543 22.9513 45.8182L30.4008 38.3405C30.4668 38.2742 30.5198 38.1921 30.5561 38.0999C30.5923 38.0078 30.6111 37.9077 30.6111 37.8064C30.6111 37.7051 30.5923 37.605 30.5561 37.5128C30.5198 37.4207 30.4668 37.3386 30.4008 37.2722ZM23.162 43.7366V41.0852C23.162 40.8978 23.0977 40.718 22.9833 40.5855C22.8689 40.4529 22.7138 40.3785 22.552 40.3785H14.4572V35.2345H22.552C22.7138 35.2345 22.8689 35.1601 22.9833 35.0275C23.0977 34.895 23.162 34.7152 23.162 34.5278V31.8767L29.0698 37.8065L23.162 43.7366ZM5.18164 11.8775H7.10751V13.291H5.18164V11.8775Z" fill="#121315"></path><path d="M11.9801 11.8776H23.8832V13.291H11.9801V11.8776ZM8.57137 11.8776H10.497V13.291H8.57137V11.8776ZM2.95191 17.2572H4.87757V18.6706H2.95191V17.2572ZM7.92609 26.5726H9.85174V27.9861H7.92609V26.5726ZM14.7259 26.5726H26.6289V27.9861H14.7259V26.5726ZM11.3173 26.5726H13.243V27.9861H11.3173V26.5726ZM0.755859 31.2455H2.68151V32.659H0.755859V31.2455ZM7.55564 31.2455H19.4587V32.659H7.55564V31.2455ZM4.1471 31.2455H6.07275V32.659H4.1471V31.2455ZM1.69661 43.8705H3.62227V45.284H1.69661V43.8705ZM8.4964 43.8705H20.3995V45.284H8.4964V43.8705ZM5.08763 43.8705H7.01351V45.284H5.08763V43.8705Z" fill="#121315"></path></svg>