<svg xmlns="http://www.w3.org/2000/svg" width="50" height="50" viewBox="0 0 50 50" fill="none"><path d="M34.1649 37.2745C36.4692 37.2745 38.3434 35.4003 38.3434 33.0966C38.3434 30.7929 36.4692 28.9181 34.1649 28.9181C31.8612 28.9181 29.9877 30.7923 29.9877 33.0966C29.9888 34.2042 30.4292 35.2661 31.2124 36.0493C31.9955 36.8326 33.0573 37.2732 34.1649 37.2745ZM34.1649 30.4484C34.8672 30.4492 35.5404 30.7286 36.037 31.2251C36.5336 31.7217 36.8129 32.395 36.8137 33.0972C36.8127 33.7994 36.5333 34.4725 36.0368 34.9689C35.5402 35.4654 34.8671 35.7446 34.1649 35.7454C33.4629 35.7446 32.7898 35.4653 32.2935 34.9688C31.7971 34.4724 31.518 33.7993 31.5173 33.0972C31.5178 32.3951 31.7969 31.7218 32.2933 31.2252C32.7896 30.7286 33.4628 30.4492 34.1649 30.4484ZM12.1143 28.9188C11.0065 28.92 9.94453 29.3607 9.16129 30.1441C8.37805 30.9274 7.93754 31.9895 7.9364 33.0972C7.9364 35.4009 9.81057 37.2751 12.1143 37.2751C14.418 37.2751 16.2921 35.4009 16.2921 33.0972C16.2908 31.9895 15.8503 30.9276 15.0671 30.1442C14.2839 29.3609 13.222 28.9202 12.1143 28.9188ZM12.1143 35.7448C10.6537 35.7448 9.46608 34.5571 9.46608 33.0966C9.46608 31.6361 10.6537 30.4478 12.1143 30.4478C13.5748 30.4478 14.7624 31.6361 14.7624 33.0966C14.7615 33.7987 14.4822 34.4717 13.9857 34.9681C13.4893 35.4645 12.8163 35.7438 12.1143 35.7448ZM18.2923 31.8778C18.2923 32.3 18.635 32.6426 19.0572 32.6426H27.7678C27.9706 32.6426 28.1652 32.562 28.3086 32.4186C28.452 32.2752 28.5326 32.0806 28.5326 31.8778C28.5326 31.6749 28.452 31.4804 28.3086 31.3369C28.1652 31.1935 27.9706 31.1129 27.7678 31.1129H19.0572C18.635 31.1129 18.2923 31.4556 18.2923 31.8778ZM27.7684 33.424H19.0572C18.8543 33.424 18.6598 33.5045 18.5164 33.648C18.3729 33.7914 18.2923 33.986 18.2923 34.1888C18.2923 34.3917 18.3729 34.5862 18.5164 34.7296C18.6598 34.8731 18.8543 34.9536 19.0572 34.9536H27.7678C27.9706 34.9537 28.1652 34.8732 28.3087 34.7298C28.4522 34.5865 28.5329 34.392 28.5329 34.1891C28.533 33.9863 28.4525 33.7917 28.3091 33.6482C28.1658 33.5047 27.9712 33.424 27.7684 33.424ZM3.63984 20.4976C3.21765 20.4976 2.875 20.8402 2.875 21.2624V26.2014C2.875 26.4043 2.95558 26.5988 3.09902 26.7423C3.24245 26.8857 3.43699 26.9663 3.63984 26.9663C3.84269 26.9663 4.03723 26.8857 4.18066 26.7423C4.3241 26.5988 4.40468 26.4043 4.40468 26.2014V21.2624C4.40468 20.8396 4.06203 20.4976 3.63984 20.4976ZM43.0224 20.4976C42.6002 20.4976 42.2575 20.8402 42.2575 21.2624V26.2014C42.2575 26.4043 42.3381 26.5988 42.4815 26.7423C42.625 26.8857 42.8195 26.9663 43.0224 26.9663C43.2252 26.9663 43.4198 26.8857 43.5632 26.7423C43.7066 26.5988 43.7872 26.4043 43.7872 26.2014V21.2624C43.7872 21.0596 43.7066 20.865 43.5632 20.7216C43.4198 20.5781 43.2252 20.4976 43.0224 20.4976Z" fill="#121315"></path><path d="M47.9999 7.29465C48.0099 7.13688 47.9708 6.97989 47.8879 6.84524C47.8051 6.7106 47.6826 6.6049 47.5373 6.54266C47.5128 6.53165 44.9895 5.43762 39.3762 1.88631C39.2475 1.80492 39.0975 1.76378 38.9453 1.76814C38.7932 1.7725 38.6458 1.82217 38.522 1.91079C38.4951 1.93037 35.7496 3.87857 30.069 6.55673C29.9275 6.62347 29.8098 6.73198 29.7319 6.86765C29.654 7.00332 29.6196 7.15961 29.6333 7.31545L29.6553 7.5394H12.3198C8.07523 7.5394 4.62305 10.9922 4.62305 15.2361V42.8212C4.62305 43.2434 4.9657 43.586 5.38789 43.586H7.44011V45.5648C7.44075 46.2269 7.70402 46.8617 8.17215 47.33C8.64028 47.7982 9.27504 48.0616 9.93716 48.0625H13.1152C13.7773 48.0616 14.4121 47.7982 14.8802 47.33C15.3484 46.8617 15.6116 46.2269 15.6123 45.5648V43.586H31.8458V45.5648C31.8465 46.2269 32.1098 46.8617 32.5779 47.33C33.046 47.7982 33.6808 48.0616 34.3429 48.0625H37.5203C38.1826 48.0618 38.8175 47.7985 39.2857 47.3302C39.754 46.8619 40.0174 46.227 40.018 45.5648V43.586H41.2038C41.626 43.586 41.9687 43.2434 41.9687 42.8212V20.0699C47.2834 17.3716 47.9699 7.76763 47.9999 7.29465ZM38.9833 3.44659C43.0792 6.01951 45.4563 7.24509 46.4261 7.71317C46.1802 10.0181 44.8261 19.2463 38.968 19.2463C33.1094 19.2463 31.5246 10.0224 31.2193 7.70399C35.4993 5.65728 38.0325 4.07498 38.9833 3.44659ZM12.3198 9.06847H29.8732C30.1136 10.4721 30.5732 12.5188 31.4053 14.5141H6.19862C6.55717 11.4529 9.16314 9.06847 12.3198 9.06847ZM40.439 38.1985H6.15273V26.9712H40.439V38.1985ZM6.15273 25.4415V16.0438H22.5313V25.4415H6.15273ZM14.082 45.5642C14.082 46.0984 13.6482 46.5322 13.1146 46.5322H9.93654C9.67997 46.5318 9.43402 46.4297 9.25265 46.2483C9.07129 46.0668 8.96934 45.8208 8.96917 45.5642V43.5854H14.082V45.5642ZM38.4883 45.5642C38.4883 46.0984 38.0539 46.5322 37.5203 46.5322H34.3429C34.0863 46.5318 33.8404 46.4297 33.659 46.2483C33.4776 46.0668 33.3757 45.8208 33.3755 45.5642V43.5854H38.4883V45.5642ZM39.2532 42.0551H6.15212V39.7281H40.4384V42.0551H39.2532ZM40.439 25.4415H24.0604V16.0438H32.1298C33.5267 18.6259 35.6774 20.7754 38.9674 20.7754C39.4875 20.7754 39.9764 20.7203 40.4384 20.62L40.439 25.4415Z" fill="#121315"></path><path d="M37.9419 14.6071C38.0292 14.6694 38.1287 14.7126 38.2339 14.734C38.339 14.7553 38.4475 14.7543 38.5522 14.731C38.657 14.7077 38.7556 14.6626 38.8418 14.5987C38.928 14.5347 38.9997 14.4534 39.0524 14.3599L42.1093 8.93318C42.2088 8.75646 42.234 8.54746 42.1794 8.35216C42.1248 8.15685 41.9948 7.99125 41.8181 7.89177C41.6414 7.7923 41.4324 7.76709 41.2371 7.82172C41.0418 7.87634 40.8762 8.0063 40.7767 8.18302L38.1377 12.8675L36.69 11.8341C36.6082 11.7757 36.5158 11.734 36.4179 11.7113C36.32 11.6887 36.2186 11.6856 36.1196 11.7021C36.0205 11.7186 35.9256 11.7545 35.8404 11.8077C35.7552 11.8609 35.6813 11.9304 35.6229 12.0121C35.5645 12.0939 35.5228 12.1863 35.5002 12.2842C35.4775 12.3821 35.4744 12.4835 35.4909 12.5825C35.5074 12.6816 35.5433 12.7765 35.5965 12.8617C35.6497 12.9469 35.7192 13.0208 35.8009 13.0792L37.9419 14.6071Z" fill="#121315"></path></svg>