<svg xmlns="http://www.w3.org/2000/svg" width="50" height="50" viewBox="0 0 50 50" fill="none"><path d="M43.2612 40.3483H41.4351V38.4492C41.4351 38.2264 41.3466 38.0127 41.1891 37.8552C41.0315 37.6977 40.8179 37.6092 40.5951 37.6092H30.4786C30.2558 37.6092 30.0421 37.6977 29.8846 37.8552C29.7271 38.0127 29.6386 38.2264 29.6386 38.4492V40.3483H27.8125V38.4492C27.8125 37.7421 28.0934 37.064 28.5934 36.564C29.0934 36.064 29.7715 35.7831 30.4786 35.7831H40.5951C41.3022 35.7831 41.9803 36.064 42.4803 36.564C42.9803 37.064 43.2612 37.7421 43.2612 38.4492V40.3483ZM33.2177 33.044H31.3916V30.3048C31.41 29.4658 31.5982 28.6391 31.9451 27.8749C32.2919 27.1106 32.79 26.4246 33.4095 25.8583L37.6734 21.5944C38.1926 21.1106 38.8794 20.8472 39.589 20.8597C40.2986 20.8722 40.9757 21.1597 41.4776 21.6615C41.9794 22.1634 42.2669 22.8404 42.2794 23.5501C42.2919 24.2597 42.0285 24.9465 41.5447 25.4657L37.509 29.5014L36.2216 28.214L40.2573 24.1783C40.4069 24.0037 40.485 23.779 40.4761 23.5492C40.4673 23.3194 40.372 23.1014 40.2094 22.9388C40.0468 22.7762 39.8288 22.6809 39.599 22.6721C39.3692 22.6632 39.1446 22.7413 38.9699 22.8909L34.706 27.1548C34.259 27.553 33.8969 28.0371 33.6412 28.5784C33.3855 29.1196 33.2415 29.7067 33.2177 30.3048V33.044Z" fill="#121315"></path><path d="M39.6078 36.6961H37.7818V35.7831C37.7818 33.6374 39.6626 31.7018 39.8726 31.4826L42.6118 28.7435C43.4436 27.9376 43.9915 26.8835 44.1731 25.7396H45.9991C45.9991 27.8853 44.1183 29.8209 43.9083 30.04L41.1691 32.7792C40.3373 33.5851 39.7894 34.6392 39.6078 35.7831V36.6961ZM45.9991 25.7396H44.1731V14.7831C44.1731 14.5409 44.0769 14.3087 43.9056 14.1375C43.7344 13.9662 43.5022 13.87 43.26 13.87C43.0179 13.87 42.7856 13.9662 42.6144 14.1375C42.4432 14.3087 42.347 14.5409 42.347 14.7831V23.9135H40.5209V14.7831C40.5209 14.0566 40.8095 13.3599 41.3232 12.8462C41.8368 12.3325 42.5336 12.0439 43.26 12.0439C43.9865 12.0439 44.6832 12.3325 45.1969 12.8462C45.7106 13.3599 45.9991 14.0566 45.9991 14.7831V25.7396ZM43.26 47.6526H27.8478C27.6057 47.6526 27.3735 47.5564 27.2022 47.3852C27.031 47.214 26.9348 46.9818 26.9348 46.7396V40.3483C26.9348 40.1061 27.031 39.8739 27.2022 39.7027C27.3735 39.5314 27.6057 39.4352 27.8478 39.4352H43.26C43.5022 39.4352 43.7344 39.5314 43.9056 39.7027C44.0769 39.8739 44.1731 40.1061 44.1731 40.3483V46.7396C44.1731 46.9818 44.0769 47.214 43.9056 47.3852C43.7344 47.5564 43.5022 47.6526 43.26 47.6526ZM28.7426 45.8266H42.347V41.2613H28.7609L28.7426 45.8266ZM22.1687 40.3483H20.3426V38.4492C20.3427 38.2295 20.2567 38.0186 20.1031 37.8616C19.9495 37.7045 19.7405 37.6139 19.5209 37.6092H9.40437C9.18159 37.6092 8.96793 37.6977 8.8104 37.8552C8.65287 38.0127 8.56437 38.2264 8.56437 38.4492V40.3483H6.73828V38.4492C6.73828 37.7421 7.01917 37.0639 7.51916 36.564C8.01915 36.064 8.69728 35.7831 9.40437 35.7831H19.5209C20.228 35.7831 20.9061 36.064 21.4061 36.564C21.9061 37.0639 22.187 37.7421 22.187 38.4492L22.1687 40.3483Z" fill="#121315"></path><path d="M18.6087 36.6961H16.7826V30.3048C16.7601 29.7051 16.6166 29.1162 16.3609 28.5733C16.1051 28.0305 15.7424 27.5449 15.2943 27.1456L11.0304 22.8817C10.9486 22.7862 10.8479 22.7085 10.7346 22.6537C10.6213 22.5989 10.4979 22.5681 10.3722 22.5633C10.2464 22.5584 10.121 22.5796 10.0039 22.6255C9.88671 22.6714 9.7803 22.741 9.69132 22.83C9.60234 22.919 9.53271 23.0254 9.48681 23.1426C9.44091 23.2597 9.41972 23.3851 9.42458 23.5109C9.42943 23.6366 9.46023 23.76 9.51503 23.8733C9.56984 23.9865 9.64746 24.0873 9.74304 24.1691L13.7787 28.2048L12.4913 29.5013L8.45565 25.4656C8.18654 25.2149 7.97068 24.9125 7.82097 24.5765C7.67126 24.2405 7.59076 23.8778 7.58427 23.51C7.57779 23.1422 7.64544 22.7769 7.7832 22.4358C7.92097 22.0947 8.12602 21.7849 8.38612 21.5248C8.64622 21.2647 8.95605 21.0597 9.29712 20.9219C9.63819 20.7841 10.0035 20.7165 10.3713 20.723C10.7391 20.7294 11.1018 20.8099 11.4378 20.9597C11.7738 21.1094 12.0762 21.3252 12.327 21.5943L16.5909 25.8583C17.2103 26.4246 17.7084 27.1106 18.0553 27.8748C18.4021 28.6391 18.5904 29.4657 18.6087 30.3048V36.6961ZM12.2174 36.6961H10.3913V35.783C10.2091 34.6393 9.66131 33.5854 8.83 32.7791L6.09087 30.04C5.88087 29.8209 4 27.8852 4 25.7396H5.82609C6.0083 26.8832 6.55608 27.9372 7.38739 28.7435L10.1265 31.4826C10.3365 31.7017 12.2174 33.6374 12.2174 35.783V36.6961Z" fill="#121315"></path><path d="M5.82609 25.7396H4V14.7831C4 14.0566 4.28859 13.3599 4.80227 12.8462C5.31596 12.3325 6.01267 12.0439 6.73913 12.0439C7.46559 12.0439 8.1623 12.3325 8.67599 12.8462C9.18968 13.3599 9.47826 14.0566 9.47826 14.7831V23.9135H7.65217V14.7831C7.65217 14.5409 7.55598 14.3087 7.38475 14.1374C7.21352 13.9662 6.98128 13.87 6.73913 13.87C6.49698 13.87 6.26474 13.9662 6.09351 14.1374C5.92228 14.3087 5.82609 14.5409 5.82609 14.7831V25.7396ZM22.1513 47.6526H6.73913C6.49698 47.6526 6.26474 47.5564 6.09351 47.3852C5.92228 47.214 5.82609 46.9817 5.82609 46.7396V40.3483C5.82609 40.1061 5.92228 39.8739 6.09351 39.7027C6.26474 39.5314 6.49698 39.4352 6.73913 39.4352H22.1696C22.4117 39.4352 22.644 39.5314 22.8152 39.7027C22.9864 39.8739 23.0826 40.1061 23.0826 40.3483V46.7396C23.0826 46.861 23.0584 46.9813 23.0114 47.0933C22.9644 47.2052 22.8955 47.3067 22.8088 47.3918C22.722 47.4768 22.6192 47.5437 22.5063 47.5884C22.3934 47.6332 22.2727 47.6551 22.1513 47.6526ZM7.65217 45.8265H21.2565V41.2613H7.65217V45.8265ZM25 22.0874C24.5879 22.0916 24.1791 22.0129 23.798 21.8561C23.4169 21.6992 23.0711 21.4674 22.7813 21.1744L15.5774 13.7513L15.5317 13.6965C14.6243 12.9429 13.9337 11.9613 13.531 10.8525C13.1282 9.74377 13.0278 8.54781 13.24 7.38742C13.4571 6.1319 14.0398 4.96836 14.9153 4.04258C15.7907 3.1168 16.9199 2.46995 18.1613 2.18307C19.0849 1.98159 20.0419 1.99022 20.9617 2.20831C21.8814 2.4264 22.7404 2.84838 23.4752 3.44307C24.0825 3.92611 24.5989 4.51356 25 5.17785C25.3976 4.5005 25.9141 3.90045 26.5248 3.40655C27.2606 2.81052 28.1212 2.38777 29.0426 2.16965C29.9641 1.95153 30.9229 1.94364 31.8478 2.14655C33.0893 2.43343 34.2184 3.08028 35.0939 4.00606C35.9693 4.93184 36.552 6.09538 36.7691 7.35089C36.9813 8.51128 36.8809 9.70725 36.4782 10.816C36.0754 11.9248 35.3849 12.9064 34.4774 13.66L34.4317 13.7148L27.2187 21.1744C26.9289 21.4674 26.5831 21.6992 26.202 21.8561C25.8209 22.0129 25.4121 22.0916 25 22.0874ZM17.0291 12.5826L24.0961 19.887C24.2157 20.0073 24.358 20.1029 24.5147 20.168C24.6714 20.2332 24.8394 20.2668 25.0091 20.2668C25.1788 20.2668 25.3469 20.2332 25.5036 20.168C25.6603 20.1029 25.8025 20.0073 25.9222 19.887L32.9983 12.5826C33.0538 12.4944 33.125 12.4171 33.2083 12.3544C33.9026 11.8115 34.4349 11.0887 34.7472 10.2645C35.0595 9.44032 35.1399 8.54627 34.9796 7.67959C34.8292 6.77951 34.4162 5.94394 33.7924 5.27789C33.1686 4.61184 32.3618 4.14503 31.4735 3.93611C30.8141 3.78919 30.1298 3.79508 29.4731 3.95334C28.8163 4.1116 28.2044 4.41802 27.6843 4.84916C27.1306 5.29724 26.6842 5.86353 26.3777 6.50652C26.0712 7.14952 25.9124 7.85294 25.913 8.56524C25.913 8.8074 25.8168 9.03963 25.6456 9.21086C25.4744 9.38209 25.2422 9.47829 25 9.47829C24.7578 9.47829 24.5256 9.38209 24.3544 9.21086C24.1832 9.03963 24.087 8.8074 24.087 8.56524C24.0914 7.85059 23.9354 7.14407 23.6304 6.49775C23.3254 5.85143 22.8792 5.28182 22.3248 4.8309C21.8043 4.40036 21.1925 4.09431 20.5358 3.93609C19.8792 3.77786 19.1951 3.77162 18.5357 3.91785C17.6473 4.12677 16.8406 4.59358 16.2168 5.25963C15.593 5.92568 15.1799 6.76124 15.0296 7.66133C14.8654 8.52772 14.9421 9.42254 15.2512 10.2484C15.5603 11.0742 16.09 11.7995 16.7826 12.3452C16.879 12.4081 16.9627 12.4887 17.0291 12.5826Z" fill="#121315"></path></svg>