<svg xmlns="http://www.w3.org/2000/svg" width="50" height="48" viewBox="0 0 50 48" fill="none"><path d="M38.3119 7.17558C38.3335 7.1771 38.3554 7.17862 38.3775 7.17862C38.4151 7.17862 38.4526 7.17558 38.4894 7.17042C39.4739 7.19067 40.2618 7.99356 40.263 8.97801C40.263 9.19285 40.3484 9.3989 40.5003 9.55082C40.6522 9.70274 40.8583 9.78808 41.0731 9.78808C41.288 9.78808 41.494 9.70274 41.6459 9.55082C41.7979 9.3989 41.8832 9.19285 41.8832 8.97801C41.8812 7.36777 40.7602 5.97464 39.1876 5.62813V4.84975C39.1876 4.6349 39.1022 4.42886 38.9503 4.27694C38.7984 4.12502 38.5923 4.03967 38.3775 4.03967C38.1626 4.03967 37.9566 4.12502 37.8047 4.27694C37.6528 4.42886 37.5674 4.6349 37.5674 4.84975V5.66489C35.9045 6.10952 34.8286 7.71823 35.0529 9.42496C35.2772 11.1318 36.732 12.4079 38.4534 12.4079C39.453 12.4079 40.263 13.2183 40.263 14.2179C40.263 15.217 39.453 16.0274 38.4534 16.0274C37.4539 16.0274 36.6438 15.217 36.6438 14.2179C36.6438 14.003 36.5585 13.797 36.4066 13.6451C36.2546 13.4932 36.0486 13.4078 35.8337 13.4078C35.6189 13.4078 35.4129 13.4932 35.2609 13.6451C35.109 13.797 35.0237 14.003 35.0237 14.2179C35.0257 15.77 36.0683 17.1279 37.5674 17.5309V18.4185C37.5674 18.6334 37.6528 18.8394 37.8047 18.9914C37.9566 19.1433 38.1626 19.2286 38.3775 19.2286C38.5923 19.2286 38.7984 19.1433 38.9503 18.9914C39.1022 18.8394 39.1876 18.6334 39.1876 18.4185V17.5681C40.8983 17.1935 42.0522 15.59 41.8635 13.8488C41.6751 12.1076 40.2048 10.788 38.4534 10.7884C37.4815 10.7888 36.683 10.0215 36.6446 9.05041C36.6067 8.07933 37.3427 7.25153 38.3119 7.17599V7.17558Z" fill="#121315"></path><path d="M38.4997 0.0789795C33.5162 0.0789795 29.2633 3.33083 27.67 7.685H7.5642C7.11886 7.685 6.75726 8.08649 6.75412 8.53153L6.56274 36.949H0.831443C0.384078 36.949 0 37.2731 0 37.7211V41.3273C0.0103285 44.7223 2.68419 47.5112 6.07558 47.6647V47.6826H31.0867V47.6589C31.2892 47.6664 31.3727 47.6826 31.5009 47.6826H31.5183C35.0284 47.677 37.8711 44.8299 37.8711 41.3198V23.0867C38.0736 23.0978 38.288 23.1037 38.4977 23.1037C44.8394 23.1037 50.0001 17.9332 50.0001 11.591C50.0002 5.2493 44.8419 0.0790808 38.4997 0.0790808V0.0789795ZM6.38381 46.0625H6.37875C3.75815 46.059 1.6321 43.94 1.62026 41.3191V38.5693H25.1125V41.3077C25.1132 42.1448 25.2792 42.9735 25.6011 43.7462C25.9229 44.519 26.3943 45.2205 26.9881 45.8106C27.0732 45.8956 27.1788 45.9612 27.2678 46.0625H6.38381ZM36.2511 41.319C36.2515 43.9351 34.1333 46.0572 31.5176 46.0624H31.5022C28.8757 46.0576 26.7457 43.9343 26.7327 41.3083V37.7212C26.736 37.6188 26.7184 37.5168 26.6807 37.4215C26.643 37.3262 26.5861 37.2397 26.5136 37.1673C26.4411 37.0949 26.3545 37.0382 26.2591 37.0006C26.1638 36.9631 26.0617 36.9456 25.9593 36.9491H8.18289L8.36881 9.30525H27.2204C27.0768 10.0467 27.0026 10.7999 26.9986 11.5551C26.9969 13.1517 27.33 14.7309 27.9763 16.1908H20.3249C19.8772 16.1908 19.5149 16.5536 19.5149 17.0009C19.5149 17.4484 19.8772 17.811 20.3249 17.811H28.8553C29.6824 19.1115 30.7639 20.2313 32.0349 21.1032C33.3058 21.975 34.74 22.5809 36.2511 22.8843V41.319ZM38.4997 21.484C33.0429 21.484 28.6186 17.0602 28.619 11.6028C28.619 6.14555 33.0428 1.72172 38.5001 1.72172C43.957 1.72172 48.3809 6.14595 48.3809 11.6028C48.3749 17.0574 43.9548 21.4781 38.4997 21.484Z" fill="#121315"></path><path d="M15.124 21.5821C13.6942 21.5821 12.5312 22.7082 12.5312 24.0926C12.5312 25.477 13.6941 26.6031 15.124 26.6031C16.5539 26.6031 17.7173 25.477 17.7173 24.0926C17.7173 22.7082 16.5539 21.5821 15.124 21.5821ZM15.124 24.983C14.5873 24.983 14.1514 24.5835 14.1514 24.0926C14.1514 23.6014 14.5876 23.2022 15.124 23.2022C15.6604 23.2022 16.0971 23.6017 16.0971 24.0926C16.0971 24.5835 15.6604 24.983 15.124 24.983ZM19.5138 24.089C19.5138 24.5364 19.8761 24.8991 20.3239 24.8991H31.1238C31.3387 24.8991 31.5447 24.8138 31.6967 24.6619C31.8486 24.5099 31.9339 24.3039 31.9339 24.089C31.9339 23.8742 31.8486 23.6682 31.6967 23.5162C31.5447 23.3643 31.3387 23.279 31.1238 23.279H20.3239C19.8761 23.279 19.5138 23.6417 19.5138 24.089ZM15.124 14.5402C13.6942 14.5402 12.5312 15.6667 12.5312 17.0511C12.5312 18.4355 13.6941 19.5616 15.124 19.5616C16.5539 19.5616 17.7173 18.4355 17.7173 17.0511C17.7173 15.6667 16.5539 14.5402 15.124 14.5402ZM15.124 17.9415C14.5873 17.9415 14.1514 17.542 14.1514 17.0511C14.1514 16.5602 14.5876 16.1603 15.124 16.1603C15.6604 16.1603 16.0971 16.5598 16.0971 17.0511C16.0971 17.542 15.6604 17.9419 15.124 17.9419V17.9415ZM15.124 28.6232C13.6942 28.6232 12.5312 29.7493 12.5312 31.1337C12.5312 32.5181 13.6941 33.6442 15.124 33.6442C16.5539 33.6442 17.7173 32.5182 17.7173 31.1337C17.7173 29.7492 16.5539 28.6232 15.124 28.6232ZM15.124 32.0241C14.5873 32.0241 14.1514 31.625 14.1514 31.1337C14.1514 30.6429 14.5876 30.2433 15.124 30.2433C15.6604 30.2433 16.0971 30.6429 16.0971 31.1337C16.0971 31.6246 15.6604 32.0241 15.124 32.0241ZM31.1238 30.3671H20.3239C19.8761 30.3671 19.5138 30.7299 19.5138 31.1772C19.5138 31.6246 19.8761 31.9873 20.3239 31.9873H31.1238C31.3387 31.9873 31.5447 31.902 31.6967 31.75C31.8486 31.5981 31.9339 31.3921 31.9339 31.1772C31.9339 30.9624 31.8486 30.7563 31.6967 30.6044C31.5447 30.4525 31.3387 30.3671 31.1238 30.3671Z" fill="#121315"></path></svg>