<svg xmlns="http://www.w3.org/2000/svg" width="12" height="12" viewBox="0 0 12 12" fill="none"><path d="M6.00224 11.8332C5.83672 11.8341 5.67466 11.7858 5.53673 11.6943C5.3988 11.6028 5.29124 11.4723 5.22777 11.3194C5.16429 11.1665 5.14778 10.9982 5.18034 10.8359C5.2129 10.6737 5.29305 10.5247 5.41058 10.4082L9.82724 5.99984L5.41058 1.59151C5.27405 1.43209 5.20272 1.22703 5.21082 1.0173C5.21892 0.807565 5.30586 0.608615 5.45427 0.460203C5.60269 0.311791 5.80163 0.224848 6.01136 0.216747C6.22109 0.208646 6.42616 0.279984 6.58558 0.416506L11.5856 5.41651C11.7408 5.57264 11.8279 5.78385 11.8279 6.00401C11.8279 6.22416 11.7408 6.43537 11.5856 6.59151L6.58558 11.5915C6.43036 11.7455 6.22086 11.8323 6.00224 11.8332Z" fill="#121315"></path><path d="M1.00224 11.8332C0.836722 11.8341 0.674664 11.7858 0.536731 11.6943C0.398798 11.6028 0.291239 11.4723 0.227767 11.3194C0.164294 11.1665 0.147785 10.9982 0.180343 10.8359C0.212901 10.6736 0.293051 10.5247 0.410576 10.4082L4.82724 5.99983L0.410576 1.5915C0.253656 1.43458 0.165499 1.22175 0.165499 0.999829C0.165499 0.777911 0.253656 0.565082 0.410576 0.408162C0.567495 0.251243 0.780324 0.163086 1.00224 0.163086C1.22416 0.163086 1.43699 0.251243 1.59391 0.408162L6.59391 5.40816C6.74912 5.5643 6.83624 5.77551 6.83624 5.99566C6.83624 6.21582 6.74912 6.42703 6.59391 6.58316L1.59391 11.5832C1.51673 11.6619 1.42469 11.7245 1.32313 11.7675C1.22157 11.8104 1.1125 11.8327 1.00224 11.8332Z" fill="#121315"></path></svg>