<svg xmlns="http://www.w3.org/2000/svg" width="12" height="12" viewBox="0 0 12 12" fill="none"><path d="M0.164202 5.99998C0.163239 5.83446 0.211591 5.67241 0.303092 5.53447C0.394592 5.39654 0.525097 5.28898 0.677967 5.22551C0.830836 5.16204 0.999146 5.14553 1.16144 5.17808C1.32372 5.21064 1.47264 5.29079 1.5892 5.40832L5.99754 9.82498L10.4059 5.40832C10.5653 5.2718 10.7704 5.20046 10.9801 5.20856C11.1898 5.21666 11.3888 5.3036 11.5372 5.45201C11.6856 5.60043 11.7725 5.79938 11.7806 6.00911C11.7887 6.21884 11.7174 6.4239 11.5809 6.58332L6.58087 11.5833C6.42473 11.7385 6.21352 11.8256 5.99337 11.8256C5.77321 11.8256 5.562 11.7385 5.40587 11.5833L0.405869 6.58332C0.251916 6.4281 0.165122 6.2186 0.164202 5.99998Z" fill="#F55B1F"></path><path d="M0.16586 0.999984C0.164898 0.834464 0.213249 0.672406 0.30475 0.534473C0.396251 0.39654 0.526755 0.288981 0.679626 0.225508C0.832495 0.162036 1.0008 0.145526 1.16309 0.178084C1.32538 0.210642 1.4743 0.290793 1.59086 0.408317L5.99919 4.82498L10.4075 0.408317C10.5644 0.251398 10.7773 0.163241 10.9992 0.163241C11.2211 0.163241 11.4339 0.251398 11.5909 0.408317C11.7478 0.565237 11.8359 0.778066 11.8359 0.999984C11.8359 1.2219 11.7478 1.43473 11.5909 1.59165L6.59086 6.59165C6.43473 6.74686 6.22352 6.83398 6.00336 6.83398C5.78321 6.83398 5.572 6.74686 5.41586 6.59165L0.415859 1.59165C0.337119 1.51447 0.274479 1.42243 0.231565 1.32087C0.188651 1.21931 0.166318 1.11024 0.16586 0.999984Z" fill="#F55B1F"></path></svg>