<svg xmlns="http://www.w3.org/2000/svg" width="45" height="36" viewBox="0 0 45 36" fill="none"><path d="M44.0187 3.58337L35.2187 0.0633688C35.0085 -0.0208381 34.774 -0.0208381 34.5639 0.0633688L25.7639 3.58337C25.6008 3.64874 25.461 3.76147 25.3625 3.90701C25.264 4.05256 25.2113 4.22427 25.2113 4.40001V13.4957C25.2158 15.167 25.6508 16.8089 26.4741 18.2633C27.2975 19.7177 28.4816 20.9355 29.9122 21.7994L34.439 24.5151C34.5756 24.5969 34.732 24.6402 34.8913 24.6402C35.0506 24.6402 35.2069 24.5969 35.3436 24.5151L39.2913 22.1461V32.0021C39.2908 32.3847 39.1386 32.7515 38.8681 33.0221C38.5975 33.2926 38.2307 33.4448 37.8481 33.4453H3.77449C3.39187 33.4448 3.02506 33.2926 2.75451 33.0221C2.48396 32.7515 2.33175 32.3847 2.33129 32.0021V12.32H22.5713C22.8047 12.32 23.0285 12.2273 23.1935 12.0623C23.3586 11.8972 23.4513 11.6734 23.4513 11.44C23.4513 11.2066 23.3586 10.9828 23.1935 10.8178C23.0285 10.6527 22.8047 10.56 22.5713 10.56H2.33129V8.48321C2.33175 8.10059 2.48396 7.73378 2.75451 7.46323C3.02506 7.19268 3.39187 7.04047 3.77449 7.04001H22.5713C22.8047 7.04001 23.0285 6.94729 23.1935 6.78226C23.3586 6.61723 23.4513 6.3934 23.4513 6.16001C23.4513 5.92662 23.3586 5.70279 23.1935 5.53776C23.0285 5.37272 22.8047 5.28001 22.5713 5.28001H3.77449C2.92509 5.28048 2.11062 5.6181 1.51 6.21872C0.909384 6.81933 0.571755 7.63381 0.571289 8.48321V31.9968C0.571755 32.8462 0.909384 33.6607 1.51 34.2613C2.11062 34.8619 2.92509 35.1995 3.77449 35.2H37.8481C38.6975 35.1995 39.512 34.8619 40.1126 34.2613C40.7132 33.6607 41.0508 32.8462 41.0513 31.9968V20.944C42.1475 20.0351 43.0309 18.8967 43.6391 17.6091C44.2473 16.3215 44.5655 14.9162 44.5713 13.4922V4.40001C44.5712 4.22427 44.5186 4.05256 44.4201 3.90701C44.3216 3.76147 44.1818 3.64874 44.0187 3.58337ZM42.8113 13.4957C42.8077 14.8632 42.4518 16.2067 41.7779 17.3967C41.104 18.5866 40.1348 19.5829 38.9639 20.2893L34.8913 22.7339L30.8187 20.2893C29.6477 19.5829 28.6786 18.5866 28.0047 17.3967C27.3308 16.2067 26.9749 14.8632 26.9713 13.4957V4.99489L34.8913 1.82689L42.8113 4.99489V13.4957Z" fill="black"></path><path d="M31.9936 10.9683C31.9119 10.8865 31.8149 10.8216 31.7081 10.7773C31.6013 10.7329 31.4868 10.7101 31.3712 10.71C31.2556 10.7099 31.1411 10.7326 31.0342 10.7768C30.9274 10.821 30.8302 10.8857 30.7484 10.9674C30.6666 11.0491 30.6017 11.1462 30.5574 11.253C30.513 11.3598 30.4902 11.4742 30.4901 11.5899C30.49 11.7055 30.5127 11.82 30.5569 11.9269C30.6011 12.0337 30.6658 12.1308 30.7475 12.2126L33.0954 14.5587C33.2604 14.7237 33.4842 14.8164 33.7175 14.8164C33.9509 14.8164 34.1747 14.7237 34.3397 14.5587L39.0336 9.8648C39.1986 9.69956 39.2912 9.47554 39.2911 9.24202C39.2909 9.0085 39.198 8.78461 39.0327 8.6196C38.8675 8.4546 38.6435 8.36199 38.41 8.36215C38.1764 8.36232 37.9526 8.45524 37.7875 8.62048L33.7167 12.6931L31.9936 10.9683ZM6.73059 28.16C6.4972 28.16 6.27336 28.2527 6.10833 28.4177C5.9433 28.5828 5.85059 28.8066 5.85059 29.04C5.85059 29.2734 5.9433 29.4972 6.10833 29.6623C6.27336 29.8273 6.4972 29.92 6.73059 29.92H13.7706C14.004 29.92 14.2278 29.8273 14.3928 29.6623C14.5579 29.4972 14.6506 29.2734 14.6506 29.04C14.6506 28.8066 14.5579 28.5828 14.3928 28.4177C14.2278 28.2527 14.004 28.16 13.7706 28.16H6.73059Z" fill="black"></path></svg>