<svg xmlns="http://www.w3.org/2000/svg" width="48" height="48" viewBox="0 0 48 48" fill="none"><path d="M24.092 3.75003C23.5735 3.74628 23.1507 4.16346 23.147 4.68096C23.1432 5.19846 23.5595 5.62128 24.0779 5.62503C24.5954 5.62878 25.0182 5.21252 25.022 4.69502C25.0257 4.17752 24.6095 3.75471 24.092 3.75003ZM24.0493 9.37493C20.4295 9.34924 17.4651 12.2695 17.4377 15.8881C17.4104 19.5066 20.3322 22.4725 23.9509 22.4997L24.0011 22.4999C27.5967 22.4999 30.5353 19.5884 30.5625 15.9866C30.5898 12.3683 27.6681 9.40221 24.0493 9.37493ZM24.0009 20.625L23.9649 20.6248C21.3802 20.6053 19.2931 18.4868 19.3126 15.9022C19.332 13.3292 21.4309 11.2497 23.9993 11.2497L24.0353 11.2498C26.62 11.2693 28.7071 13.3879 28.6876 15.9725C28.6681 18.5455 26.5693 20.625 24.0009 20.625ZM28.0905 4.46103C27.6028 4.28796 27.0667 4.54343 26.8936 5.03149C26.7206 5.51956 26.9761 6.05534 27.4641 6.2284C31.5935 7.69193 34.3455 11.6248 34.3125 16.0149C34.3087 16.5326 34.7252 16.9555 35.243 16.9594H35.2502C35.7645 16.9594 36.1836 16.5443 36.1875 16.0289C36.2265 10.8401 32.9725 6.19137 28.0905 4.46103Z" fill="#F55B1F"></path><path d="M29.7526 35.2914C35.9882 27.265 39.8851 23.0796 39.9377 16.0573C40.0037 7.22203 32.8335 0 23.9988 0C15.2673 0 8.12941 7.07137 8.06304 15.8182C8.00941 23.0309 11.9787 27.2107 18.2573 35.2901C12.0112 36.2235 8.06304 38.5688 8.06304 41.4375C8.06304 43.3591 9.83922 45.0834 13.0645 46.2928C16.0001 47.3936 19.8839 47.9999 24.0003 47.9999C28.1168 47.9999 32.0006 47.3936 34.9362 46.2928C38.1615 45.0833 39.9377 43.359 39.9377 41.4374C39.9377 38.5703 35.9931 36.2256 29.7526 35.2914ZM9.93794 15.8324C9.99644 8.11406 16.2941 1.875 23.999 1.875C31.7952 1.875 38.1209 8.24887 38.0628 16.0433C38.0129 22.7122 33.8802 26.8219 27.2824 35.4228C26.1055 36.9562 25.0248 38.4059 24.0018 39.8241C22.9818 38.4051 21.9226 36.9813 20.7281 35.4222C13.8575 26.4612 9.88713 22.6621 9.93794 15.8324ZM24.0003 46.125C15.9518 46.125 9.93794 43.6503 9.93794 41.4375C9.93794 39.7965 13.5331 37.7235 19.5779 37.0057C20.9141 38.7589 22.0856 40.3517 23.2346 41.9784C23.3211 42.1009 23.4357 42.2008 23.5688 42.2698C23.7019 42.3388 23.8496 42.3749 23.9995 42.375H24.0003C24.1501 42.375 24.2978 42.3391 24.4308 42.2703C24.5639 42.2015 24.6785 42.1019 24.7652 41.9797C25.9033 40.3741 27.1068 38.742 28.4316 37.0067C34.4708 37.7253 38.0628 39.7976 38.0628 41.4376C38.0627 43.6503 32.0489 46.125 24.0003 46.125Z" fill="#F55B1F"></path></svg>