<svg xmlns="http://www.w3.org/2000/svg" width="48" height="48" viewBox="0 0 48 48" fill="none"><path d="M43.4903 37.2864C43.4874 36.6607 43.3607 36.0417 43.1177 35.4651C42.8747 34.8884 42.5201 34.3655 42.0743 33.9264L37.9943 29.88C37.1018 28.9915 35.8937 28.4927 34.6343 28.4928C34.007 28.4997 33.3872 28.6304 32.8106 28.8776C32.234 29.1247 31.7119 29.4833 31.2743 29.9328L29.1767 32.0544C28.4663 32.4432 24.6407 30.6576 21.0551 27.1056C17.4695 23.5536 15.6023 19.68 15.9719 18.9984L18.0839 16.8672C18.9799 15.9633 19.4803 14.7405 19.4749 13.4677C19.4695 12.1949 18.9588 10.9763 18.0551 10.08L13.9799 6.03844C13.0741 5.14877 11.8559 4.64911 10.5863 4.64644C9.95889 4.65276 9.33897 4.78327 8.76227 5.03042C8.18558 5.27757 7.66355 5.63648 7.22628 6.08644L2.71428 10.6128C0.847083 12.48 1.05828 16.0944 3.31428 20.7408C5.42148 25.0608 9.07428 29.9664 13.6439 34.4832C20.2775 41.0592 28.6439 46.56 33.9863 46.56C34.6491 46.5938 35.312 46.493 35.9348 46.2637C36.5577 46.0343 37.1276 45.6812 37.6103 45.2256L42.1031 40.6944C42.5471 40.2455 42.8982 39.7134 43.1362 39.1286C43.3742 38.5438 43.4946 37.9178 43.4903 37.2864ZM40.7399 39.3264L36.2471 43.8576C33.8039 46.32 24.4823 42.5184 14.9975 33.12C10.5911 28.752 7.05348 24.0576 5.04228 19.9008C3.22308 16.1568 2.86308 13.1808 4.08228 11.9616L8.57508 7.43044C9.11153 6.89076 9.83976 6.58532 10.6007 6.58084C10.9759 6.58023 11.3476 6.6537 11.6943 6.79702C12.0411 6.94034 12.3562 7.1507 12.6215 7.41604L16.7015 11.4576C17.2364 11.997 17.5366 12.726 17.5366 13.4856C17.5366 14.2453 17.2364 14.9742 16.7015 15.5136L14.5895 17.6496C13.6631 18.5808 13.8599 20.2656 15.1799 22.656C16.395 24.7703 17.8937 26.7082 19.6343 28.416C21.3594 30.1452 23.3136 31.6294 25.4423 32.8272C27.8423 34.1232 29.5319 34.3104 30.4583 33.3792L32.5703 31.2432C33.1067 30.7036 33.835 30.3981 34.5959 30.3936C35.3507 30.3955 36.0747 30.6937 36.6119 31.224L40.6919 35.2704C41.2268 35.8098 41.527 36.5388 41.527 37.2984C41.527 38.0581 41.2268 38.787 40.6919 39.3264H40.7399ZM45.6023 23.8656C45.8569 23.8656 46.1011 23.7645 46.2811 23.5845C46.4611 23.4044 46.5623 23.1602 46.5623 22.9056C46.5559 17.2281 44.2981 11.7849 40.2839 7.76982C36.2697 3.75475 30.827 1.49566 25.1495 1.48804C24.8949 1.48804 24.6507 1.58918 24.4707 1.76921C24.2906 1.94925 24.1895 2.19343 24.1895 2.44804C24.1895 2.70264 24.2906 2.94682 24.4707 3.12686C24.6507 3.30689 24.8949 3.40804 25.1495 3.40804C30.3182 3.41439 35.2733 5.47079 38.9277 9.12606C42.582 12.7813 44.6372 17.7369 44.6423 22.9056C44.6423 23.1602 44.7434 23.4044 44.9235 23.5845C45.1035 23.7645 45.3477 23.8656 45.6023 23.8656Z" fill="#F55B1F"></path><path d="M37.7571 22.905C37.7571 23.1596 37.8582 23.4038 38.0383 23.5838C38.2183 23.7639 38.4625 23.865 38.7171 23.865C38.9717 23.865 39.2159 23.7639 39.3959 23.5838C39.576 23.4038 39.6771 23.1596 39.6771 22.905C39.6733 19.0522 38.1414 15.3583 35.4176 12.6335C32.6937 9.90877 29.0003 8.37569 25.1475 8.37061C24.8929 8.37061 24.6487 8.47175 24.4687 8.65178C24.2886 8.83182 24.1875 9.076 24.1875 9.33061C24.1875 9.58521 24.2886 9.82939 24.4687 10.0094C24.6487 10.1895 24.8929 10.2906 25.1475 10.2906C28.491 10.2957 31.6961 11.6265 34.0599 13.9912C36.4237 16.3559 37.7533 19.5615 37.7571 22.905ZM24.1875 16.2138C24.1875 16.4684 24.2886 16.7126 24.4687 16.8926C24.6487 17.0727 24.8929 17.1738 25.1475 17.1738C26.6643 17.1826 28.1165 17.7894 29.1886 18.8625C30.2607 19.9355 30.8663 21.3882 30.8739 22.905C30.8739 23.1596 30.975 23.4038 31.1551 23.5838C31.3351 23.7639 31.5793 23.865 31.8339 23.865C32.0885 23.865 32.3327 23.7639 32.5127 23.5838C32.6928 23.4038 32.7939 23.1596 32.7939 22.905C32.7863 20.8789 31.9784 18.938 30.5462 17.5049C29.114 16.0718 27.1736 15.2627 25.1475 15.2538C24.8929 15.2538 24.6487 15.3549 24.4687 15.535C24.2886 15.715 24.1875 15.9592 24.1875 16.2138Z" fill="#F55B1F"></path></svg>