<svg xmlns="http://www.w3.org/2000/svg" width="18" height="17" viewBox="0 0 18 17" fill="none"><path d="M16.778 15.3974L10.2962 8.95316L16.778 2.5089C17.136 2.153 17.136 1.57597 16.778 1.22007C16.42 0.864167 15.8396 0.864167 15.4817 1.22007L8.99984 7.6643L2.51799 1.22003C2.15998 0.864153 1.57959 0.864153 1.22161 1.22006C0.86363 1.57596 0.86363 2.15298 1.22161 2.50889L7.70344 8.95313L1.22162 15.3974C0.863644 15.7533 0.863645 16.3303 1.22162 16.6862C1.5796 17.0421 2.15999 17.0421 2.51797 16.6862L8.99978 10.242L15.4816 16.6862C15.8396 17.0421 16.42 17.0421 16.778 16.6862C17.136 16.3304 17.136 15.7533 16.778 15.3974Z" fill="#0E0E0E"></path></svg>