<svg xmlns="http://www.w3.org/2000/svg" width="18" height="18" viewBox="0 0 18 18" fill="none"><path opacity="0.5" d="M17.2501 8.25003H9.75003V0.74999C9.75003 0.335778 9.41425 0 9.00004 0C8.58582 0 8.25004 0.335778 8.25004 0.74999V8.24999H0.749991C0.335779 8.25003 0 8.58581 0 9.00002C0 9.41423 0.335779 9.75001 0.749991 9.75001H8.25001V17.25C8.25001 17.6642 8.58579 18 9 18C9.41421 18 9.74999 17.6642 9.74999 17.25V9.75001H17.25C17.6642 9.75001 18 9.41423 18 9.00002C18.0001 8.58581 17.6643 8.25003 17.2501 8.25003Z" fill="#555555"></path></svg>