<svg xmlns="http://www.w3.org/2000/svg" width="110" height="110" viewBox="0 0 110 110" fill="none"><path d="M106.062 22.8422L87.1561 3.93594C86.8284 3.61935 86.3914 3.44089 85.9358 3.4375H42.967C41.6008 3.44158 40.2916 3.98614 39.3255 4.95224C38.3594 5.91834 37.8149 7.22748 37.8108 8.59375V18.9922C28.5528 19.4261 19.8176 23.4093 13.4193 30.1145C7.02099 36.8198 3.45117 45.7318 3.45117 55C3.45117 64.2682 7.02099 73.1802 13.4193 79.8855C19.8176 86.5907 28.5528 90.5739 37.8108 91.0078V101.406C37.8149 102.773 38.3594 104.082 39.3255 105.048C40.2916 106.014 41.6008 106.558 42.967 106.562H101.405C102.771 106.558 104.08 106.014 105.046 105.048C106.012 104.082 106.557 102.773 106.561 101.406V24.0625C106.557 23.6068 106.379 23.1699 106.062 22.8422ZM87.6545 9.29844L100.7 22.3438H89.3733C88.9174 22.3438 88.4803 22.1627 88.1579 21.8403C87.8356 21.518 87.6545 21.0808 87.6545 20.625V9.29844ZM6.87329 55C6.88448 46.6405 10.0972 38.6028 15.8512 32.5387C21.6052 26.4746 29.4634 22.8449 37.8108 22.3953V54.2953L15.2952 76.8109C9.87511 70.8397 6.87275 63.0642 6.87329 55ZM17.7186 79.2344L40.2342 56.7188H72.1342C71.8212 62.8774 69.7673 68.8209 66.2113 73.8589C62.6553 78.8969 57.743 82.8228 52.0449 85.1805C46.3468 87.5382 40.0968 88.231 34.0206 87.1785C27.9445 86.126 22.2917 83.3713 17.7186 79.2344ZM103.123 101.406C103.123 101.862 102.942 102.299 102.62 102.622C102.298 102.944 101.86 103.125 101.405 103.125H42.967C42.5112 103.125 42.074 102.944 41.7517 102.622C41.4294 102.299 41.2483 101.862 41.2483 101.406V91.0078C50.5031 90.5607 59.2321 86.574 65.6301 79.872C72.0282 73.1701 75.6059 64.2656 75.6233 55C75.6233 54.5442 75.4422 54.107 75.1199 53.7847C74.7975 53.4623 74.3604 53.2812 73.9045 53.2812H41.2483V8.59375C41.2483 8.13791 41.4294 7.70074 41.7517 7.37841C42.074 7.05608 42.5112 6.875 42.967 6.875H84.217V20.625C84.2211 21.9913 84.7657 23.3004 85.7318 24.2665C86.6979 25.2326 88.007 25.7772 89.3733 25.7812H103.123V101.406Z" fill="#F55B1F"></path><path d="M46.4062 12.0312C45.9504 12.0312 45.5132 12.2123 45.1909 12.5347C44.8686 12.857 44.6875 13.2942 44.6875 13.75V48.125C44.6875 48.5808 44.8686 49.018 45.1909 49.3403C45.5132 49.6627 45.9504 49.8438 46.4062 49.8438H80.7812C81.2371 49.8438 81.6743 49.6627 81.9966 49.3403C82.3189 49.018 82.5 48.5808 82.5 48.125C82.4895 38.5556 78.6835 29.381 71.9168 22.6144C65.1502 15.8478 55.9757 12.0417 46.4062 12.0312ZM48.125 46.4062V15.5203C56.1761 15.9526 63.7834 19.3454 69.4846 25.0466C75.1858 30.7479 78.5786 38.3551 79.0109 46.4062H48.125ZM84.2188 68.75C81.1593 68.75 78.1686 69.6572 75.6248 71.357C73.0809 73.0567 71.0983 75.4726 69.9275 78.2991C68.7567 81.1257 68.4504 84.2359 69.0472 87.2366C69.6441 90.2372 71.1173 92.9935 73.2807 95.1568C75.444 97.3202 78.2003 98.7934 81.2009 99.3903C84.2016 99.9871 87.3118 99.6808 90.1384 98.51C92.9649 97.3392 95.3808 95.3566 97.0805 92.8127C98.7803 90.2689 99.6875 87.2782 99.6875 84.2188C99.6811 80.1181 98.0494 76.1873 95.1498 73.2877C92.2502 70.3881 88.3194 68.7564 84.2188 68.75ZM84.2188 96.25C81.8392 96.25 79.5131 95.5444 77.5345 94.2224C75.556 92.9004 74.0139 91.0213 73.1033 88.8229C72.1927 86.6245 71.9544 84.2054 72.4187 81.8716C72.8829 79.5377 74.0288 77.394 75.7114 75.7114C77.394 74.0288 79.5377 72.8829 81.8716 72.4187C84.2054 71.9544 86.6245 72.1927 88.8229 73.1033C91.0213 74.0139 92.9004 75.556 94.2224 77.5345C95.5444 79.5131 96.25 81.8392 96.25 84.2188C96.2464 87.4085 94.9776 90.4666 92.7221 92.7221C90.4666 94.9776 87.4085 96.2464 84.2188 96.25Z" fill="#F55B1F"></path><path d="M80.7796 86.9447L76.8385 83.0036L74.4082 85.4339L79.5645 90.5902C79.8868 90.9124 80.3239 91.0934 80.7796 91.0934C81.2354 91.0934 81.6725 90.9124 81.9948 90.5902L92.3073 80.2777L89.877 77.8473L80.7796 86.9447ZM85.9359 32.6562H99.6859V36.0938H85.9359V32.6562ZM85.9359 42.9688H99.6859V46.4062H85.9359V42.9688ZM85.9359 53.2812H99.6859V56.7188H85.9359V53.2812Z" fill="#F55B1F"></path></svg>