<svg xmlns="http://www.w3.org/2000/svg" width="110" height="110" viewBox="0 0 110 110" fill="none"><g clip-path="url(#clip0_12873_4629)"><path d="M97.3072 85.4615H12.6919C6.09186 85.4615 0.845703 90.7076 0.845703 97.3076C0.845703 103.908 6.09186 109.154 12.6919 109.154H97.3072C103.907 109.154 109.153 103.908 109.153 97.3076C109.153 90.7076 103.907 85.4615 97.3072 85.4615ZM97.3072 105.769H12.6919C7.9534 105.769 4.23032 102.046 4.23032 97.3076C4.23032 92.5692 7.9534 88.8461 12.6919 88.8461H97.3072C102.046 88.8461 105.769 92.5692 105.769 97.3076C105.769 102.046 102.046 105.769 97.3072 105.769Z" fill="#F55B1F"></path><path d="M73.6142 95.6154H70.2296C69.2142 95.6154 68.5373 96.2923 68.5373 97.3077C68.5373 98.3231 69.2142 99 70.2296 99H73.6142C74.6296 99 75.3065 98.3231 75.3065 97.3077C75.3065 96.2923 74.6296 95.6154 73.6142 95.6154ZM38.0757 95.6154H34.6911C33.6757 95.6154 32.9988 96.2923 32.9988 97.3077C32.9988 98.3231 33.6757 99 34.6911 99H38.0757C39.0911 99 39.768 98.3231 39.768 97.3077C39.768 96.2923 39.0911 95.6154 38.0757 95.6154ZM9.30649 82.0769H59.2296C61.0911 82.0769 62.6142 80.5538 62.6142 78.6923V35.3692C62.6142 33.5077 61.0911 31.9846 59.2296 31.9846H9.30649C7.44495 31.9846 5.92188 33.5077 5.92188 35.3692V78.6923C5.92188 80.5538 7.44495 82.0769 9.30649 82.0769ZM26.0603 78.6923V70.0615H42.3065V78.6923H26.0603ZM26.0603 35.3692H42.4757V47.8923L34.8603 45.3538C34.6911 45.3538 34.5219 45.1846 34.3526 45.1846C34.1834 45.1846 34.0142 45.1846 33.845 45.3538L26.2296 47.8923V35.3692H26.0603ZM9.30649 35.3692H22.6757V50.2615C22.6757 50.7692 23.0142 51.2769 23.3526 51.6154C23.8603 51.9538 24.368 51.9538 24.8757 51.7846L34.1834 48.5692L43.4911 51.7846C43.6603 51.7846 43.8296 51.9538 43.9988 51.9538C44.3373 51.9538 44.6757 51.7846 45.0142 51.6154C45.5219 51.2769 45.6911 50.7692 45.6911 50.2615V35.3692H59.0603V78.6923H45.5219V68.3692C45.5219 67.3538 44.845 66.6769 43.8296 66.6769H24.368C23.3526 66.6769 22.6757 67.3538 22.6757 68.3692V78.6923H9.30649V35.3692ZM69.2142 82.0769H100.691C102.553 82.0769 104.076 80.5538 104.076 78.6923V49.7538C104.076 47.8923 102.553 46.3692 100.691 46.3692H69.2142C67.3526 46.3692 65.8296 47.8923 65.8296 49.7538V78.6923C65.8296 80.5538 67.3526 82.0769 69.2142 82.0769ZM79.5373 78.6923V73.6154H90.5373V78.6923H79.5373ZM79.5373 49.7538H90.5373V59.0615L85.6296 57.3692C85.4603 57.3692 85.2911 57.2 85.1219 57.2C84.9526 57.2 84.7834 57.2 84.6142 57.3692L79.7065 59.0615V49.7538H79.5373ZM69.2142 49.7538H75.9834V61.4307C75.9834 61.9384 76.3219 62.4461 76.6603 62.7846C77.168 63.1231 77.6757 63.1231 78.1834 62.9538L84.7834 60.7538L91.3834 62.9538C91.5526 62.9538 91.7219 63.1231 91.8911 63.1231C92.2296 63.1231 92.568 62.9538 92.9065 62.7846C93.4142 62.4461 93.5834 61.9384 93.5834 61.4307V49.7538H100.353V78.6923H93.5834V71.9231C93.5834 70.9077 92.9065 70.2307 91.8911 70.2307H77.845C76.8296 70.2307 76.1526 70.9077 76.1526 71.9231V78.6923H69.3834V49.7538H69.2142ZM54.9988 91.3846C51.7834 91.3846 49.0757 94.0923 49.0757 97.3077C49.0757 100.523 51.7834 103.231 54.9988 103.231C58.2142 103.231 60.9219 100.523 60.9219 97.3077C60.9219 94.0923 58.2142 91.3846 54.9988 91.3846ZM54.9988 99.8461C53.645 99.8461 52.4603 98.6615 52.4603 97.3077C52.4603 95.9538 53.645 94.7692 54.9988 94.7692C56.3526 94.7692 57.5373 95.9538 57.5373 97.3077C57.5373 98.6615 56.3526 99.8461 54.9988 99.8461ZM88.845 91.3846C85.6296 91.3846 82.9219 94.0923 82.9219 97.3077C82.9219 100.523 85.6296 103.231 88.845 103.231C92.0603 103.231 94.768 100.523 94.768 97.3077C94.768 94.0923 92.0603 91.3846 88.845 91.3846ZM88.845 99.8461C87.4911 99.8461 86.3065 98.6615 86.3065 97.3077C86.3065 95.9538 87.4911 94.7692 88.845 94.7692C90.1988 94.7692 91.3834 95.9538 91.3834 97.3077C91.3834 98.6615 90.1988 99.8461 88.845 99.8461ZM19.4603 91.3846C16.245 91.3846 13.5373 94.0923 13.5373 97.3077C13.5373 100.523 16.245 103.231 19.4603 103.231C22.6757 103.231 25.3834 100.523 25.3834 97.3077C25.3834 94.0923 22.6757 91.3846 19.4603 91.3846ZM19.4603 99.8461C18.1065 99.8461 16.9219 98.6615 16.9219 97.3077C16.9219 95.9538 18.1065 94.7692 19.4603 94.7692C20.8142 94.7692 21.9988 95.9538 21.9988 97.3077C21.9988 98.6615 20.8142 99.8461 19.4603 99.8461ZM20.9834 4.23075H27.4142V17.9384L24.1988 20.9846C23.8603 21.3231 23.6911 21.8307 23.6911 22.1692V25.5538C23.6911 26.5692 24.368 27.2461 25.3834 27.2461C26.3988 27.2461 27.0757 26.5692 27.0757 25.5538V23.0154L29.7834 20.4769H36.2142L38.9219 23.0154V25.3846C38.9219 26.4 39.5988 27.0769 40.6142 27.0769C41.6296 27.0769 42.3065 26.4 42.3065 25.3846V22C42.3065 21.4923 42.1373 21.1538 41.7988 20.8154L38.5834 17.7692V4.23075H45.0142C46.0296 4.23075 46.7065 3.55382 46.7065 2.53844C46.7065 1.52305 46.0296 0.84613 45.0142 0.84613H21.1526C20.1373 0.84613 19.4603 1.52305 19.4603 2.53844C19.4603 3.55382 19.968 4.23075 20.9834 4.23075ZM35.0296 4.23075V16.9231H30.7988V4.23075H35.0296Z" fill="#F55B1F"></path></g><defs><clipPath id="clip0_12873_4629"><rect width="110" height="110" fill="white"></rect></clipPath></defs></svg>