<svg width="14" height="14" viewBox="0 0 14 14" fill="none" xmlns="http://www.w3.org/2000/svg">
<path d="M3.97363 0.946268C3.97363 0.761023 4.04722 0.583366 4.17821 0.452378C4.3092 0.321391 4.48685 0.247803 4.6721 0.247803H13.0537C13.2389 0.247803 13.4166 0.321391 13.5476 0.452378C13.6786 0.583366 13.7521 0.761023 13.7521 0.946268V9.32785C13.7521 9.51309 13.6786 9.69075 13.5476 9.82174C13.4166 9.95272 13.2389 10.0263 13.0537 10.0263C12.8684 10.0263 12.6908 9.95272 12.5598 9.82174C12.4288 9.69075 12.3552 9.51309 12.3552 9.32785V1.64473H4.6721C4.48685 1.64473 4.3092 1.57114 4.17821 1.44016C4.04722 1.30917 3.97363 1.13151 3.97363 0.946268Z" fill="#F55B1F"/>
<path d="M13.5473 0.452536C13.6781 0.583499 13.7515 0.761025 13.7515 0.946118C13.7515 1.13121 13.6781 1.30874 13.5473 1.4397L1.69384 13.2931C1.6299 13.3617 1.55279 13.4168 1.46711 13.455C1.38143 13.4931 1.28894 13.5137 1.19516 13.5153C1.10138 13.517 1.00822 13.4997 0.921252 13.4646C0.834281 13.4295 0.755276 13.3772 0.68895 13.3108C0.622625 13.2445 0.570339 13.1655 0.53521 13.0785C0.500081 12.9916 0.482829 12.8984 0.484484 12.8046C0.486138 12.7109 0.506666 12.6184 0.544841 12.5327C0.583016 12.447 0.638057 12.3699 0.706681 12.306L12.5592 0.452536C12.624 0.38763 12.701 0.336142 12.7858 0.301013C12.8706 0.265884 12.9615 0.247803 13.0532 0.247803C13.145 0.247803 13.2358 0.265884 13.3206 0.301013C13.4054 0.336142 13.4824 0.38763 13.5473 0.452536Z" fill="#F55B1F"/>
</svg>
