<svg xmlns="http://www.w3.org/2000/svg" width="40" height="40" viewBox="0 0 40 40" fill="none"><path d="M19.4414 8.8125C19.2539 8.8125 19.1289 8.75 19.0039 8.625C18.7539 8.375 18.7539 8 19.0039 7.75L19.3789 7.375C19.6914 7 19.6914 6.4375 19.3789 6.125C19.0664 5.8125 18.5039 5.8125 18.1289 6.125L16.0664 8.1875C15.8164 8.4375 15.4414 8.4375 15.1914 8.1875C14.9414 7.9375 14.9414 7.5625 15.1914 7.3125L17.2539 5.25C18.1289 4.4375 19.4414 4.4375 20.2539 5.25C21.0664 6.0625 21.0664 7.375 20.2539 8.25L19.8789 8.625C19.7539 8.75 19.6289 8.8125 19.4414 8.8125ZM11.3164 7.875C11.1289 7.875 11.0039 7.8125 10.8789 7.6875C10.6289 7.4375 10.6289 7.0625 10.8789 6.8125L11.5039 6.1875C11.8164 5.8125 11.8164 5.25 11.5039 4.9375C11.1914 4.625 10.5664 4.625 10.2539 4.9375L7.94141 7.25C7.69141 7.5 7.31641 7.5 7.06641 7.25C6.81641 7 6.81641 6.625 7.06641 6.375L9.37891 4.0625C10.1289 3.3125 11.6289 3.3125 12.3789 4.0625C13.1914 4.875 13.1914 6.1875 12.3789 7.0625L11.7539 7.6875C11.6289 7.8125 11.5039 7.875 11.3164 7.875Z" fill="white"></path><path d="M16.9414 18.4379C16.8164 18.4379 16.6914 18.3754 16.5664 18.3129C12.8164 15.8129 6.31641 12.1254 1.06641 10.0004C0.878906 9.93791 0.691406 9.81291 0.503906 9.62541C-0.183594 8.93791 -0.183594 7.87541 0.503906 7.12541L0.566406 7.06291C1.56641 6.12541 2.94141 5.68791 4.37891 5.81291L19.4414 7.56291L25.1289 8.50041C25.4414 8.56291 25.6914 8.87541 25.6289 9.18791C25.5664 9.50041 25.2539 9.75041 24.9414 9.68791L19.2539 8.75041L4.25391 7.06291C3.19141 6.93791 2.19141 7.31291 1.37891 8.00041C1.19141 8.25041 1.19141 8.56291 1.37891 8.75041C1.44141 8.81291 1.50391 8.81291 1.56641 8.87541C6.81641 11.0004 13.4414 14.7504 17.2539 17.3129C17.5664 17.5004 17.6289 17.8754 17.4414 18.1879C17.3164 18.3129 17.1289 18.4379 16.9414 18.4379ZM32.5039 24.8754C32.3164 24.8754 32.1914 24.8129 32.0664 24.6879C31.8164 24.4379 31.8164 24.0629 32.0664 23.8129L34.1289 21.7504C34.4414 21.3754 34.4414 20.8129 34.1289 20.5004C33.8164 20.1879 33.2539 20.1879 32.8789 20.5004L32.5039 20.8754C32.2539 21.1254 31.8789 21.1254 31.6289 20.8754C31.3789 20.6254 31.3789 20.2504 31.6289 20.0004L32.0039 19.6254C32.8789 18.8129 34.1914 18.8129 35.0039 19.6254C35.8164 20.4379 35.8164 21.7504 35.0039 22.6254L32.9414 24.6879C32.8164 24.8129 32.6914 24.8754 32.5039 24.8754ZM33.4414 32.9379C33.2539 32.9379 33.1289 32.8754 33.0039 32.7504C32.7539 32.5004 32.7539 32.1254 33.0039 31.8754L35.2539 29.5629C35.5664 29.1879 35.5664 28.6254 35.2539 28.3129C34.9414 28.0004 34.3789 28.0004 34.0039 28.3129L33.3789 28.9379C33.1289 29.1879 32.7539 29.1879 32.5039 28.9379C32.2539 28.6879 32.2539 28.3129 32.5039 28.0629L33.1289 27.4379C34.0039 26.6254 35.3164 26.6254 36.1289 27.4379C36.9414 28.2504 36.9414 29.5629 36.1289 30.4379L33.8789 32.7504C33.7539 32.8754 33.6289 32.9379 33.4414 32.9379Z" fill="white"></path><path d="M31.8164 39.8125C31.3789 39.8125 30.8789 39.625 30.5664 39.3125C30.3789 39.125 30.2539 38.9375 30.1914 38.75C28.0039 33.4375 24.3164 26.75 21.7539 22.875C21.5664 22.5625 21.6289 22.1875 21.9414 22C22.2539 21.8125 22.6289 21.875 22.8164 22.1875C25.4414 26.125 29.1914 32.875 31.3789 38.25C31.4414 38.3125 31.4414 38.375 31.5039 38.4375C31.6914 38.625 32.0664 38.625 32.2539 38.4375C33.0039 37.6875 33.3789 36.625 33.2539 35.5625L31.5039 20.4375L30.6289 14.5C30.5664 14.1875 30.8164 13.8125 31.1289 13.8125C31.4414 13.75 31.8164 14 31.8164 14.3125L32.6914 20.25L34.4414 35.375C34.5664 36.8125 34.0664 38.25 33.0664 39.25C32.7539 39.6875 32.2539 39.8125 31.8164 39.8125ZM8.87891 29.875C8.75391 29.875 8.62891 29.8125 8.50391 29.75L1.81641 25.25C1.50391 25 1.31641 24.625 1.25391 24.25C1.25391 23.875 1.37891 23.5625 1.62891 23.25L2.75391 22.125C3.12891 21.75 3.50391 21.75 3.81641 21.75H3.94141L11.0664 23.5C11.3789 23.5625 11.6289 23.9375 11.5039 24.25C11.4414 24.5625 11.0664 24.8125 10.7539 24.6875L3.81641 23.0625H3.69141L2.56641 24.1875L9.25391 28.75C9.56641 28.9375 9.62891 29.3125 9.44141 29.625C9.25391 29.75 9.06641 29.875 8.87891 29.875ZM15.9414 38.6875H15.7539C15.3789 38.625 15.0664 38.4375 14.8789 38.125L10.0039 30.875C9.81641 30.5625 9.87891 30.1875 10.1914 30C10.5039 29.8125 10.8789 29.875 11.0664 30.1875L15.9414 37.375L17.0039 36.3125L14.8789 28.875C14.7539 28.5625 15.0039 28.1875 15.3164 28.125C15.6289 28.0625 16.0039 28.25 16.0664 28.5625L18.1914 36C18.3164 36.375 18.1914 36.875 17.8164 37.25L16.6914 38.375C16.5664 38.5625 16.2539 38.6875 15.9414 38.6875Z" fill="white"></path><path d="M11.3151 30.9375C11.1276 30.9375 10.8776 30.9375 10.6901 30.875C10.3776 30.8125 10.1276 30.5 10.1901 30.1875C10.2526 29.875 10.5651 29.625 10.8776 29.6875C12.1901 29.875 14.3776 29 15.0026 28.375L35.8151 9.375C37.8776 7.375 39.5026 3.1875 38.2526 1.875C37.9401 1.5625 37.4401 1.375 36.7526 1.4375C34.8776 1.4375 32.1276 2.75 30.6276 4.25L11.3776 24.625C10.7526 25.25 9.81508 27.3125 10.0651 28.6875C10.1276 29 9.87758 29.375 9.56508 29.375C9.25258 29.4375 8.87758 29.1875 8.87758 28.875C8.56508 27.0625 9.69008 24.625 10.5651 23.75L29.8151 3.3125C31.5651 1.5 34.6276 0.125 36.8151 0.0625H36.8776C37.8776 0.0625 38.6901 0.3125 39.2526 0.875C41.2526 2.9375 39.1901 7.8125 36.8151 10.125L15.9401 29.1875C15.1901 30 13.0651 30.9375 11.3151 30.9375Z" fill="white"></path><path d="M35.5039 6.875C35.1914 6.875 34.8789 6.625 34.8789 6.3125C34.8164 5.75 34.3789 5.375 33.7539 5.3125H33.6289C33.2539 5.3125 33.0039 5.0625 33.0039 4.6875C33.0039 4.3125 33.2539 4.0625 33.6289 4.0625H33.8164C35.1289 4.125 36.0664 5 36.1289 6.1875C36.1289 6.5625 35.8789 6.875 35.5039 6.875ZM8.56641 32.6875C8.12891 32.6875 7.69141 32.5 7.37891 32.1875C7.06641 31.875 6.87891 31.5 6.87891 31.0625C6.87891 30.625 7.06641 30.1875 7.31641 29.875L10.8789 26.3125C11.4414 25.75 12.6289 25.75 13.1914 26.3125C13.5039 26.625 13.6289 27 13.6289 27.5C13.6289 28 13.4414 28.375 13.1914 28.6875L9.62891 32.25C9.44141 32.5 9.00391 32.6875 8.56641 32.6875ZM12.1289 27.125C12.0039 27.125 11.9414 27.1875 11.8789 27.25L8.31641 30.8125C8.25391 30.875 8.19141 31 8.19141 31.0625C8.19141 31.1875 8.25391 31.25 8.31641 31.3125C8.50391 31.5 8.69141 31.5 8.81641 31.375L12.4414 27.75C12.5039 27.6875 12.5664 27.5625 12.5664 27.5C12.5664 27.4375 12.5039 27.3125 12.4414 27.25C12.3164 27.125 12.1914 27.125 12.1289 27.125Z" fill="white"></path></svg>