<svg xmlns="http://www.w3.org/2000/svg" width="40" height="39" viewBox="0 0 40 39" fill="none"><path d="M0.257167 31.4986L2.74991 33.2136C3.8936 34.0005 5.22455 34.4035 6.56727 34.4035C7.43912 34.4031 8.30264 34.2338 9.11002 33.9047L12.2961 32.6094C13.031 32.3106 13.8212 32.1722 14.6138 32.2035C15.4065 32.2347 16.1833 32.4349 16.8924 32.7906L16.9808 32.835C18.8736 33.7846 21.1338 33.7846 23.0264 32.835L23.1149 32.7906C23.824 32.4349 24.6008 32.2347 25.3935 32.2035C26.1861 32.1722 26.9763 32.3106 27.7112 32.6094L30.8972 33.9047C33.0054 34.7618 35.3827 34.5034 37.2574 33.2136L39.7501 31.4985C39.878 31.4106 39.9656 31.2754 39.9939 31.1228C40.0221 30.9702 39.9885 30.8126 39.9005 30.6848C39.8126 30.5569 39.6774 30.4692 39.5248 30.441C39.3722 30.4128 39.2146 30.4464 39.0868 30.5343L36.5941 32.2494C35.0448 33.3154 33.0799 33.5288 31.338 32.8206L31.0849 32.7177C32.7038 29.9538 33.7765 27.215 34.2753 24.5676C34.3028 24.4201 34.2952 24.2682 34.2533 24.1242C34.2114 23.9802 34.1362 23.848 34.0339 23.7383C33.8763 23.5702 33.7169 23.4038 33.5556 23.2393L33.1028 19.1369C33.0766 18.8971 32.9627 18.6754 32.783 18.5144C32.6033 18.3535 32.3704 18.2646 32.1292 18.2648H31.8356L30.8627 13.2054C30.8209 12.9892 30.7053 12.7943 30.5355 12.6541C30.3658 12.5139 30.1526 12.4371 29.9324 12.4368H29.4524L29.1592 10.5414C29.1341 10.3892 29.05 10.2531 28.9251 10.1626C28.8003 10.0721 28.6447 10.0346 28.4923 10.0582C28.3399 10.0817 28.203 10.1645 28.1112 10.2885C28.0195 10.4125 27.9805 10.5677 28.0026 10.7203L28.2681 12.4368H25.1553L24.348 7.21736H27.4607L27.6168 8.22663C27.6406 8.37997 27.7243 8.51759 27.8495 8.60925C27.9747 8.70091 28.1312 8.7391 28.2845 8.71542C28.3605 8.70368 28.4334 8.6771 28.499 8.63719C28.5647 8.59728 28.6219 8.54483 28.6673 8.48283C28.7126 8.42083 28.7454 8.35049 28.7636 8.27584C28.7818 8.20118 28.7851 8.12367 28.7734 8.04773L28.0385 3.29709C27.9477 2.7096 27.4503 2.28322 26.8559 2.28322H23.5848L23.3885 1.01399C23.2976 0.426501 22.8002 0.00012207 22.2058 0.00012207H17.8014C17.207 0.00012207 16.7096 0.426501 16.6187 1.01399L16.4224 2.28322H13.1513C12.5569 2.28322 12.0595 2.7096 11.9687 3.29709L10.5549 12.4369H10.0748C9.85467 12.4372 9.64147 12.514 9.47176 12.6542C9.30204 12.7944 9.18637 12.9893 9.14458 13.2054L8.17167 18.2649H8.07462C7.83336 18.2647 7.60052 18.3536 7.42081 18.5146C7.2411 18.6755 7.12718 18.8972 7.10093 19.137L6.67306 23.0145C6.43592 23.2519 6.20266 23.4932 5.97338 23.7382C5.87106 23.8479 5.79591 23.9802 5.75399 24.1243C5.71206 24.2683 5.70453 24.4202 5.73199 24.5678C5.99148 25.945 6.41029 27.3614 6.97672 28.7776C7.03567 28.9198 7.14828 29.0331 7.29016 29.0928C7.43203 29.1526 7.59175 29.154 7.73469 29.0969C7.87763 29.0397 7.99229 28.9285 8.05381 28.7874C8.11534 28.6462 8.11877 28.4866 8.06338 28.3429C7.91742 27.9773 7.78063 27.6081 7.65315 27.2357C10.7544 24.1753 14.6136 21.7093 19.4185 19.7184V32.3464C18.7589 32.2775 18.1096 32.092 17.5056 31.789L17.4171 31.7446C16.5591 31.3142 15.6191 31.072 14.6599 31.0341C13.7008 30.9963 12.7446 31.1638 11.8554 31.5253L10.0186 32.272C9.68347 31.7067 9.36928 31.1402 9.08373 30.5825C9.04897 30.5136 9.00094 30.4524 8.94242 30.4021C8.88389 30.3519 8.81602 30.3138 8.7427 30.2899C8.66938 30.266 8.59206 30.2568 8.51519 30.2629C8.43831 30.269 8.3634 30.2902 8.29475 30.3254C8.22611 30.3605 8.16509 30.4089 8.1152 30.4677C8.06531 30.5265 8.02753 30.5946 8.00405 30.668C7.98056 30.7415 7.97182 30.8188 7.97833 30.8957C7.98485 30.9725 8.00649 31.0473 8.042 31.1157C8.32021 31.658 8.61376 32.1922 8.9223 32.7177L8.66913 32.8206C6.92741 33.5288 4.9624 33.3154 3.41315 32.2495L0.920415 30.5344C0.857131 30.4902 0.785716 30.4589 0.710288 30.4424C0.634859 30.4259 0.556908 30.4245 0.480928 30.4382C0.404948 30.452 0.332441 30.4806 0.267586 30.5225C0.202732 30.5644 0.146812 30.6188 0.103051 30.6824C0.0592892 30.746 0.0285512 30.8176 0.0126085 30.8932C-0.0033342 30.9687 -0.00416638 31.0467 0.0101599 31.1226C0.0244862 31.1984 0.0536877 31.2707 0.0960812 31.3353C0.138475 31.3998 0.193222 31.4553 0.257167 31.4986ZM28.1519 31.5254C27.2627 31.1638 26.3065 30.9964 25.3473 31.0342C24.3881 31.072 23.4481 31.3143 22.5901 31.7447L22.5016 31.7891C21.8976 32.0921 21.2483 32.2775 20.5887 32.3465V19.7188C21.2743 20.0025 21.9532 20.3022 22.6249 20.6176C22.7651 20.682 22.925 20.6884 23.0698 20.6354C23.2147 20.5825 23.3328 20.4745 23.3985 20.335C23.4642 20.1954 23.4721 20.0356 23.4205 19.8902C23.3689 19.7448 23.2621 19.6257 23.1231 19.5587C22.3124 19.1771 21.4604 18.807 20.5887 18.4551V16.1737C25.7868 18.3276 29.8876 21.0427 33.1046 24.4585C33.0042 24.9726 32.8835 25.4826 32.7428 25.9873C30.639 23.9936 28.1674 22.217 25.3787 20.7004C25.2423 20.6263 25.0821 20.6093 24.9333 20.6533C24.7845 20.6973 24.6592 20.7986 24.5851 20.9349C24.5109 21.0713 24.494 21.2315 24.538 21.3803C24.5819 21.5291 24.6832 21.6544 24.8196 21.7285C27.7048 23.2976 30.2367 25.15 32.353 27.2364C31.785 28.8902 30.995 30.5742 29.9886 32.2722L28.1519 31.5254ZM32.2379 21.9695C31.2516 21.0735 30.1962 20.2299 29.0675 19.4354H31.9582L32.2379 21.9695ZM17.1544 5.20741H22.8529L23.9711 12.4371H16.036L17.1544 5.20741ZM26.856 3.45368C26.8691 3.45368 26.8801 3.46312 26.882 3.47615L27.2798 6.0473H24.167L23.7658 3.45376L26.856 3.45368ZM17.8014 1.17066H22.2058C22.2187 1.17066 22.2299 1.18033 22.2319 1.19313L22.6718 4.03719H17.3354L17.7753 1.19305C17.7762 1.18679 17.7794 1.18108 17.7842 1.17696C17.789 1.17285 17.7951 1.17061 17.8014 1.17066ZM13.1512 3.45368H16.2414L15.8402 6.04722H12.7275L13.1252 3.47607C13.1261 3.46983 13.1293 3.46413 13.134 3.46002C13.1388 3.4559 13.1449 3.45365 13.1512 3.45368ZM12.5464 7.2176H15.6591L14.8517 12.4371H11.7391L12.5464 7.2176ZM10.259 13.6074H29.7482L30.6438 18.265H27.295C25.2205 16.981 22.9223 15.8385 20.3762 14.8236C20.1366 14.728 19.8695 14.7282 19.6301 14.824C17.0844 15.8388 14.7864 16.9812 12.7122 18.265H9.36343L10.259 13.6074ZM8.2454 19.4353H10.9395C9.89381 20.1714 8.91068 20.9496 7.98747 21.7727L8.2454 19.4353ZM7.26407 25.9837C7.12359 25.4802 7.00296 24.9713 6.90244 24.4584C10.1195 21.0427 14.2206 18.3276 19.4184 16.1736V18.4543C14.4857 20.445 10.4962 22.9155 7.26407 25.9837Z" fill="white"></path><path d="M39.0869 34.4189L36.5942 36.134C35.0451 37.2 33.0803 37.4134 31.3382 36.7052L28.1521 35.4099C27.2629 35.0483 26.3067 34.8809 25.3475 34.9187C24.3884 34.9565 23.4483 35.1988 22.5903 35.6292L22.5018 35.6736C20.9376 36.4582 19.0699 36.4582 17.5058 35.6736L17.4174 35.6292C16.5594 35.1987 15.6193 34.9565 14.6602 34.9187C13.701 34.8809 12.7448 35.0483 11.8556 35.4099L8.66944 36.7052C6.92764 37.4134 4.96271 37.2 3.41347 36.134L0.920727 34.4189C0.857419 34.3754 0.786152 34.3447 0.710994 34.3287C0.635837 34.3127 0.558262 34.3116 0.482699 34.3256C0.407135 34.3396 0.335062 34.3683 0.270596 34.4101C0.20613 34.4519 0.150532 34.506 0.106978 34.5693C0.0634229 34.6327 0.0327637 34.7039 0.0167512 34.7791C0.00073864 34.8542 -0.000313635 34.9318 0.0136544 35.0074C0.0276225 35.0829 0.0563373 35.155 0.0981594 35.2195C0.139982 35.2839 0.194092 35.3395 0.257401 35.3831L2.75014 37.0982C3.89384 37.8851 5.22478 38.2881 6.5675 38.2881C7.43936 38.2877 8.30287 38.1183 9.11025 37.7893L12.2964 36.4939C13.0313 36.1952 13.8215 36.0568 14.6141 36.0881C15.4067 36.1193 16.1836 36.3195 16.8926 36.6752L16.9811 36.7196C18.874 37.6691 21.134 37.6691 23.0267 36.7196L23.1152 36.6752C23.8242 36.3195 24.601 36.1193 25.3937 36.0881C26.1863 36.0568 26.9765 36.1952 27.7114 36.4939L30.8974 37.7893C33.0056 38.6463 35.383 38.3879 37.2576 37.0981L39.7503 35.383C39.814 35.3396 39.8684 35.284 39.9105 35.2195C39.9526 35.155 39.9816 35.0828 39.9958 35.0071C40.0099 34.9314 40.009 34.8536 39.993 34.7782C39.977 34.7029 39.9463 34.6314 39.9026 34.568C39.8589 34.5045 39.8032 34.4503 39.7385 34.4084C39.6738 34.3666 39.6015 34.3379 39.5257 34.324C39.4499 34.3102 39.3722 34.3114 39.2969 34.3277C39.2216 34.344 39.1502 34.375 39.0869 34.4189ZM27.1234 16.2691H27.6132C27.9365 16.2691 28.1984 16.0071 28.1984 15.6839C28.1984 15.3607 27.9365 15.0988 27.6132 15.0988H27.1234C26.9682 15.0988 26.8193 15.1604 26.7096 15.2701C26.5999 15.3799 26.5382 15.5287 26.5382 15.6839C26.5382 15.8391 26.5999 15.9879 26.7096 16.0977C26.8193 16.2074 26.9682 16.2691 27.1234 16.2691ZM12.8842 16.2691C13.2075 16.2691 13.4694 16.0071 13.4694 15.6839C13.4694 15.3607 13.2075 15.0988 12.8842 15.0988H12.3943C12.0711 15.0988 11.8092 15.3607 11.8092 15.6839C11.8092 16.0071 12.0711 16.2691 12.3943 16.2691H12.8842Z" fill="white"></path></svg>