<svg xmlns="http://www.w3.org/2000/svg" width="48" height="48" viewBox="0 0 48 48" fill="none"><g clip-path="url(#clip0_16457_1000)"><path d="M13.6 27.2H5.6C5.17565 27.2 4.76869 27.3685 4.46863 27.6686C4.16857 27.9686 4 28.3756 4 28.8V32.8C4 33.2243 4.16857 33.6313 4.46863 33.9313C4.76869 34.2314 5.17565 34.4 5.6 34.4H13.6C14.0243 34.4 14.4313 34.2314 14.7314 33.9313C15.0314 33.6313 15.2 33.2243 15.2 32.8V28.8C15.2 28.3756 15.0314 27.9686 14.7314 27.6686C14.4313 27.3685 14.0243 27.2 13.6 27.2ZM5.6 32.8V28.8H13.6V32.8H5.6Z" fill="#F55B1F"></path><path d="M38.4 24.24V6.56H38.3872C38.3922 6.23551 38.286 5.91907 38.0864 5.6632L34.0256 0.542404C33.892 0.372906 33.7216 0.236 33.5273 0.142034C33.333 0.0480687 33.1198 -0.0004984 32.904 3.85618e-06H5.496C5.28035 -0.000278532 5.06746 0.0484769 4.87343 0.142583C4.67939 0.236689 4.5093 0.373683 4.376 0.543204L0.3136 5.6632C0.113963 5.91907 0.00782421 6.23551 0.0128 6.56H0V36C0 36.6365 0.252856 37.247 0.702944 37.6971C1.15303 38.1471 1.76348 38.4 2.4 38.4H24.24C24.6741 40.5238 25.6754 42.4903 27.1374 44.0907C28.5995 45.6911 30.4678 46.8656 32.5438 47.4894C34.6198 48.1131 36.826 48.1629 38.928 47.6334C41.0301 47.104 42.9494 46.015 44.4822 44.4822C46.015 42.9494 47.104 41.0301 47.6334 38.928C48.1629 36.826 48.1131 34.6198 47.4894 32.5438C46.8656 30.4678 45.6911 28.5995 44.0907 27.1374C42.4903 25.6754 40.5238 24.6741 38.4 24.24ZM36.6296 6.4H25.3544L23.5544 1.6H32.8224L36.6296 6.4ZM21.3448 15.0672L19.204 16.6744L17.056 15.0632C16.867 14.9214 16.6371 14.8448 16.4008 14.8448C16.1645 14.8448 15.9346 14.9214 15.7456 15.0632L14.4 16.0744V8H24V16.0736L22.6608 15.068C22.4706 14.9265 22.24 14.85 22.0029 14.8499C21.7659 14.8497 21.5351 14.9259 21.3448 15.0672ZM14.7544 6.4L16.5544 1.6H21.8456L23.6456 6.4H14.7544ZM5.5776 1.6H14.8456L13.0456 6.4H1.7704L5.5776 1.6ZM2.4 36.8C2.18783 36.8 1.98434 36.7157 1.83431 36.5657C1.68429 36.4157 1.6 36.2122 1.6 36V8H12.8V17.0832C12.7993 17.2869 12.8555 17.4867 12.9621 17.6602C13.0687 17.8337 13.2216 17.9741 13.4036 18.0655C13.5856 18.1569 13.7895 18.1958 13.9924 18.1777C14.1952 18.1596 14.389 18.0853 14.552 17.9632L16.4 16.5736L18.548 18.184C18.7371 18.3263 18.9674 18.4032 19.204 18.4032C19.4407 18.4032 19.6709 18.3263 19.86 18.184L22 16.5744L23.8448 17.9592C24.0075 18.0821 24.2012 18.1571 24.4043 18.1758C24.6073 18.1945 24.8115 18.1562 24.9939 18.0651C25.1763 17.9741 25.3297 17.834 25.4368 17.6605C25.5438 17.487 25.6004 17.2871 25.6 17.0832V8H36.8V24.0408C36.5344 24.0232 36.2704 24 36 24C32.8185 24.0036 29.7684 25.269 27.5187 27.5187C25.269 29.7684 24.0036 32.8185 24 36C24 36.2704 24.0232 36.5344 24.0408 36.8H2.4ZM36 46.4C33.9431 46.4 31.9323 45.7901 30.2221 44.6473C28.5118 43.5045 27.1788 41.8803 26.3917 39.9799C25.6045 38.0796 25.3985 35.9885 25.7998 33.9711C26.2011 31.9537 27.1916 30.1006 28.6461 28.6461C30.1006 27.1916 31.9537 26.2011 33.9711 25.7998C35.9885 25.3985 38.0796 25.6045 39.9799 26.3917C41.8803 27.1788 43.5045 28.5118 44.6473 30.2221C45.7901 31.9323 46.4 33.9431 46.4 36C46.3968 38.7573 45.3001 41.4007 43.3504 43.3504C41.4007 45.3001 38.7573 46.3968 36 46.4Z" fill="#F55B1F"></path><path d="M40.1347 30.756L34.2763 39.5448L31.7659 37.0344C31.615 36.8887 31.413 36.808 31.2032 36.8099C30.9934 36.8117 30.7928 36.8958 30.6445 37.0441C30.4961 37.1925 30.412 37.3931 30.4102 37.6029C30.4084 37.8126 30.489 38.0147 30.6347 38.1656L33.8347 41.3656C33.9847 41.5156 34.1882 41.6 34.4003 41.6C34.4259 41.6 34.4523 41.6 34.4803 41.596C34.598 41.5843 34.7116 41.5467 34.813 41.4858C34.9144 41.425 35.0011 41.3424 35.0667 41.244L41.4667 31.644C41.525 31.5566 41.5656 31.4586 41.586 31.3555C41.6064 31.2524 41.6063 31.1463 41.5857 31.0433C41.5652 30.9403 41.5245 30.8423 41.466 30.755C41.4076 30.6677 41.3325 30.5927 41.2451 30.5344C41.1577 30.4761 41.0597 30.4356 40.9566 30.4152C40.8535 30.3947 40.7475 30.3948 40.6444 30.4154C40.5414 30.436 40.4434 30.4766 40.3561 30.5351C40.2688 30.5935 40.193 30.6686 40.1347 30.756Z" fill="#F55B1F"></path></g><defs><clipPath id="clip0_16457_1000"><rect width="48" height="48" fill="white"></rect></clipPath></defs></svg>