<svg xmlns="http://www.w3.org/2000/svg" width="48" height="48" viewBox="0 0 48 48" fill="none"><path d="M25.0443 35.0999H22.9556C22.2155 35.0999 21.6134 34.4977 21.6134 33.7577C21.6134 32.9423 21.0856 32.4332 20.5917 32.2285C20.098 32.0239 19.3646 32.0107 18.7882 32.5873C18.5347 32.8408 18.1975 32.9804 17.839 32.9804C17.4804 32.9804 17.1432 32.8407 16.8898 32.5872L15.4129 31.1104C14.8896 30.5869 14.8896 29.7354 15.4129 29.212C15.9885 28.6365 15.9747 27.9033 15.7701 27.409C15.5652 26.9149 15.0565 26.3867 14.2426 26.3867C13.5025 26.3867 12.9004 25.7845 12.9004 25.0444V22.9559C12.9004 22.2157 13.5025 21.6137 14.2426 21.6137C15.0565 21.6137 15.5652 21.0855 15.7701 20.5913C15.9748 20.0971 15.9885 19.3639 15.4129 18.7884C15.1594 18.5349 15.0198 18.1978 15.0198 17.8392C15.0198 17.4806 15.1595 17.1435 15.413 16.8901L16.8898 15.4131C17.1432 15.1597 17.4804 15.02 17.839 15.02C18.1975 15.02 18.5347 15.1596 18.7882 15.4131C19.3636 15.9888 20.0968 15.9748 20.5911 15.7703C21.0852 15.5656 21.6134 15.0569 21.6134 14.2429C21.6134 13.5027 22.2156 12.9006 22.9556 12.9006H25.0442C25.7844 12.9006 26.3864 13.5028 26.3864 14.2429C26.3864 15.0569 26.9146 15.5655 27.4088 15.7703C27.9031 15.975 28.6364 15.9887 29.2118 15.4131C29.7353 14.8899 30.5866 14.8898 31.1101 15.4131L32.587 16.8901C32.8405 17.1435 32.9801 17.4806 32.9801 17.8392C32.9801 18.1978 32.8405 18.5349 32.587 18.7884C32.0114 19.3639 32.0252 20.0971 32.2299 20.5913C32.4346 21.0855 32.9433 21.6137 33.7572 21.6137C34.4974 21.6137 35.0995 22.2158 35.0995 22.9559V25.0444C35.0995 25.7846 34.4973 26.3867 33.7572 26.3867C32.9433 26.3867 32.4347 26.9149 32.2299 27.409C32.0251 27.9033 32.0114 28.6366 32.587 29.212C33.1104 29.7354 33.1104 30.5869 32.587 31.1104L31.1101 32.5873C30.5865 33.1107 29.7352 33.1105 29.2118 32.5873C28.6362 32.0117 27.9032 32.0255 27.4088 32.2301C26.9146 32.4349 26.3864 32.9436 26.3864 33.7576C26.3865 34.4977 25.7844 35.0999 25.0443 35.0999ZM19.9395 30.7825C20.3245 30.7825 20.7153 30.859 21.094 31.0159C22.224 31.4839 22.9259 32.5345 22.9259 33.7576C22.9259 33.774 22.9393 33.7873 22.9556 33.7873H25.0442C25.0521 33.7873 25.0596 33.7841 25.0652 33.7786C25.0708 33.773 25.0739 33.7654 25.0739 33.7576C25.0739 32.5357 25.7761 31.4858 26.9065 31.0175C28.0371 30.5491 29.2759 30.7952 30.14 31.6591C30.1427 31.6619 30.146 31.6641 30.1496 31.6656C30.1532 31.6671 30.1571 31.6679 30.161 31.6679C30.1649 31.6679 30.1688 31.6671 30.1724 31.6656C30.176 31.6641 30.1792 31.6619 30.182 31.6591L31.6589 30.1821C31.6617 30.1794 31.6639 30.1761 31.6654 30.1725C31.6669 30.1689 31.6677 30.165 31.6677 30.1611C31.6677 30.1572 31.6669 30.1534 31.6654 30.1498C31.6639 30.1462 31.6617 30.1429 31.6589 30.1401C30.7949 29.276 30.5491 28.0371 31.0174 26.9067C31.4856 25.7763 32.5354 25.0741 33.7573 25.0741C33.7652 25.074 33.7727 25.0709 33.7783 25.0653C33.7839 25.0598 33.787 25.0522 33.787 25.0444V22.9558C33.787 22.9479 33.7839 22.9404 33.7783 22.9348C33.7727 22.9292 33.7652 22.9261 33.7573 22.9261C32.5355 22.9261 31.4857 22.2239 31.0174 21.0934C30.5491 19.963 30.7949 18.7241 31.6589 17.8601C31.6618 17.8574 31.6641 17.8542 31.6656 17.8505C31.6672 17.8469 31.6679 17.843 31.6677 17.839C31.6679 17.8351 31.6672 17.8312 31.6657 17.8276C31.6642 17.8239 31.6619 17.8207 31.659 17.818L30.182 16.3411C30.1792 16.3383 30.176 16.3361 30.1724 16.3346C30.1688 16.333 30.1649 16.3323 30.161 16.3323C30.1571 16.3323 30.1532 16.333 30.1496 16.3346C30.146 16.3361 30.1427 16.3383 30.14 16.3411C29.2758 17.2051 28.0368 17.4509 26.9065 16.9826C25.7761 16.5144 25.0739 15.4646 25.0739 14.2427C25.0739 14.2348 25.0708 14.2272 25.0652 14.2216C25.0597 14.216 25.0521 14.2129 25.0442 14.2129H22.9556C22.9477 14.2129 22.9402 14.216 22.9346 14.2216C22.929 14.2272 22.9259 14.2348 22.9259 14.2427C22.9259 15.4645 22.2237 16.5143 21.0933 16.9826C19.9628 17.451 18.724 17.2049 17.86 16.3411C17.8573 16.3382 17.854 16.3359 17.8504 16.3344C17.8467 16.3328 17.8428 16.3321 17.8389 16.3323C17.8349 16.3321 17.831 16.3328 17.8274 16.3343C17.8238 16.3358 17.8205 16.3381 17.8179 16.341L16.3409 17.818C16.338 17.8207 16.3357 17.8239 16.3342 17.8275C16.3327 17.8312 16.332 17.8351 16.3321 17.839C16.332 17.843 16.3327 17.8469 16.3342 17.8505C16.3357 17.8542 16.338 17.8574 16.3409 17.8601C17.2048 18.7241 17.4507 19.9631 16.9825 21.0934C16.5143 22.2239 15.4644 22.9261 14.2424 22.9261C14.2345 22.9261 14.227 22.9292 14.2214 22.9348C14.2159 22.9404 14.2127 22.9479 14.2127 22.9558V25.0444C14.2127 25.0608 14.2261 25.0741 14.2424 25.0741C15.4643 25.0741 16.5142 25.7763 16.9825 26.9067C17.4507 28.0372 17.2049 29.2761 16.3409 30.1401C16.3382 30.1429 16.336 30.1462 16.3345 30.1498C16.333 30.1534 16.3322 30.1572 16.3322 30.1611C16.3322 30.165 16.333 30.1689 16.3345 30.1725C16.336 30.1761 16.3382 30.1794 16.3409 30.1821L17.8179 31.6591C17.8205 31.662 17.8238 31.6643 17.8274 31.6658C17.831 31.6673 17.8349 31.668 17.8389 31.6679C17.8428 31.668 17.8467 31.6673 17.8504 31.6658C17.854 31.6643 17.8573 31.662 17.86 31.6591C18.435 31.0842 19.1756 30.7825 19.9395 30.7825ZM24 29.76C20.824 29.76 18.2402 27.176 18.2402 24.0002C18.2402 20.8243 20.824 18.2404 24 18.2404C27.176 18.2404 29.7598 20.8242 29.7598 24.0002C29.7598 27.1761 27.176 29.76 24 29.76ZM24 19.5529C21.5478 19.5529 19.5527 21.5479 19.5527 24.0002C19.5527 26.4525 21.5477 28.4475 24 28.4475C26.4523 28.4475 28.4473 26.4524 28.4473 24.0002C28.4473 21.5479 26.4522 19.5529 24 19.5529Z" fill="#F55B1F"></path><path d="M42.3507 45.8088C42.1767 45.8087 42.0099 45.7395 41.8868 45.6165C41.7638 45.4934 41.6947 45.3265 41.6947 45.1525V43.1373H24C13.4476 43.1373 4.86265 34.5523 4.86265 24C4.86265 19.4751 6.47224 15.0839 9.39499 11.635C9.45659 11.5623 9.53328 11.5039 9.61974 11.4638C9.70619 11.4237 9.80033 11.403 9.89562 11.403H15.6582C15.7977 11.403 15.9337 11.4475 16.0462 11.53C16.1588 11.6125 16.2421 11.7288 16.2841 11.8619C16.326 11.9951 16.3245 12.1381 16.2796 12.2703C16.2347 12.4024 16.1488 12.5168 16.0345 12.5969C12.3127 15.2019 10.0907 19.4648 10.0907 24C10.0907 31.6697 16.3305 37.9094 24.0001 37.9094H41.6948V35.8941C41.6948 35.7613 41.7351 35.6315 41.8104 35.5221C41.8857 35.4127 41.9925 35.3286 42.1166 35.2812C42.2406 35.2337 42.3762 35.225 42.5053 35.2563C42.6345 35.2875 42.7511 35.3572 42.8397 35.4561L46.9888 40.0853C47.0967 40.2057 47.1564 40.3617 47.1564 40.5233C47.1564 40.685 47.0967 40.8409 46.9888 40.9613L42.8397 45.5905C42.7781 45.6592 42.7028 45.7141 42.6185 45.7517C42.5342 45.7894 42.443 45.8088 42.3507 45.8088ZM10.203 12.7156C7.60343 15.8913 6.17515 19.8863 6.17515 24C6.17515 33.8286 14.1714 41.8248 24 41.8248H42.3509C42.525 41.8248 42.6919 41.8939 42.815 42.017C42.938 42.14 43.0072 42.307 43.0072 42.481V43.4371L45.6187 40.5233L43.0072 37.6096V38.5656C43.0072 38.7397 42.938 38.9066 42.815 39.0297C42.6919 39.1527 42.525 39.2219 42.3509 39.2219H24C15.6067 39.2219 8.77812 32.3933 8.77812 24C8.77812 19.6788 10.6211 15.5838 13.7857 12.7156H10.203ZM5.64921 45.8088C5.55696 45.8088 5.46574 45.7893 5.3815 45.7517C5.29726 45.7141 5.22189 45.6592 5.16031 45.5905L1.01131 40.9613C0.903415 40.8409 0.84375 40.685 0.84375 40.5233C0.84375 40.3617 0.903415 40.2057 1.01131 40.0853L5.16031 35.4561C5.24897 35.3572 5.36558 35.2875 5.49471 35.2563C5.62384 35.225 5.75941 35.2337 5.8835 35.2812C6.00759 35.3286 6.11434 35.4127 6.18965 35.5221C6.26496 35.6315 6.30528 35.7613 6.30528 35.8941V37.9094H8.72637C8.90571 37.9094 9.07728 37.9828 9.20112 38.1126C10.6383 39.6197 12.2967 40.8991 14.1192 41.9067C14.2465 41.9771 14.3468 42.0878 14.4044 42.2215C14.4619 42.3551 14.4734 42.5041 14.4371 42.645C14.4007 42.7859 14.3186 42.9107 14.2035 42.9998C14.0885 43.0889 13.9471 43.1373 13.8016 43.1373H6.30528V45.1525C6.30528 45.3265 6.23616 45.4934 6.11313 45.6165C5.9901 45.7395 5.82323 45.8087 5.64921 45.8088ZM2.38118 40.5233L4.99268 43.4371V42.481C4.99268 42.307 5.06182 42.14 5.18489 42.017C5.30796 41.8939 5.47488 41.8248 5.64893 41.8248H11.5139C10.414 41.0533 9.38766 40.182 8.44793 39.2219H5.64903C5.47498 39.2219 5.30806 39.1527 5.18499 39.0297C5.06192 38.9066 4.99278 38.7397 4.99278 38.5656V37.6096L2.38118 40.5233ZM38.1044 36.5969H32.3419C32.2023 36.5969 32.0664 36.5524 31.9538 36.4698C31.8413 36.3873 31.7579 36.271 31.716 36.1379C31.674 36.0048 31.6756 35.8618 31.7205 35.7296C31.7654 35.5974 31.8512 35.483 31.9656 35.403C35.6873 32.7979 37.9092 28.5351 37.9092 23.9999C37.9092 16.3302 31.6695 10.0906 23.9999 10.0906H6.30528V12.1057C6.30528 12.2386 6.26496 12.3683 6.18965 12.4778C6.11434 12.5872 6.00759 12.6712 5.8835 12.7187C5.75941 12.7662 5.62384 12.7748 5.49471 12.7436C5.36558 12.7124 5.24897 12.6427 5.16031 12.5437L1.01131 7.91463C0.903415 7.79425 0.84375 7.63828 0.84375 7.47663C0.84375 7.31498 0.903415 7.15901 1.01131 7.03863L5.16031 2.40944C5.24897 2.3105 5.36558 2.2408 5.49471 2.20956C5.62384 2.17832 5.75941 2.18701 5.8835 2.23448C6.00759 2.28195 6.11434 2.36596 6.18965 2.47541C6.26496 2.58486 6.30528 2.71459 6.30528 2.84744V4.86269H24C34.5523 4.86269 43.1373 13.4477 43.1373 24C43.1373 28.5248 41.5277 32.916 38.6051 36.3649C38.5434 36.4376 38.4668 36.496 38.3803 36.5361C38.2938 36.5761 38.1997 36.5969 38.1044 36.5969ZM34.2144 35.2844H37.797C40.3966 32.1086 41.8248 28.1135 41.8248 24C41.8248 14.1713 33.8287 6.17519 24 6.17519H5.64903C5.47498 6.17519 5.30806 6.10605 5.18499 5.98298C5.06192 5.85991 4.99278 5.69299 4.99278 5.51894V4.56288L2.38128 7.47663L4.99278 10.3904V9.43441C4.99278 9.26036 5.06192 9.09344 5.18499 8.97037C5.30806 8.8473 5.47498 8.77816 5.64903 8.77816H24C32.3934 8.77816 39.2218 15.6066 39.2218 24C39.2218 28.3212 37.379 32.4162 34.2144 35.2844ZM42.3507 12.7621C42.1767 12.762 42.0099 12.6929 41.8868 12.5698C41.7638 12.4467 41.6947 12.2798 41.6947 12.1058V10.0907H39.2737C39.1849 10.0907 39.097 10.0727 39.0154 10.0377C38.9338 10.0028 38.8601 9.95159 38.7988 9.88732C37.3617 8.38018 35.7034 7.10078 33.8809 6.09316C33.7535 6.02279 33.6532 5.91207 33.5956 5.77842C33.538 5.64478 33.5265 5.49579 33.5629 5.35489C33.5993 5.214 33.6814 5.08918 33.7965 5.00008C33.9115 4.91098 34.0529 4.86265 34.1984 4.86269H41.6947V2.84744C41.6947 2.71459 41.735 2.58486 41.8103 2.47541C41.8856 2.36596 41.9924 2.28195 42.1165 2.23448C42.2405 2.18701 42.3761 2.17832 42.5052 2.20956C42.6344 2.2408 42.751 2.3105 42.8396 2.40944L46.9887 7.03863C47.0966 7.15901 47.1563 7.31498 47.1563 7.47663C47.1563 7.63828 47.0966 7.79425 46.9887 7.91463L42.8396 12.5438C42.7781 12.6125 42.7027 12.6675 42.6185 12.7051C42.5342 12.7427 42.443 12.7621 42.3507 12.7621ZM39.5521 8.77816H42.3509C42.525 8.77816 42.6919 8.8473 42.815 8.97037C42.938 9.09344 43.0072 9.26036 43.0072 9.43441V10.3904L45.6187 7.47663L43.0072 4.56288V5.51894C43.0072 5.69299 42.938 5.85991 42.815 5.98298C42.6919 6.10605 42.525 6.17519 42.3509 6.17519H36.486C37.5861 6.94654 38.6125 7.8179 39.5521 8.77816Z" fill="#F55B1F"></path></svg>