<svg xmlns="http://www.w3.org/2000/svg" width="40" height="40" viewBox="0 0 40 40" fill="none"><path d="M0.190048 38.9811L8.4645 30.9066C8.23594 30.3599 8.11851 29.7731 8.11903 29.1805V9.88797C8.11903 7.40742 10.1298 5.39664 12.6104 5.39664H19.4761V4.27945C18.6468 4.13016 18.0154 3.40352 18.0154 2.5318V1.18773H16.9473C15.9093 1.18773 15.0679 2.02922 15.0679 3.06719V3.35602C15.0679 3.68125 14.8173 3.96477 14.4923 3.97453C14.4128 3.97698 14.3337 3.96344 14.2595 3.93471C14.1853 3.90598 14.1177 3.86265 14.0606 3.80729C14.0035 3.75193 13.9581 3.68566 13.9271 3.61242C13.8961 3.53918 13.8801 3.46047 13.8801 3.38094V3.06711C13.8801 1.3732 15.2534 0 16.9473 0H23.3916C25.0855 0 26.4588 1.37328 26.4588 3.06719V3.35602C26.4588 3.68125 26.2083 3.96477 25.8833 3.97453C25.8038 3.97698 25.7246 3.96344 25.6504 3.93471C25.5763 3.90598 25.5086 3.86265 25.4515 3.80729C25.3944 3.75193 25.3491 3.68566 25.318 3.61242C25.287 3.53918 25.2711 3.46047 25.2711 3.38094V3.06711C25.2711 2.02914 24.4296 1.18766 23.3916 1.18766H22.3235V2.5318C22.3235 3.47211 21.5891 4.24352 20.664 4.30391V5.3968H22.1022C22.2597 5.3968 22.4107 5.45936 22.5221 5.57073C22.6334 5.68209 22.696 5.83313 22.696 5.99062C22.696 6.14812 22.6334 6.29916 22.5221 6.41052C22.4107 6.52189 22.2597 6.58445 22.1022 6.58445H12.6104C10.7858 6.58445 9.30677 8.06359 9.30677 9.88805V29.1805C9.30677 31.005 10.7859 32.4841 12.6104 32.4841H15.8344V31.5609C15.8344 30.2953 16.8604 29.2694 18.126 29.2694H22.2127C23.4783 29.2694 24.5043 30.2954 24.5043 31.5609V32.4841H27.7284C29.553 32.4841 31.032 31.0049 31.032 29.1805V9.88797C31.032 8.06336 29.5529 6.58437 27.7284 6.58437H24.8734C24.7159 6.58437 24.5649 6.52181 24.4535 6.41045C24.3421 6.29908 24.2796 6.14804 24.2796 5.99055C24.2796 5.83305 24.3421 5.68201 24.4535 5.57065C24.5649 5.45928 24.7159 5.39672 24.8734 5.39672H27.7284C30.209 5.39672 32.2197 7.4075 32.2197 9.88805V29.1805C32.2201 29.8152 32.0851 30.4427 31.8236 31.021L39.8183 38.8227C39.9305 38.9329 39.9944 39.083 39.9961 39.2402C39.9977 39.3973 39.937 39.5488 39.8272 39.6613C39.7174 39.7738 39.5675 39.8382 39.4104 39.8403C39.2532 39.8425 39.1016 39.7822 38.9887 39.6728L31.1793 32.0516C30.8863 32.4029 30.5417 32.7076 30.1573 32.9555L34.5795 38.893C34.6452 38.9813 34.6851 39.0861 34.6948 39.1957C34.7044 39.3054 34.6834 39.4155 34.634 39.5139C34.5847 39.6123 34.5089 39.695 34.4153 39.7529C34.3217 39.8108 34.2138 39.8415 34.1037 39.8416C33.9225 39.8416 33.7436 39.7589 33.627 39.6023L32.4768 38.058H7.65067L6.38239 39.7607C6.32714 39.835 6.25523 39.8954 6.17245 39.9369C6.08966 39.9785 5.9983 40 5.90567 39.9999C5.77052 39.9999 5.63411 39.954 5.5213 39.8584C5.27974 39.6536 5.25278 39.289 5.44193 39.035L10.0407 32.8606C9.68044 32.6082 9.35891 32.3047 9.08622 31.9595L1.01966 39.8311C0.908859 39.9395 0.759972 40.0001 0.604973 39.9999C0.525734 40 0.447281 39.9842 0.374264 39.9535C0.301247 39.9227 0.235149 39.8776 0.179893 39.8208C0.125393 39.765 0.0824203 39.699 0.0534325 39.6266C0.0244446 39.5542 0.0100098 39.4768 0.010952 39.3988C0.0118942 39.3209 0.0281982 39.2438 0.0589294 39.1721C0.0896606 39.1005 0.134216 39.0355 0.190048 38.9811ZM20.5473 3.12047C20.8718 3.12039 21.1358 2.85641 21.1358 2.53188V1.18773H19.2032V2.53188C19.2032 2.85641 19.4672 3.12047 19.7918 3.12047H20.5473ZM23.3167 31.5609C23.3167 30.9522 22.8215 30.457 22.2128 30.457H18.1261C17.5173 30.457 17.0222 30.9523 17.0222 31.5609V32.4841H23.3166V31.5609H23.3167ZM8.53513 36.8704H31.5922L29.0599 33.4704C28.6288 33.6042 28.18 33.6721 27.7286 33.6718H12.6104C12.0992 33.672 11.5917 33.5845 11.1101 33.4132L8.53513 36.8704Z" fill="white"></path><path d="M11.1427 10.6232H17.2598C17.5357 9.26969 18.7353 8.24805 20.1691 8.24805C21.603 8.24805 22.8026 9.26961 23.0785 10.6232H29.1952C29.2731 10.6232 29.3504 10.6385 29.4224 10.6684C29.4945 10.6982 29.5599 10.742 29.6151 10.7971C29.6702 10.8523 29.714 10.9177 29.7438 10.9898C29.7736 11.0618 29.789 11.139 29.789 11.217V22.6191C29.789 22.6971 29.7736 22.7744 29.7438 22.8464C29.714 22.9185 29.6702 22.9839 29.6151 23.0391C29.5599 23.0942 29.4945 23.1379 29.4224 23.1678C29.3504 23.1976 29.2731 23.213 29.1952 23.213H17.6678C17.5103 23.213 17.3593 23.1504 17.2479 23.039C17.1365 22.9277 17.074 22.7766 17.074 22.6191C17.074 22.4616 17.1365 22.3106 17.2479 22.1992C17.3593 22.0879 17.5103 22.0253 17.6678 22.0253H28.6014V11.8109H23.0787C22.8029 13.1646 21.6031 14.1865 20.1692 14.1865C18.7353 14.1865 17.5355 13.1647 17.2598 11.8109H11.7366V22.0253H14.8966C15.0541 22.0253 15.2051 22.0879 15.3165 22.1992C15.4278 22.3106 15.4904 22.4616 15.4904 22.6191C15.4904 22.7766 15.4278 22.9277 15.3165 23.039C15.2051 23.1504 15.0541 23.213 14.8966 23.213H11.1428C11.0648 23.213 10.9876 23.1976 10.9156 23.1678C10.8435 23.1379 10.778 23.0942 10.7229 23.0391C10.6677 22.9839 10.624 22.9185 10.5942 22.8464C10.5643 22.7744 10.549 22.6971 10.549 22.6191V11.217H10.5489C10.5489 11.139 10.5642 11.0618 10.5941 10.9898C10.6239 10.9177 10.6677 10.8523 10.7228 10.7971C10.778 10.742 10.8434 10.6982 10.9155 10.6684C10.9875 10.6385 11.0647 10.6232 11.1427 10.6232ZM20.1692 12.9987C21.1516 12.9987 21.9507 12.1995 21.9507 11.2172C21.9507 10.2348 21.1516 9.4357 20.1692 9.4357C19.1869 9.4357 18.3877 10.2348 18.3877 11.2172C18.3877 12.1995 19.1869 12.9987 20.1692 12.9987ZM24.5452 24.2423H29.1952C29.2732 24.2423 29.3504 24.2577 29.4225 24.2875C29.4945 24.3174 29.56 24.3611 29.6152 24.4162C29.6703 24.4714 29.714 24.5369 29.7439 24.6089C29.7737 24.681 29.7891 24.7582 29.7891 24.8362V27.2112C29.7891 27.2892 29.7737 27.3664 29.7439 27.4384C29.714 27.5105 29.6703 27.576 29.6152 27.6311C29.56 27.6862 29.4945 27.73 29.4225 27.7598C29.3504 27.7897 29.2732 27.805 29.1952 27.805H24.5452C24.4672 27.805 24.39 27.7897 24.318 27.7598C24.2459 27.73 24.1805 27.6862 24.1253 27.6311C24.0702 27.576 24.0264 27.5105 23.9966 27.4384C23.9667 27.3664 23.9514 27.2892 23.9514 27.2112V24.8362C23.9514 24.6787 24.014 24.5277 24.1254 24.4163C24.2367 24.3049 24.3877 24.2424 24.5452 24.2423ZM25.1391 26.6173H28.6014V25.4301H25.1391V26.6173ZM11.1427 24.2423H15.7928C15.8708 24.2423 15.948 24.2577 16.0201 24.2875C16.0921 24.3174 16.1576 24.3611 16.2127 24.4162C16.2679 24.4714 16.3116 24.5369 16.3415 24.6089C16.3713 24.681 16.3867 24.7582 16.3866 24.8362V27.2112C16.3867 27.2892 16.3713 27.3664 16.3415 27.4384C16.3116 27.5105 16.2679 27.576 16.2127 27.6311C16.1576 27.6862 16.0921 27.73 16.0201 27.7598C15.948 27.7897 15.8708 27.805 15.7928 27.805H11.1427C11.0647 27.805 10.9875 27.7897 10.9155 27.7598C10.8434 27.73 10.778 27.6862 10.7228 27.6311C10.6677 27.576 10.6239 27.5105 10.5941 27.4384C10.5642 27.3664 10.5489 27.2892 10.5489 27.2112V24.8362C10.5489 24.7582 10.5642 24.681 10.5941 24.6089C10.6239 24.5369 10.6677 24.4714 10.7228 24.4162C10.778 24.3611 10.8434 24.3174 10.9155 24.2875C10.9875 24.2577 11.0647 24.2423 11.1427 24.2423ZM11.7366 26.6173H15.1989V25.4301H11.7366V26.6173Z" fill="white"></path></svg>