<svg xmlns="http://www.w3.org/2000/svg" width="40" height="40" viewBox="0 0 40 40" fill="none"><path d="M31.5273 9.11719H8.48047V20.6406H31.5273V9.11719ZM19.3633 19.3594H9.76172V10.3984H19.3633V19.3594ZM30.2461 19.3594H20.6445V10.3984H30.2461V19.3594ZM11.043 25.7578C9.27734 25.7578 7.83984 27.1953 7.83984 28.9609C7.83984 30.7266 9.27734 32.1641 11.043 32.1641C12.8086 32.1641 14.2461 30.7266 14.2461 28.9609C14.2461 27.1953 12.8086 25.7578 11.043 25.7578ZM11.043 30.8828C9.98047 30.8828 9.12109 30.0234 9.12109 28.9609C9.12109 27.8984 9.98047 27.0391 11.043 27.0391C12.1055 27.0391 12.9648 27.8984 12.9648 28.9609C12.9648 30.0234 12.0977 30.8828 11.043 30.8828ZM28.9648 25.7578C27.1992 25.7578 25.7617 27.1953 25.7617 28.9609C25.7617 30.7266 27.1992 32.1641 28.9648 32.1641C30.7305 32.1641 32.168 30.7266 32.168 28.9609C32.168 27.1953 30.7305 25.7578 28.9648 25.7578ZM28.9648 30.8828C27.9023 30.8828 27.043 30.0234 27.043 28.9609C27.043 27.8984 27.9023 27.0391 28.9648 27.0391C30.0273 27.0391 30.8867 27.8984 30.8867 28.9609C30.8867 30.0234 30.0273 30.8828 28.9648 30.8828ZM15.5195 31.5234H24.4805V26.4062H15.5195V31.5234ZM16.8008 27.6797H23.207V30.2422H16.8008V27.6797Z" fill="white"></path><path d="M39.207 20.6406V11.6797H35.3633V10.6797C35.3633 7.35156 33.0742 4.51562 29.793 3.78906C28.6758 3.53906 27.543 3.35156 26.4023 3.19531V2.07812C26.4023 1.01562 25.543 0.15625 24.4805 0.15625H15.5195C14.457 0.15625 13.5977 1.01562 13.5977 2.07812V3.1875C12.4648 3.35156 11.332 3.53906 10.207 3.78125C6.92578 4.50781 4.63672 7.34375 4.63672 10.6719V11.6719H0.800781V20.6328H4.64453V25.8828C4.64453 26.3906 4.39453 26.8594 3.97266 27.1406C3.19141 27.6641 2.73047 28.5312 2.73047 29.4688V33.4375C2.73047 35.2031 4.16797 36.6406 5.93359 36.6406H6.57422V37.9219C6.57422 38.9844 7.43359 39.8438 8.49609 39.8438H11.0586C12.1211 39.8438 12.9805 38.9844 12.9805 37.9219V36.6406H27.0664V37.9219C27.0664 38.9844 27.9258 39.8438 28.9883 39.8438H31.5508C32.6133 39.8438 33.4727 38.9844 33.4727 37.9219V36.6406H34.1133C35.8789 36.6406 37.3164 35.2031 37.3164 33.4375V29.4688C37.3164 28.5312 36.8477 27.6641 36.0742 27.1406C35.6523 26.8594 35.4023 26.3906 35.4023 25.8828V20.6328H39.207V20.6406ZM35.3633 12.9609H37.9258V19.3594H35.3633V12.9609ZM14.8867 2.07812C14.8867 1.72656 15.1758 1.4375 15.5273 1.4375H24.4883C24.8398 1.4375 25.1289 1.72656 25.1289 2.07812V3.01562C21.7305 2.63281 18.2852 2.63281 14.8867 3.01562V2.07812ZM2.08203 19.3594V12.9609H4.64453V19.3594H2.08203ZM11.6836 37.9219C11.6836 38.2734 11.3945 38.5625 11.043 38.5625H8.48047C8.12891 38.5625 7.83984 38.2734 7.83984 37.9219V36.6406H11.6836V37.9219ZM32.168 37.9219C32.168 38.2734 31.8789 38.5625 31.5273 38.5625H28.9648C28.6133 38.5625 28.3242 38.2734 28.3242 37.9219V36.6406H32.168V37.9219ZM36.0039 29.4766V33.4453C36.0039 34.5078 35.1445 35.3672 34.082 35.3672H5.91797C4.85547 35.3672 3.99609 34.5078 3.99609 33.4453V29.4766C3.99609 28.9688 4.24609 28.5 4.66797 28.2188C5.44922 27.6953 5.91016 26.8281 5.91016 25.8906V10.6719C5.91016 7.94531 7.79297 5.625 10.4805 5.03125C13.5977 4.34375 16.8008 3.99219 19.9961 3.99219C23.1914 3.99219 26.3945 4.34375 29.5117 5.03125C32.1992 5.625 34.082 7.94531 34.082 10.6719V25.8828C34.082 26.8203 34.5508 27.6875 35.3242 28.2109C35.7539 28.4922 36.0039 28.9688 36.0039 29.4766Z" fill="white"></path></svg>