<svg xmlns="http://www.w3.org/2000/svg" width="13" height="14" viewBox="0 0 13 14" fill="none"><path d="M9.89361 9.41703C9.22284 9.41703 8.61849 9.70668 8.19906 10.1675L4.42637 7.83088C4.52995 7.56611 4.58305 7.28429 4.58294 6.99999C4.58307 6.71568 4.52997 6.43386 4.42637 6.16909L8.19906 3.83238C8.61851 4.29318 9.22284 4.58297 9.89361 4.58297C11.1572 4.58297 12.1851 3.55501 12.1851 2.29143C12.1851 1.02785 11.1572 0 9.89361 0C8.63005 0 7.60209 1.02796 7.60209 2.29154C7.60204 2.57583 7.65514 2.85763 7.75866 3.1224L3.98608 5.45903C3.56663 4.99824 2.96231 4.70845 2.29154 4.70845C1.02796 4.70845 0 5.73652 0 6.99999C0 8.26354 1.02796 9.29152 2.29154 9.29152C2.96228 9.29152 3.56666 9.00185 3.98608 8.54094L7.75869 10.8776C7.65515 11.1424 7.60204 11.4242 7.60209 11.7085C7.60209 12.972 8.63003 14 9.89361 14C11.1572 14 12.1851 12.972 12.1851 11.7086C12.1851 10.445 11.1572 9.41703 9.89361 9.41703ZM8.43766 2.29154C8.43766 1.48873 9.09082 0.835596 9.89361 0.835596C10.6964 0.835596 11.3495 1.48873 11.3495 2.29154C11.3495 3.09435 10.6964 3.74748 9.89361 3.74748C9.09079 3.74748 8.43766 3.09432 8.43766 2.29154ZM2.29154 8.45593C1.48862 8.45593 0.835487 7.80277 0.835487 6.99999C0.835487 6.1972 1.48862 5.54404 2.29154 5.54404C3.09435 5.54404 3.74737 6.1972 3.74737 6.99999C3.74737 7.80277 3.09432 8.45593 2.29154 8.45593ZM8.43766 11.7085C8.43766 10.9057 9.09082 10.2525 9.89361 10.2525C10.6964 10.2525 11.3495 10.9057 11.3495 11.7084C11.3495 12.5112 10.6964 13.1644 9.89361 13.1644C9.09079 13.1644 8.43766 12.5112 8.43766 11.7084V11.7085Z" fill="#F55B1F"></path></svg>