<svg width="132" height="129" viewBox="0 0 132 129" fill="none" xmlns="http://www.w3.org/2000/svg">
<g filter="url(#filter0_b_17094_18435)">
<rect x="131.012" y="0.75" width="127.5" height="130.023" rx="63.75" transform="rotate(90 131.012 0.75)" stroke="white" stroke-width="0.5"/>
</g>
<path d="M64.8465 106.767L63.9656 117.066L59.9695 116.728C59.8689 116.719 59.7567 116.705 59.6329 116.685C59.504 116.669 59.3758 116.644 59.2485 116.609C58.714 116.482 58.2725 116.255 57.9241 115.928C57.5704 115.605 57.3167 115.214 57.163 114.754C57.0045 114.294 56.9483 113.795 56.9943 113.256C57.04 112.722 57.18 112.241 57.4144 111.815C57.6488 111.388 57.9679 111.043 58.3717 110.779C58.7703 110.52 59.2414 110.372 59.785 110.337C59.916 110.329 60.0466 110.325 60.1768 110.327C60.3022 110.328 60.4152 110.333 60.5158 110.341L63.4554 110.59L63.79 106.678L64.8465 106.767ZM63.3697 111.591L60.4589 111.345C60.3727 111.338 60.2716 111.334 60.1558 111.334C60.04 111.333 59.926 111.341 59.8137 111.355C59.4526 111.401 59.1503 111.522 58.9068 111.718C58.6584 111.913 58.4665 112.153 58.331 112.44C58.1907 112.726 58.1069 113.028 58.0796 113.348C58.0523 113.667 58.0835 113.98 58.1732 114.285C58.2577 114.595 58.4058 114.866 58.6174 115.101C58.8243 115.334 59.1017 115.504 59.4498 115.61C59.5579 115.644 59.6693 115.667 59.7839 115.682C59.8981 115.701 59.9983 115.715 60.0845 115.722L62.9954 115.968L63.3697 111.591Z" fill="white"/>
<path d="M56.4933 105.826L53.876 115.828L52.8499 115.562L55.2109 106.539L50.4363 105.302L50.6926 104.323L56.4933 105.826Z" fill="white"/>
<path d="M50.1138 104.019L42.5752 111.971L41.2935 111.394L42.3118 100.509L43.3174 100.962L42.3785 111.236L41.9972 111.065L49.1081 103.566L50.1138 104.019ZM47.6243 105.648L47.2142 106.551L42.324 104.351L42.734 103.448L47.6243 105.648Z" fill="white"/>
<path d="M40.4291 99.5317L37.9935 103.118L37.4991 110.037L36.4832 109.353L36.8726 103.819L31.8695 106.25L30.8536 105.567L37.109 102.523L39.5446 98.9368L40.4291 99.5317Z" fill="white"/>
<path d="M31.5403 90.4666L23.1891 96.6127L22.5586 95.7644L30.9098 89.6183L31.5403 90.4666Z" fill="white"/>
<path d="M29.0338 87.0978L19.759 91.7511L19.2784 90.8025L24.3034 81.9068L16.7032 85.72L16.2225 84.7714L25.4974 80.1181L25.978 81.0667L20.9465 89.9656L28.5532 86.1492L29.0338 87.0978Z" fill="white"/>
<path d="M24.7801 77.5231L15.8209 80.2534L16.8833 83.7056L15.9108 84.0019L13.4754 76.0887L14.4479 75.7923L15.5104 79.2445L24.4696 76.5142L24.7801 77.5231Z" fill="white"/>
<path d="M23.5238 73.3564L13.2209 74.6692L12.7115 70.7107C12.6986 70.611 12.689 70.4989 12.6827 70.3742C12.671 70.2455 12.6688 70.1155 12.6762 69.9843C12.6882 69.4376 12.8183 68.9603 13.0664 68.5524C13.3091 68.1404 13.64 67.8112 14.0592 67.5648C14.4778 67.3137 14.9565 67.1538 15.4955 67.0851C16.273 66.986 16.9742 67.1041 17.5991 67.4393C18.224 67.7746 18.6593 68.3125 18.9049 69.0531L19.0375 69.4053L19.4754 72.8085L23.3891 72.3098L23.5238 73.3564ZM22.7248 67.148L18.7923 69.7043L18.2768 68.7496L22.57 65.9448L22.7248 67.148ZM18.4737 72.9361L18.1027 70.0527C18.0917 69.9672 18.0741 69.8681 18.0499 69.7555C18.0257 69.6428 17.9946 69.5333 17.9567 69.4272C17.8352 69.0857 17.6528 68.8171 17.4094 68.6213C17.1655 68.4209 16.8886 68.2849 16.5788 68.2134C16.2684 68.1372 15.9534 68.1194 15.6339 68.1601C15.3143 68.2009 15.014 68.297 14.7329 68.4486C14.4464 68.5961 14.2105 68.7974 14.0252 69.0526C13.8393 69.303 13.7308 69.6087 13.6996 69.9697C13.6898 70.0819 13.6899 70.1952 13.6998 70.3098C13.7049 70.4249 13.7129 70.5252 13.7239 70.6106L14.095 73.4941L18.4737 72.9361Z" fill="white"/>
<path d="M22.988 62.3354C22.9442 63.3633 22.6789 64.2214 22.1923 64.9097C21.7008 65.5978 21.0414 66.1063 20.2139 66.4353C19.3864 66.7644 18.4418 66.9064 17.38 66.8616C16.3182 66.8167 15.3891 66.5954 14.5927 66.1977C13.7962 65.8001 13.1849 65.2378 12.7587 64.5109C12.3276 63.7839 12.1341 62.9064 12.178 61.8785C12.222 60.8458 12.4897 59.9878 12.9809 59.3046C13.4676 58.6163 14.1246 58.1076 14.9521 57.7786C15.7798 57.4448 16.7245 57.3003 17.7863 57.3452C18.8481 57.3901 19.7771 57.6138 20.5733 58.0162C21.3698 58.4139 21.9835 58.9762 22.4145 59.7033C22.8409 60.4254 23.0321 61.3028 22.988 62.3354ZM21.9719 62.2925C22.0064 61.4845 21.8502 60.8026 21.5033 60.2467C21.1564 59.6908 20.6596 59.2651 20.0128 58.9696C19.3614 58.669 18.6033 58.5005 17.7385 58.4639C16.8737 58.4274 16.1064 58.5314 15.4365 58.7761C14.7669 59.016 14.2356 59.3983 13.8426 59.9229C13.4496 60.4475 13.2334 61.1137 13.1941 61.9214C13.1596 62.7294 13.3159 63.409 13.663 63.96C14.0101 64.5111 14.5093 64.937 15.1607 65.2375C15.8075 65.5331 16.5632 65.7015 17.4278 65.7428C18.2924 65.7842 19.0595 65.6849 19.7292 65.445C20.3942 65.2001 20.9256 64.8154 21.3234 64.291C21.7164 63.7664 21.9326 63.1003 21.9719 62.2925Z" fill="white"/>
<path d="M25.6727 48.7272L14.7007 48.1768L15.1122 47.1578L24.8131 47.6409L17.4816 41.2902L17.8931 40.2712L26.1971 47.4285L25.6727 48.7272Z" fill="white"/>
<path d="M28.8848 42.2003L20.04 36.781L20.5959 35.8826L29.4408 41.3018L28.8848 42.2003Z" fill="white"/>
<path d="M31.003 38.7321L23.2057 31.9033L25.2883 29.5487C25.3614 29.4661 25.4871 29.3276 25.6654 29.1332C25.847 28.9352 26.0314 28.7556 26.2187 28.5946C26.8227 28.0782 27.4782 27.7789 28.185 27.6968C28.8919 27.6146 29.6088 27.7166 30.3359 28.0027C31.0629 28.2889 31.7586 28.7228 32.4228 29.3045C33.087 29.8862 33.6079 30.5177 33.9854 31.199C34.363 31.8802 34.5557 32.5749 34.5636 33.283C34.5715 33.9912 34.3565 34.6761 33.9185 35.338C33.7813 35.5365 33.6257 35.7414 33.4519 35.9524C33.2744 36.1603 33.1523 36.302 33.0856 36.3774L31.003 38.7321ZM30.9639 37.2444L32.3221 35.7088C32.4523 35.5615 32.5885 35.4003 32.7306 35.2252C32.8723 35.0432 32.9845 34.8802 33.0673 34.7359C33.3882 34.2137 33.5265 33.6879 33.4824 33.1584C33.4414 32.6253 33.2615 32.1044 32.9427 31.5957C32.6203 31.0839 32.1992 30.6003 31.6793 30.1451C31.1559 29.6866 30.6186 29.3308 30.0675 29.0776C29.5163 28.8244 28.9742 28.713 28.4412 28.7434C27.9082 28.7739 27.4035 28.9788 26.9269 29.3583C26.7936 29.4583 26.6455 29.5931 26.4826 29.7628C26.3193 29.9257 26.1757 30.0773 26.0518 30.2173L24.6936 31.753L30.9639 37.2444Z" fill="white"/>
<path d="M36.433 32.7416L29.9077 24.6998L34.9586 20.6415L35.5975 21.4289L31.3716 24.8244L33.6283 27.6055L37.1808 24.7512L37.8197 25.5386L34.2672 28.3929L36.6191 31.2913L40.845 27.8959L41.4839 28.6833L36.433 32.7416Z" fill="white"/>
<path d="M45.2434 26.7819C44.3408 27.2836 43.4674 27.5088 42.6233 27.4573C41.7768 27.4016 40.9959 27.1095 40.2805 26.5808C39.5651 26.0522 38.9482 25.3263 38.4299 24.403C37.9117 23.4798 37.6139 22.5765 37.5366 21.6931C37.4593 20.8098 37.6199 19.9969 38.0184 19.2547C38.4146 18.5082 39.064 17.8842 39.9666 17.3824C40.8734 16.8783 41.748 16.6553 42.5902 16.7133C43.4344 16.7647 44.2141 17.0548 44.9295 17.5834C45.6491 18.1098 46.2681 18.8345 46.7864 19.7578C47.3047 20.681 47.6004 21.5855 47.6735 22.4712C47.7507 23.3545 47.5913 24.1694 47.1951 24.9159C46.8008 25.6558 46.1502 26.2778 45.2434 26.7819ZM44.7474 25.8983C45.4569 25.5039 45.9585 25.014 46.2523 24.4287C46.5461 23.8433 46.65 23.1991 46.5638 22.4961C46.4794 21.7866 46.2262 21.0558 45.804 20.3039C45.3819 19.5519 44.8905 18.9563 44.3299 18.517C43.7735 18.0753 43.1678 17.8255 42.5129 17.7676C41.8579 17.7096 41.1745 17.8757 40.4626 18.266C39.7532 18.6604 39.2536 19.1491 38.964 19.7321C38.6744 20.3152 38.5718 20.9615 38.6561 21.671C38.7423 22.374 38.9944 23.1026 39.4123 23.8569C39.8303 24.6112 40.3174 25.2092 40.8738 25.6508C41.4321 26.0859 42.0399 26.3346 42.6972 26.3967C43.3521 26.4547 44.0356 26.2885 44.7474 25.8983Z" fill="white"/>
<path d="M55.9414 18.1949L55.7878 17.3035L60.0535 16.5757L60.2071 17.4671L55.9414 18.1949Z" fill="white"/>
<path d="M70.1281 21.2801L71.8835 11.0928L75.8364 11.7672C75.9359 11.7842 76.0465 11.8079 76.1681 11.8384C76.2952 11.8649 76.4208 11.9009 76.5447 11.9463C77.0664 12.1179 77.487 12.3814 77.8063 12.7369C78.1311 13.0885 78.3506 13.4998 78.4646 13.9708C78.5833 14.4425 78.5968 14.9449 78.5049 15.4779C78.4139 16.0061 78.2334 16.4729 77.9635 16.8784C77.6936 17.2839 77.3463 17.6009 76.9214 17.8294C76.5022 18.054 76.0202 18.1611 75.4756 18.1507C75.3443 18.1478 75.2139 18.1401 75.0843 18.1277C74.9595 18.1161 74.8473 18.1018 74.7478 18.0848L71.84 17.5887L71.1732 21.4584L70.1281 21.2801ZM72.0107 16.5982L74.89 17.0895C74.9753 17.1041 75.0756 17.1163 75.191 17.1263C75.3064 17.1363 75.4206 17.1388 75.5337 17.1338C75.8974 17.1182 76.209 17.0233 76.4683 16.849C76.7324 16.6756 76.9441 16.452 77.1035 16.1782C77.2677 15.9052 77.377 15.6107 77.4314 15.2947C77.4859 14.9787 77.4814 14.6648 77.418 14.353C77.3602 14.0372 77.2358 13.7538 77.0449 13.5028C76.8587 13.2525 76.5968 13.0598 76.259 12.9244C76.1541 12.8823 76.0451 12.8491 75.9322 12.825C75.8201 12.7961 75.7214 12.7744 75.636 12.7599L72.7567 12.2686L72.0107 16.5982Z" fill="white"/>
<path d="M78.3715 22.9238L81.8318 13.1781L82.8316 13.5297L79.7101 22.321L84.3621 23.9566L84.0233 24.9108L78.3715 22.9238Z" fill="white"/>
<path d="M83.7047 24.734L91.8938 17.4468L93.1218 18.1294L91.1795 28.8892L90.2161 28.3536L92.0273 18.1951L92.3925 18.3982L84.6682 25.2696L83.7047 24.734ZM86.3241 23.3207L86.8096 22.4559L91.4947 25.0603L91.0093 25.9251L86.3241 23.3207Z" fill="white"/>
<path d="M92.9343 30.4735L95.6668 27.106L96.749 20.2537L97.703 21.0203L96.8434 26.5014L102.036 24.5014L102.99 25.268L96.4974 27.7733L93.7649 31.1408L92.9343 30.4735Z" fill="white"/>
<path d="M102.749 41.303L111.594 35.8838L112.15 36.7822L103.305 42.2015L102.749 41.303Z" fill="white"/>
<path d="M104.957 44.8713L114.595 41.0174L114.994 42.0031L109.228 50.4427L117.126 47.2847L117.524 48.2704L107.886 52.1242L107.488 51.1385L113.26 42.6963L105.356 45.857L104.957 44.8713Z" fill="white"/>
<path d="M108.38 54.7703L117.54 52.8059L116.776 49.2765L117.77 49.0633L119.522 57.1536L118.528 57.3668L117.763 53.8374L108.604 55.8017L108.38 54.7703Z" fill="white"/>
<path d="M109.276 59.028L119.654 58.5893L119.824 62.5766C119.829 62.677 119.829 62.7895 119.824 62.9142C119.825 63.0435 119.816 63.1732 119.798 63.3033C119.739 63.847 119.569 64.3116 119.287 64.6971C119.01 65.0872 118.652 65.3873 118.213 65.5974C117.775 65.8123 117.284 65.9312 116.741 65.9542C115.958 65.9873 115.27 65.8104 114.675 65.4237C114.081 65.0369 113.694 64.4642 113.512 63.7055L113.41 63.3434L113.263 59.9155L109.321 60.0822L109.276 59.028ZM109.543 65.2814L113.68 63.0662L114.112 64.0609L109.595 66.4933L109.543 65.2814ZM114.272 59.8729L114.396 62.7773C114.4 62.8633 114.409 62.9635 114.424 63.0779C114.438 63.1922 114.46 63.3038 114.489 63.4128C114.58 63.7633 114.739 64.0464 114.965 64.2619C115.191 64.4823 115.455 64.6411 115.758 64.7385C116.061 64.8406 116.373 64.8849 116.695 64.8713C117.017 64.8577 117.324 64.7872 117.617 64.6599C117.915 64.5371 118.168 64.3565 118.374 64.1178C118.581 63.884 118.715 63.5886 118.777 63.2315C118.796 63.1205 118.805 63.0076 118.805 62.8926C118.81 62.7775 118.811 62.6769 118.807 62.5908L118.683 59.6865L114.272 59.8729Z" fill="white"/>
<path d="M108.872 70.0545C109.003 69.034 109.341 68.2014 109.884 67.5567C110.432 66.9126 111.133 66.4615 111.985 66.2035C112.838 65.9455 113.791 65.8836 114.845 66.018C115.9 66.1523 116.806 66.4512 117.566 66.9146C118.326 67.3781 118.887 67.9899 119.25 68.7501C119.617 69.5109 119.735 70.4016 119.604 71.4221C119.472 72.4473 119.132 73.2796 118.585 73.919C118.041 74.5637 117.343 75.0151 116.491 75.2731C115.637 75.5359 114.684 75.6001 113.63 75.4658C112.575 75.3314 111.669 75.0302 110.91 74.562C110.15 74.0985 109.587 73.4864 109.219 72.7256C108.856 71.9701 108.74 71.0798 108.872 70.0545ZM109.881 70.1831C109.777 70.9852 109.875 71.6779 110.173 72.261C110.472 72.8442 110.93 73.3103 111.55 73.6593C112.173 74.0138 112.914 74.2457 113.773 74.3551C114.631 74.4645 115.405 74.4256 116.093 74.2383C116.781 74.0557 117.343 73.7197 117.779 73.2302C118.215 72.7406 118.487 72.0951 118.595 71.2935C118.698 70.4914 118.601 69.8011 118.302 69.2227C118.003 68.6443 117.542 68.1779 116.918 67.8235C116.299 67.4744 115.56 67.2428 114.703 67.1286C113.845 67.0145 113.072 67.0487 112.384 67.2312C111.701 67.4191 111.138 67.7575 110.697 68.2464C110.261 68.736 109.989 69.3815 109.881 70.1831Z" fill="white"/>
<path d="M105.036 83.387L115.921 84.8614L115.424 85.842L105.8 84.542L112.563 91.4885L112.067 92.4691L104.402 84.6368L105.036 83.387Z" fill="white"/>
<path d="M101.279 89.6195L109.631 95.7656L109 96.6139L100.649 90.4678L101.279 89.6195Z" fill="white"/>
<path d="M98.8733 92.8966L106.06 100.359L103.785 102.529C103.705 102.605 103.568 102.733 103.374 102.911C103.176 103.093 102.977 103.257 102.776 103.401C102.131 103.865 101.452 104.108 100.741 104.13C100.029 104.152 99.3236 103.99 98.6236 103.644C97.9236 103.297 97.2674 102.806 96.6552 102.17C96.0429 101.535 95.5777 100.862 95.2596 100.151C94.9415 99.4402 94.8086 98.7317 94.8611 98.0255C94.9136 97.3193 95.1862 96.6549 95.6791 96.0324C95.8327 95.8462 96.0051 95.6552 96.1964 95.4596C96.3909 95.2674 96.5247 95.1365 96.5976 95.067L98.8733 92.8966ZM98.7855 94.3822L97.3013 95.7977C97.159 95.9334 97.0095 96.0825 96.853 96.2451C96.6964 96.4144 96.5707 96.5674 96.4759 96.7042C96.1117 97.1974 95.929 97.7096 95.9279 98.2409C95.9232 98.7756 96.0581 99.3098 96.3324 99.8435C96.61 100.381 96.9884 100.898 97.4676 101.396C97.95 101.897 98.4551 102.296 98.9827 102.595C99.5103 102.894 100.041 103.051 100.575 103.065C101.108 103.08 101.629 102.918 102.136 102.581C102.277 102.492 102.436 102.37 102.613 102.215C102.79 102.066 102.946 101.928 103.081 101.798L104.565 100.383L98.7855 94.3822Z" fill="white"/>
<path d="M92.953 98.4072L98.7695 106.971L93.3909 110.588L92.8214 109.75L97.3215 106.723L95.3099 103.761L91.527 106.306L90.9575 105.467L94.7404 102.923L92.6441 99.8365L88.144 102.863L87.5744 102.025L92.953 98.4072Z" fill="white"/>
<path d="M83.6665 103.602C84.6086 103.178 85.498 103.028 86.3347 103.15C87.1734 103.277 87.9266 103.634 88.5944 104.221C89.2622 104.808 89.8149 105.584 90.2527 106.547C90.6904 107.511 90.9102 108.436 90.9119 109.323C90.9136 110.21 90.6843 111.006 90.2239 111.712C89.7656 112.422 89.0653 112.989 88.1232 113.413C87.1767 113.839 86.2863 113.987 85.452 113.858C84.6153 113.736 83.8631 113.381 83.1953 112.794C82.5232 112.209 81.9682 111.434 81.5305 110.471C81.0927 109.507 80.8752 108.581 80.8778 107.692C80.8761 106.805 81.1044 106.007 81.5628 105.297C82.0188 104.593 82.72 104.028 83.6665 103.602ZM84.0854 104.524C83.3449 104.857 82.8033 105.303 82.4607 105.862C82.118 106.42 81.9597 107.053 81.9857 107.761C82.0093 108.475 82.1993 109.225 82.5558 110.009C82.9124 110.794 83.3512 111.429 83.8723 111.914C84.3891 112.401 84.9713 112.701 85.619 112.814C86.2667 112.927 86.9618 112.819 87.7043 112.491C88.4448 112.158 88.9842 111.713 89.3225 111.156C89.6607 110.6 89.8181 109.965 89.7945 109.25C89.7685 108.543 89.5795 107.795 89.2273 107.009C88.8752 106.222 88.4407 105.585 87.924 105.098C87.4048 104.617 86.8204 104.318 86.1708 104.201C85.5231 104.088 84.828 104.196 84.0854 104.524Z" fill="white"/>
<path d="M74.5519 111.255L74.629 112.156L70.3167 112.521L70.2396 111.62L74.5519 111.255Z" fill="white"/>
<defs>
<filter id="filter0_b_17094_18435" x="-49.2612" y="-49.5" width="230.523" height="228" filterUnits="userSpaceOnUse" color-interpolation-filters="sRGB">
<feFlood flood-opacity="0" result="BackgroundImageFix"/>
<feGaussianBlur in="BackgroundImageFix" stdDeviation="25"/>
<feComposite in2="SourceAlpha" operator="in" result="effect1_backgroundBlur_17094_18435"/>
<feBlend mode="normal" in="SourceGraphic" in2="effect1_backgroundBlur_17094_18435" result="shape"/>
</filter>
</defs>
</svg>
